<svg xmlns="http://www.w3.org/2000/svg" viewBox="0 0 121 118">
    <path fill-rule="evenodd" clip-rule="evenodd" fill="#fff" fill-opacity=".54" d="M60.388 0C27.04 0 0 27.035 0 60.388c0 26.68 17.303 49.316 41.297 57.302 3.018.56 4.126-1.31 4.126-2.905 0-1.44-.056-6.197-.082-11.243C28.54 107.195 25 96.417 25 96.417c-2.747-6.98-6.705-8.836-6.705-8.836-5.478-3.74.414-3.67.414-3.67 6.06.43 9.25 6.23 9.25 6.23 5.38 9.23 14.13 6.57 17.57 5.02.54-3.9 2.103-6.56 3.83-8.07-13.41-1.53-27.51-6.71-27.51-29.843 0-6.593 2.36-11.98 6.22-16.21-.625-1.52-2.692-7.662.587-15.98 0 0 5.07-1.622 16.61 6.19 4.817-1.34 9.983-2.01 15.115-2.032 5.132.024 10.302.695 15.13 2.033 11.524-7.815 16.59-6.19 16.59-6.19 3.285 8.316 1.22 14.46.59 15.98 3.874 4.23 6.217 9.615 6.217 16.21 0 23.192-14.13 28.3-27.58 29.794 2.165 1.876 4.095 5.55 4.095 11.185 0 8.08-.07 14.58-.07 16.57 0 1.606 1.086 3.49 4.146 2.896 23.98-7.993 41.265-30.62 41.265-57.293C120.778 27.032 93.74 0 60.39 0z"/>
    <path fill="#fff" d="M22.872 86.703c-.133.3-.605.39-1.035.185-.438-.197-.684-.606-.542-.907.13-.3.603-.39 1.04-.18.438.2.688.61.537.91zm2.445 2.73c-.288.266-.852.142-1.233-.28-.396-.42-.47-.984-.177-1.255.297-.267.843-.142 1.238.28.396.425.473.983.172 1.254zM27.7 92.91c-.37.257-.977.016-1.35-.522-.37-.537-.37-1.182.008-1.44.374-.257.97-.024 1.35.508.37.546.37 1.19-.01 1.453zm3.26 3.36c-.33.365-1.035.267-1.55-.23-.53-.487-.676-1.18-.345-1.544.336-.365 1.045-.263 1.564.23.52.487.68 1.182.33 1.544zm4.5 1.95c-.145.474-.824.69-1.508.487-.684-.207-1.13-.76-.992-1.238.142-.48.824-.7 1.513-.49.682.2 1.13.75.988 1.23zm4.943.362c.017.498-.563.91-1.28.92-.723.017-1.308-.387-1.315-.877 0-.503.567-.91 1.29-.924.716-.01 1.305.39 1.305.89zm4.6-.782c.085.485-.414.984-1.127 1.117-.7.13-1.35-.172-1.44-.653-.086-.498.422-.997 1.122-1.126.713-.124 1.353.168 1.444.662zm0 0"/>
</svg>
