<svg xmlns="http://www.w3.org/2000/svg" width="334" height="334" viewBox="0 0 334 334"><path fill="#81c784" fill-opacity=".54" d="M166.793 0C74.676 0 0 74.675 0 166.793c0 92.113 74.676 166.79 166.793 166.79 92.113 0 166.79-74.677 166.79-166.79C333.583 74.675 258.905 0 166.793 0zm64.996 158.02l-54.607 94.57c-2.145 3.71-6.105 6-10.39 6-4.29 0-8.25-2.29-10.396-6l-54.605-94.57c-2.145-3.712-2.145-8.286 0-12 2.14-3.712 6.102-6 10.39-6h26.61V86.995c0-6.63 5.37-12 12-12h32c6.625 0 12 5.37 12 12v53.023h26.605c4.29 0 8.25 2.288 10.395 6 2.14 3.714 2.14 8.288-.004 12zm0 0"/></svg>