<svg xmlns="http://www.w3.org/2000/svg" viewBox="0 0 26.666668 28" height="28" width="26.667"><defs><clipPath id="a"><path d="M0 202h200V2H0v200z"/></clipPath></defs><g><g><g><g clip-path="url(#a)" transform="matrix(.133 0 0 -.133 0 28)"><path d="M131.21 182c26.41-11.988 44.81-37.62 48.01-68.012h11.99C186.41 163.602 145.59 202 95.2 202h-5.59L120 171.61 131.21 182zm-50.43 6.41c-4.76 4.8-11.99 4.8-16.8 0L12.81 137.2c-4.798-4.81-4.798-12 0-16.802l95.98-96.02c4.8-4.757 11.99-4.757 16.8 0L176.8 75.59c4.802 4.808 4.802 12 0 16.8l-96.02 96.02zm36.84-156.02l-96.018 96.02 51.207 51.21 95.98-96.018-51.17-51.21zm-58.4-2.378C32.81 42 14.41 67.59 11.21 98.02H0C3.98 48.41 44.8 10.01 95.2 10.01h5.58L70.39 40.398 59.22 30.012z" fill="#fff" fill-opacity=".54"/></g></g></g></g></svg>