<svg xmlns="http://www.w3.org/2000/svg" viewBox="0 0 22.666668 29.333332" height="29.333" width="22.667"><defs><clipPath id="a"><path d="M0 8h170v210H0V8z"/></clipPath></defs><g><g><g><g clip-path="url(#a)" fill="#fff" fill-opacity=".54" transform="matrix(.133 0 0 -.133 0 29.333)"><path d="M32.34 148.43c-1.4 4.77-2.77 9.53-3.79 14.1-6.67 3.95-11.21 11.17-11.21 19.45 0 12.54 10.16 22.7 22.66 22.7s22.66-10.2 22.66-22.7c0-1.71-.238-3.36-.59-4.96 2.192-4.758 3.91-10.15 5.47-15.622 4.3 5.743 6.948 12.852 6.948 20.582 0 19.07-15.43 34.54-34.488 34.54-19.06 0-34.488-15.47-34.488-34.54 0-16.402 11.476-30.07 26.828-33.55z"/><path d="M8.52 66.75c8.468 9.18 18.04 5.59 30.82 3.63 10.97-1.68 21.75 1.41 21.05 7.31-1.128 9.61-2.73 13.9-6.37 26.33-2.93 9.878-8.43 27.69-13.43 44.68-6.72 22.78-8.68 33.36.27 36.02 9.652 2.81 15.16-10.9 20.19-29.88 5.712-21.61 8.68-31.18 10.36-30.668 2.97.86-1.058 10.117 6.68 12.38 9.68 2.82 11.558-4.763 14.25-3.982 2.7.82 1.8 8.48 9.54 10.74 7.73 2.23 11.64-7.34 14.84-6.36 3.16.93 3.08 4.37 7.89 5.74 4.77 1.4 22.812-6.64 33.12-41.92 12.97-44.33-1.64-52.54 2.782-67.57L102.7 11.237c-4.688 11.25-19.18 12.07-32 19.262-12.93 7.27-21.68 21.45-55.348 20.738C2.66 50.968 3.282 61.09 8.52 66.75z"/></g></g></g></g></svg>