<svg xmlns="http://www.w3.org/2000/svg" viewBox="0 0 192 198.66667">
    <defs>
        <clipPath id="a">
            <path d="M0 1482.23h1440V2.23H0v1480z"/>
        </clipPath>
    </defs>
    <g clip-path="url(#a)" transform="matrix(.133 0 0 -.133 0 198.667)">
        <path d="M1150.55 975.828c24.61-26.29 49.25-52.54 74.45-78.277 15.98-16.33 46.41-13.44 57.38 7.38 66.72 126.25 104.53 262.85 148.83 397.89 6.88 21.02-12.15 49.84-35.78 46.91-72.03-8.9-138.63-31.6-205.86-58.39-56.13-22.39-127.38-39.69-177.38-73.29-15.24-10.23-18.088-27.65-11.96-41.13-13.35-9.69-18.86-32.11-4.92-44.61 16.64-14.96 32.62-30.51 48.52-46.13-21.06-18.79-40.43-40.51-54.77-52.62-74.26-62.65-149.798-123.83-225.7-184.49-95.938 119.18-201.68 234.65-326.95 322.5 23.942 23.75 47.97 47.54 73.238 70.31 18.16 16.41 12.153 46.49-7.54 58.4-120.198 72.77-239.3 144.26-376.21 180.66-23.75 6.33-44.218-11.44-45.667-34.8-4.84-77.77 3.36-155.12 16.38-231.72 10.47-61.52 25.74-157.89 77.03-200.35 7.66-6.37 17.07-8.2 25.67-6.84 6.25-7.57 17.03-11.09 29.29-4.64 47.5 24.92 88.44 56.91 127.11 91.64 90.9-117.89 183.09-235.08 275.55-351.84C523.92 655.24 415.6 568.18 301.42 491.3c-23.25 22.11-47.58 43-73.988 61.6-12.73 8.98-24.8 1.37-29.53-9.88-4.88-2.82-9.412-6.84-13.09-12.74C126.448 436.8 71.17 341.65 5.698 252.86c-16.56-22.462 5.55-59.3 32.74-57.032 137.58 11.64 274.06 33.12 411.56 45.82 30.82 2.852 49.65 38.082 25.86 62.46-25.27 25.86-49.45 53.013-73.63 80.193 125.43 41.06 240.97 129.57 344.25 214.65 47.39-57.07 96.25-112.77 147.82-166.17 42.34-43.83 93.04-100.16 150.04-133.2-18.79-15.9-37.43-31.92-56.45-47.61-11.33-9.37-9.65-23.32-2.11-33.01-2.85-3.01-5.23-6.52-6.4-11.21-15.55-60.382 88-92.77 127.73-110.222 79.18-34.852 161.87-64.96 245.7-86.532 20-5.15 46.84 10.39 44.18 33.68-15.74 138.39-61.99 272.853-128.32 395.07-10.94 20.123-36.87 20.39-52.62 6.8-29.88-25.78-59.68-51.517-89.53-77.23C1033.87 472.08 954.61 591.65 872.7 705.24c59.49 52.383 116.75 107.274 172.34 163.672 27.03 27.43 73.87 65.63 105.51 106.918zm-55.12 195.082c-2.58-1.45-5.12-3.01-7.73-4.42-6.88-3.67-11.53-8.36-14.54-13.51-4.06 2.69-8 5.7-12.18 8.16 11.48 2.23 23 5.66 34.45 9.77z" fill="#fff" fill-opacity=".54"/>
    </g>
</svg>
