<svg xmlns="http://www.w3.org/2000/svg" viewBox="0 0 334 334"><path fill="#81c784" fill-opacity=".54" d="M166.793 0C74.676 0 0 74.675 0 166.793c0 92.113 74.676 166.79 166.793 166.79 92.113 0 166.79-74.677 166.79-166.79C333.583 74.675 258.905 0 166.793 0zm64.996 158.02l-54.61 94.57c-2.15 3.71-6.11 6-10.39 6-4.29 0-8.25-2.29-10.4-6l-54.61-94.57c-2.148-3.712-2.148-8.286 0-12 2.14-3.712 6.1-6 10.39-6h26.61V86.995c0-6.63 5.37-12 12-12h32c6.622 0 12 5.37 12 12v53.023h26.602c4.29 0 8.25 2.288 10.395 6 2.14 3.714 2.14 8.288 0 12zm0 0"/></svg>