<svg xmlns="http://www.w3.org/2000/svg" width="121" height="118" viewBox="0 0 121 118"><path fill-rule="evenodd" clip-rule="evenodd" fill="#fff" fill-opacity=".54" d="M60.388 0C27.04 0 0 27.035 0 60.388c0 26.68 17.303 49.316 41.297 57.302 3.018.56 4.126-1.31 4.126-2.905 0-1.44-.056-6.197-.082-11.243-16.8 3.653-20.343-7.125-20.343-7.125-2.747-6.98-6.705-8.836-6.705-8.836-5.478-3.746.414-3.67.414-3.67 6.063.427 9.257 6.225 9.257 6.225 5.387 9.23 14.128 6.563 17.574 5.02.542-3.902 2.106-6.567 3.834-8.075-13.412-1.527-27.513-6.706-27.513-29.845 0-6.593 2.36-11.98 6.223-16.21-.627-1.52-2.694-7.662.585-15.98 0 0 5.07-1.622 16.61 6.19 4.817-1.338 9.983-2.01 15.115-2.032 5.132.023 10.302.694 15.128 2.032 11.526-7.813 16.59-6.19 16.59-6.19 3.287 8.318 1.22 14.46.593 15.98 3.873 4.23 6.216 9.617 6.216 16.21 0 23.194-14.127 28.3-27.574 29.796 2.165 1.876 4.095 5.55 4.095 11.185 0 8.08-.07 14.583-.07 16.572 0 1.607 1.088 3.49 4.148 2.897 23.98-7.994 41.263-30.622 41.263-57.294C120.776 27.034 93.738 0 60.388 0z"/><path fill="#fff" d="M22.872 86.703c-.133.3-.605.39-1.035.185-.438-.197-.684-.606-.542-.907.13-.307.603-.393 1.04-.186.438.196.688.61.537.91zM25.317 89.433c-.288.266-.852.142-1.233-.28-.396-.42-.47-.984-.177-1.255.297-.267.843-.142 1.238.28.396.425.473.983.172 1.254zM27.7 92.91c-.37.257-.977.016-1.35-.522-.37-.537-.37-1.182.008-1.44.374-.257.97-.024 1.35.508.37.546.37 1.19-.01 1.453zm3.26 3.36c-.33.365-1.035.267-1.55-.23-.53-.487-.676-1.18-.345-1.544.336-.365 1.045-.263 1.564.23.523.487.682 1.182.33 1.544zm4.5 1.95c-.145.474-.824.69-1.508.487-.684-.207-1.13-.76-.992-1.238.142-.48.824-.7 1.513-.487.682.205 1.13.755.988 1.237zm4.943.362c.017.498-.563.91-1.28.92-.723.017-1.308-.387-1.315-.877 0-.503.567-.91 1.29-.924.716-.01 1.305.39 1.305.883zm4.6-.782c.085.485-.414.984-1.127 1.117-.7.13-1.35-.172-1.44-.653-.086-.498.422-.997 1.122-1.126.713-.124 1.353.168 1.444.662zm0 0"/></svg>