<svg xmlns="http://www.w3.org/2000/svg" viewBox="0 0 68 108" height="108" width="68"><defs><clipPath id="a"><path d="M0 802.922h510v-800H0v800z"/></clipPath></defs><g><g><g><g clip-path="url(#a)" transform="matrix(.133 0 0 -.133 0 108)"><path d="M501.64 139.172c-24.45 46.09-19.26 33.79-23.67 56.558-4.02 20.59-1.99 44.34-3.09 68.95-1.68 37.19-5.15 76.29-5.15 109.058 0 28.793-12.03 37.934-18.52 56.563-9.448 27.11-17.03 51.88-29.84 64.81-15.51 15.7-32.542 5.742-32.542 5.742-11.207 29.02-14.18 36.41-25.976 50.738-11.372 13.832-28.473 11.96-28.473 11.96s-8.4 41.67-27.58 62.688c-10.198 11.25-31.288 11.09-39.222 7.274-5.738-2.82-13.437-11.723-21.488-17.62-15.47-11.29-34.14-32.462-34.14-32.5 0 0-3.2 9.647-11.99 26.91-2.42 4.686-5.55 9.89-8.98 15.32 17.93 18.858 28.98 44.25 28.98 72.257 0 58.01-47.03 105.042-105 105.042-58.01 0-105.038-47.03-105.038-105.043 0-56.6 44.88-102.66 100.976-104.802 5-14.77 11.05-30.86 16.332-44.457 9.84-25.31 18.16-45.972 22.848-72.57 3.473-19.5 1.442-41.84.582-60.472-.7-15.816-1.87-31.058-3.71-43.598-2.5-17.11-7.93-29.1-10.82-36.79-2.15-5.75-1.79-10.588-1.79-10.588s-3.988.078-8.72-1.48c-4.722-1.57-7.73-5.513-7.73-5.513l-7.85 5.27s1.48 2.85 0 7.972c-1.6 5.59-4.42 13.398-8.4 23.91-1.6 4.25-3.16 12.77-4.41 16.828-3.32 10.672-7.742 14.61-7.742 14.61s4.57 14.652-1.558 30.472c-6.41 16.637-20.47 38.95-36.13 53.79-12.89 12.186-23.402 15.39-34.57 13.71C3.36 482.06-1.95 465.97.62 449.052c1.57-10.232 6.142-24.02 7.19-31.09 2.58-16.91-6.72-36.884-6.4-48.52.47-15.114 8.32-23.473 15.54-55.39 2.58-11.36 10-23.833 13.402-36.872 5.04-19.3 8.167-37.7 10.386-42.352 11.883-24.61 59.063-55.5 102.89-95.656 24.692-22.62 53.872-22.73 74.07-43.203 12.34-12.54 19.142-33.482 31.872-52.458 52.81-78.64 207.5-1.8 248.16 56.476 9.65 13.832 7.7 31.992 3.91 39.184zM23.12 697.88c0 50.74 41.1 91.84 91.802 91.84 50.738 0 91.84-41.1 91.84-91.84 0-23.32-8.75-44.528-23.09-60.74-4.102 6.41-8.242 13.008-12.03 19.61 8.397 11.56 13.436 25.738 13.436 41.13 0 38.75-31.406 70.16-70.156 70.16-38.71 0-70.12-31.41-70.12-70.16 0-33.552 23.64-61.6 55.16-68.482 1.8-6.437 3.71-12.957 5.66-19.68.32-1.058.667-2.148.98-3.25-46.8 4.223-83.48 43.52-83.48 91.41zm140.83-26.482c-15.79 32.032-27.23 64.293-56.92 55.43-8.91-2.656-17.89-11.566-19.3-26.18-1.402-14.25 2.23-33.32 7.82-54.918-21.21 7.89-36.33 28.24-36.33 52.15 0 30.78 24.96 55.74 55.702 55.74 30.777 0 55.738-24.96 55.7-55.74 0-9.57-2.423-18.59-6.673-26.482z" fill="#fff" fill-opacity=".54"/></g></g></g></g></svg>