<svg xmlns="http://www.w3.org/2000/svg" xmlns:xlink="http://www.w3.org/1999/xlink" viewBox="-5.119 -0.25 70 70" enable-background="new -5.119 -0.25 70 70"><defs><path id="a" d="M0 0h59.762v35H.002z"/></defs><clipPath id="b"><use xlink:href="#a" overflow="visible"/></clipPath><path fill="#fff" fill-opacity=".2" clip-path="url(#b)" d="M29.86 34.043c-1.07 0-2.14-.41-2.953-1.223L1.227 7.14c-1.637-1.636-1.637-4.285 0-5.917 1.633-1.63 4.28-1.63 5.915 0L29.86 23.945 52.583 1.227c1.633-1.633 4.28-1.633 5.914 0 1.633 1.632 1.633 4.28 0 5.914l-25.68 25.68c-.812.82-1.886 1.23-2.957 1.23z"/><defs><path id="c" d="M0 34.5h59.762v35H.002z"/></defs><clipPath id="d"><use xlink:href="#c" overflow="visible"/></clipPath><path fill="#fff" fill-opacity=".2" clip-path="url(#d)" d="M29.86 68.543c-1.07 0-2.14-.41-2.953-1.223L1.227 41.64c-1.637-1.636-1.637-4.284 0-5.917 1.633-1.63 4.28-1.63 5.915 0L29.86 58.445l22.723-22.72c1.633-1.632 4.28-1.632 5.914 0s1.633 4.282 0 5.915l-25.68 25.68c-.812.817-1.886 1.223-2.957 1.223z"/></svg>