<svg xmlns="http://www.w3.org/2000/svg" viewBox="0 0 68 108"><defs><clipPath id="a"><path d="M0 802.922h510v-800H0v800z"/></clipPath></defs><g clip-path="url(#a)" transform="matrix(.133 0 0 -.133 0 108)"><path d="M501.64 139.172c-24.45 46.09-19.26 33.79-23.67 56.558-4.02 20.59-1.99 44.34-3.09 68.95-1.68 37.19-5.15 76.29-5.15 109.058 0 28.793-12.03 37.934-18.52 56.563-9.448 27.11-17.03 51.88-29.84 64.81-15.51 15.7-32.542 5.75-32.542 5.75-11.207 29.02-14.18 36.41-25.976 50.74-11.372 13.838-28.473 11.96-28.473 11.96s-8.4 41.67-27.58 62.69c-10.2 11.25-31.29 11.09-39.23 7.278-5.74-2.82-13.44-11.723-21.49-17.62-15.47-11.29-34.14-32.462-34.14-32.5 0 0-3.2 9.647-11.99 26.91-2.42 4.686-5.55 9.89-8.98 15.32 17.93 18.858 28.98 44.25 28.98 72.257 0 58.01-47.03 105.04-105 105.04-58.01 0-105.04-47.03-105.04-105.042 0-56.6 44.88-102.66 100.972-104.8 5-14.77 11.05-30.86 16.332-44.457 9.84-25.31 18.16-45.97 22.846-72.57 3.474-19.5 1.443-41.84.583-60.47-.7-15.82-1.87-31.06-3.71-43.6-2.5-17.11-7.93-29.1-10.82-36.79-2.15-5.75-1.79-10.59-1.79-10.59s-3.99.08-8.72-1.48c-4.724-1.57-7.73-5.512-7.73-5.512l-7.85 5.27s1.48 2.85 0 7.97c-1.6 5.59-4.42 13.4-8.4 23.91-1.6 4.25-3.16 12.77-4.41 16.83-3.32 10.67-7.744 14.61-7.744 14.61s4.57 14.65-1.56 30.47c-6.41 16.638-20.47 38.95-36.13 53.79-12.89 12.187-23.402 15.39-34.57 13.71-13.87-2.11-19.18-18.2-16.61-35.12 1.57-10.23 6.143-24.02 7.19-31.09 2.58-16.91-6.72-36.883-6.4-48.52.47-15.113 8.32-23.472 15.54-55.39 2.58-11.36 10-23.832 13.403-36.87 5.04-19.3 8.167-37.7 10.386-42.353 11.89-24.61 59.07-55.5 102.89-95.654 24.697-22.62 53.877-22.73 74.07-43.206 12.34-12.54 19.147-33.485 31.877-52.46 52.81-78.64 207.5-1.8 248.16 56.475 9.65 13.833 7.7 31.993 3.91 39.185zM23.12 697.88c0 50.74 41.1 91.84 91.802 91.84 50.738 0 91.84-41.1 91.84-91.84 0-23.32-8.75-44.528-23.09-60.74-4.102 6.41-8.242 13.008-12.03 19.61 8.397 11.56 13.436 25.738 13.436 41.13 0 38.75-31.406 70.16-70.156 70.16-38.71 0-70.12-31.41-70.12-70.16 0-33.552 23.64-61.6 55.16-68.482 1.8-6.437 3.71-12.957 5.66-19.68.32-1.058.667-2.148.98-3.25-46.8 4.223-83.48 43.52-83.48 91.41zm140.83-26.482c-15.79 32.032-27.23 64.293-56.92 55.43-8.91-2.656-17.89-11.566-19.3-26.18-1.402-14.25 2.23-33.32 7.82-54.918-21.21 7.89-36.33 28.24-36.33 52.15 0 30.78 24.96 55.74 55.702 55.74 30.777 0 55.738-24.96 55.7-55.74 0-9.57-2.423-18.59-6.673-26.482z" fill="#fff" fill-opacity=".54"/></g></svg>