<svg xmlns="http://www.w3.org/2000/svg" viewBox="0 0 273.39 273.6"><path fill="#fff" fill-opacity=".54" d="M273.39 52.012c-10.06 4.46-20.868 7.477-32.215 8.832 11.58-6.94 20.475-17.934 24.662-31.03-10.837 6.426-22.84 11.094-35.617 13.61-10.23-10.9-24.81-17.713-40.94-17.713-30.978 0-56.09 25.12-56.09 56.09 0 4.4.495 8.68 1.45 12.78-46.614-2.33-87.943-24.66-115.607-58.6-4.828 8.29-7.594 17.92-7.594 28.2 0 19.46 9.9 36.63 24.95 46.69-9.2-.29-17.85-2.81-25.41-7.01-.01.235-.01.47-.01.706 0 27.177 19.33 49.847 44.99 55-4.707 1.28-9.66 1.967-14.777 1.967-3.614 0-7.128-.35-10.553-1.004 7.14 22.285 27.855 38.5 52.4 38.955-19.198 15.04-43.383 24.01-69.66 24.01-4.528 0-8.993-.266-13.38-.783 24.82 15.916 54.304 25.2 85.98 25.2 103.167 0 159.583-85.466 159.583-159.585 0-2.434-.055-4.85-.16-7.26 10.96-7.91 20.47-17.786 27.99-29.034z"/></svg>