<svg xmlns="http://www.w3.org/2000/svg" width="273.39" height="273.6" viewBox="0 0 273.39 273.6"><path fill="#fff" fill-opacity=".54" d="M273.39 52.012c-10.06 4.46-20.868 7.477-32.215 8.832 11.58-6.94 20.475-17.934 24.662-31.03-10.837 6.426-22.84 11.094-35.617 13.61-10.23-10.9-24.81-17.713-40.94-17.713-30.978 0-56.09 25.114-56.09 56.09 0 4.395.495 8.676 1.45 12.78C88.026 92.243 46.697 69.913 19.033 35.98c-4.828 8.284-7.594 17.92-7.594 28.198 0 19.46 9.902 36.627 24.952 46.686-9.194-.29-17.843-2.814-25.405-7.016-.004.234-.005.47-.005.705 0 27.177 19.334 49.847 44.993 55-4.707 1.28-9.662 1.967-14.777 1.967-3.614 0-7.128-.352-10.553-1.006 7.138 22.284 27.852 38.5 52.396 38.954-19.197 15.043-43.382 24.01-69.66 24.01-4.527 0-8.992-.266-13.38-.783 24.822 15.915 54.305 25.2 85.98 25.2 103.168 0 159.584-85.467 159.584-159.586 0-2.432-.055-4.85-.162-7.256 10.958-7.91 20.468-17.788 27.988-29.036z"/></svg>