<?xml version="1.0" standalone="no"?>
<!DOCTYPE svg PUBLIC "-//W3C//DTD SVG 1.1//EN" "http://www.w3.org/Graphics/SVG/1.1/DTD/svg11.dtd" >
<svg xmlns="http://www.w3.org/2000/svg">
<metadata></metadata>
<defs>
<font id="pf_highway_sans_pro_blackRg" horiz-adv-x="3723" >
<font-face units-per-em="2048" ascent="1536" descent="-512" />
<missing-glyph horiz-adv-x="614" />
<glyph unicode="fj" horiz-adv-x="1292" d="M41 735v264h125v144q0 182 123 280.5t319 98.5q231 0 406 -66l-49 -297q-175 23 -230 23q-91 0 -134.5 -33.5t-43.5 -106.5v-43h242l381 62v-1108q0 -227 -145.5 -330.5t-436.5 -103.5l-23 307q137 24 178.5 67.5t41.5 153.5v688h-238v-735h-391v735h-125z" />
<glyph unicode="ffj" horiz-adv-x="1933" d="M41 735v264h125v129q0 182 123 280.5t319 98.5q178 0 322 -39q119 101 319 101q231 0 406 -66l-49 -297q-175 23 -230 23q-92 0 -135 -33t-43 -106v-91h242l381 62v-1108q0 -227 -145.5 -330.5t-436.5 -103.5l-22 307q137 24 178 67.5t41 153.5v688h-238v-735h-391v735 h-250v-735h-391v735h-125zM557 999h250v164q-50 4 -72 4q-92 0 -135 -33t-43 -106v-29z" />
<glyph unicode="ff" horiz-adv-x="1454" d="M41 735v264h125v131q0 182 123 280.5t319 98.5q175 0 316 -36q103 73 266 73q136 0 244 -24l-15 -318q-66 4 -88 4q-71 0 -103 -20.5t-32 -81.5v-107h205v-264h-205v-735h-391v735h-248v-735h-391v735h-125zM557 999h248v166q-50 4 -70 4q-92 0 -135 -33t-43 -106v-31z " />
<glyph unicode="fi" horiz-adv-x="1292" d="M41 735v264h125v144q0 182 123 280.5t319 98.5q231 0 406 -66l-49 -297q-175 23 -230 23q-91 0 -134.5 -33.5t-43.5 -106.5v-43h242l381 62v-1061h-385v735h-238v-735h-391v735h-125z" />
<glyph unicode="fl" horiz-adv-x="1269" d="M51 735v264h119v107q0 183 123.5 282t318.5 99q97 0 230 -21l336 68v-1534h-390v1143q-16 2 -49 2q-94 0 -136 -28t-42 -99v-19h160v-264h-160v-735h-391v735h-119z" />
<glyph unicode="ffi" horiz-adv-x="1933" d="M41 735v264h125v129q0 182 123 280.5t319 98.5q178 0 322 -39q119 101 319 101q231 0 406 -66l-49 -297q-175 23 -230 23q-92 0 -135 -33t-43 -106v-91h238l385 62v-1061h-385v735h-238v-735h-391v735h-250v-735h-391v735h-125zM557 999h250v164q-50 4 -72 4 q-92 0 -135 -33t-43 -106v-29z" />
<glyph unicode="ffl" horiz-adv-x="1890" d="M51 735v264h125v129q0 182 123 280.5t319 98.5q151 0 295 -39q119 101 320 101q129 0 260 -25l305 60v-1604h-389v1227q-16 2 -49 2q-92 0 -135 -33t-43 -106v-91h149v-264h-149v-735h-391v735h-224v-735h-391v735h-125zM567 999h224v164q-102 13 -163 -19.5t-61 -115.5 v-29z" />
<glyph unicode="ft" horiz-adv-x="1554" d="M51 735v264h125v148q0 160 102 248t283 88q131 0 244 -25l-14 -317q-62 4 -93 4q-62 0 -96.5 -18t-34.5 -68v-60h283v213l385 136v-349h217v-264h-217v-270q0 -90 24 -122t103 -32q52 0 115 8l26 -305q-163 -41 -321 -41q-167 0 -251.5 78t-84.5 260v424h-279v-735h-391 v735h-125z" />
<glyph unicode=" "  horiz-adv-x="614" />
<glyph unicode="&#x09;" horiz-adv-x="614" />
<glyph unicode="&#xa0;" horiz-adv-x="614" />
<glyph unicode="!" horiz-adv-x="706" d="M164 180q0 55 20 96.5t51.5 64t65.5 33.5t68 11q87 0 140.5 -58.5t53.5 -144.5t-57.5 -145.5t-140.5 -59.5q-85 0 -143 58.5t-58 144.5zM174 954v381h389v-379l-49 -481h-293z" />
<glyph unicode="&#x22;" horiz-adv-x="1042" d="M123 1335h377l-49 -587h-279zM543 1335h377l-50 -587h-278z" />
<glyph unicode="#" horiz-adv-x="1351" d="M2 262l47 262h213l51 285h-213l47 262h213l48 262h294l-47 -262h183l47 262h297l-47 -262h213l-50 -262h-213l-51 -285h213l-45 -262h-215l-47 -262h-295l47 262h-182l-47 -262h-297l47 262h-211zM547 512h201l55 311h-201z" />
<glyph unicode="$" horiz-adv-x="1351" d="M145 197l199 270q83 -71 174.5 -106t165.5 -35q64 0 97.5 23.5t33.5 56.5q0 34 -34 53.5t-148 48.5q-87 24 -150 48t-121.5 58.5t-94.5 77t-57.5 101.5t-21.5 133q0 162 95 263.5t249 135.5v199h271v-193q222 -32 364 -162l-192 -280q-160 129 -309 129q-51 0 -73 -20.5 t-22 -49.5q0 -32 34.5 -50t117.5 -43q16 -4 25 -7q168 -47 243 -86q212 -111 213 -338q0 -93 -31.5 -168.5t-87.5 -126t-126.5 -81.5t-155.5 -44v-194h-271v198q-116 21 -217.5 69.5t-169.5 119.5z" />
<glyph unicode="%" horiz-adv-x="2174" d="M53 893q0 69 16.5 134t52 123.5t86 102t124.5 69.5t162 26q195 0 316.5 -127t121.5 -326q0 -201 -121.5 -330t-316.5 -129q-88 0 -162 25.5t-124.5 69t-86 102t-52 124t-16.5 136.5zM362 895q0 -102 34.5 -156.5t97.5 -54.5q62 0 96.5 55t34.5 154q0 102 -34.5 156.5 t-96.5 54.5q-63 0 -97.5 -55t-34.5 -154zM492 -61l913 1456h283l-914 -1456h-282zM1251 442q0 69 16.5 134t52 123.5t86 102t124.5 69.5t162 26q195 0 316.5 -127t121.5 -326q0 -201 -121.5 -329.5t-316.5 -128.5q-110 0 -196.5 38.5t-138.5 103.5t-79 145t-27 169z M1561 444q0 -102 34 -156.5t97 -54.5q62 0 96.5 55t34.5 154q0 102 -34.5 156.5t-96.5 54.5q-63 0 -97 -55t-34 -154z" />
<glyph unicode="&#x26;" horiz-adv-x="1624" d="M123 440q0 122 61.5 235t180.5 197q-117 114 -117 242q0 43 11 87t39 89.5t70 80.5t109.5 57t151.5 22q172 0 274.5 -90.5t102.5 -241.5q0 -83 -51.5 -161.5t-125.5 -141.5q15 -15 39 -43q140 70 291 70q207 0 397 -56l-53 -237q-80 15 -160 24v-38q0 -135 -52.5 -245 t-141 -179.5t-199 -106.5t-231.5 -37q-146 0 -262.5 39.5t-187.5 106t-108.5 150.5t-37.5 177zM473 446q0 -24 5.5 -46.5t21.5 -48.5t41.5 -45t69.5 -31.5t102 -12.5q133 0 208.5 86.5t75.5 210.5v4q-103 -35 -182 -196l-215 92q35 86 35 108q0 42 -57 105 q-45 -45 -75 -107.5t-30 -118.5zM580 1108q0 -27 10.5 -56.5t27.5 -47.5q28 22 42 54.5t14 57.5q0 34 -12 55t-33 21q-10 0 -19.5 -4.5t-19.5 -24.5t-10 -55z" />
<glyph unicode="'" horiz-adv-x="622" d="M123 1335h377l-49 -587h-279z" />
<glyph unicode="(" horiz-adv-x="819" d="M102 578q0 241 110 477t280 411l256 -182q-127 -165 -200 -350t-73 -344q0 -336 260 -684l-252 -182q-168 174 -274.5 398.5t-106.5 455.5z" />
<glyph unicode=")" horiz-adv-x="813" d="M61 1284l256 182q170 -175 280 -411t110 -477q0 -231 -106.5 -455.5t-274.5 -398.5l-252 182q260 348 260 684q0 159 -73 344t-200 350z" />
<glyph unicode="*" horiz-adv-x="1026" d="M102 948l86 260l203 -90l-29 219h304l-29 -215l201 86l86 -260l-228 -45l150 -168l-228 -164l-108 187l-113 -187l-223 164l154 168z" />
<glyph unicode="+" horiz-adv-x="1351" d="M152 485v306h346v342h342v-342h350v-306h-350v-342h-342v342h-346z" />
<glyph unicode="," horiz-adv-x="659" d="M123 176q0 89 58 147t141 58q98 0 156.5 -68.5t58.5 -183.5q0 -151 -81 -272.5t-218 -204.5l-105 141q67 49 98 92t54 105q-73 5 -117.5 54.5t-44.5 131.5z" />
<glyph unicode="-" horiz-adv-x="878" d="M123 440v320h633v-320h-633z" />
<glyph unicode="." horiz-adv-x="645" d="M123 180q0 55 20 96.5t51.5 64t65.5 33.5t68 11q87 0 140.5 -58.5t53.5 -144.5t-57.5 -145.5t-140.5 -59.5q-85 0 -143 58.5t-58 144.5z" />
<glyph unicode="/" horiz-adv-x="1247" d="M0 -152l893 1622h352l-895 -1622h-350z" />
<glyph unicode="0" horiz-adv-x="1351" d="M51 668q0 105 23.5 203t74 186.5t122.5 154.5t176.5 105t228.5 39q185 0 327.5 -87.5t219.5 -243.5t77 -355q0 -304 -172.5 -497t-451.5 -193q-125 0 -229.5 38t-176.5 103.5t-122 154t-73.5 187.5t-23.5 205zM451 670q0 -174 59.5 -269.5t165.5 -95.5t165.5 96t59.5 267 q0 176 -59 270t-166 94q-106 0 -165.5 -96t-59.5 -266z" />
<glyph unicode="1" horiz-adv-x="1351" d="M342 911v260q109 8 157 49.5t68 112.5h340v-1333h-389v911h-176z" />
<glyph unicode="2" horiz-adv-x="1351" d="M74 0q4 122 40 231t86.5 187t127.5 152t143.5 121.5t155.5 101.5q93 57 125 86.5t32 64.5q0 41 -33.5 66.5t-97.5 25.5q-155 0 -350 -153l-192 258q107 104 259 159.5t310 55.5q137 0 249 -41.5t183.5 -131t71.5 -214.5q0 -131 -84.5 -231t-270.5 -197 q-130 -67 -187 -115.5t-89 -108.5h631v-317h-1110z" />
<glyph unicode="3" horiz-adv-x="1351" d="M63 197l230 245q83 -79 155.5 -111t153.5 -32q77 0 133 37.5t56 91.5q0 61 -37.5 93t-110.5 32h-184v268h182q60 0 96.5 32t36.5 83q0 39 -35.5 67.5t-113.5 28.5q-157 0 -322 -127l-180 256q106 94 246.5 144.5t287.5 50.5q128 0 229 -32t161 -86t91 -118t31 -133 q0 -93 -52.5 -171t-145.5 -114q96 -32 155.5 -113t59.5 -179q0 -88 -30.5 -160t-83.5 -121.5t-126 -83.5t-156 -49.5t-176 -15.5q-156 0 -300 55.5t-251 161.5z" />
<glyph unicode="4" horiz-adv-x="1351" d="M57 260v254l678 821h377v-780h164v-295h-164v-260h-371v260h-684zM496 555h245v311z" />
<glyph unicode="5" horiz-adv-x="1351" d="M94 141l160 283q196 -127 395 -127q90 0 147.5 42.5t57.5 119.5q0 68 -52.5 104.5t-125.5 36.5q-115 0 -217 -74l-314 115l56 692h962v-309h-624l-13 -141q105 37 207 37q236 0 372 -121t136 -328q0 -238 -163.5 -364.5t-432.5 -126.5q-291 0 -551 161z" />
<glyph unicode="6" horiz-adv-x="1351" d="M94 530q0 77 14.5 154t48.5 158.5t85.5 154t131 138t179 113t235 77t293.5 31.5v-324q-206 -6 -312.5 -41.5t-176.5 -124.5q82 23 174 23q105 0 193.5 -26.5t157 -78.5t107 -135.5t38.5 -191.5q0 -225 -164.5 -351t-433.5 -126q-124 0 -226.5 33.5t-180 99.5 t-120.5 172.5t-43 244.5zM481 444q0 -64 48 -109.5t147 -45.5t148.5 46t49.5 111q0 56 -52 102t-138 46q-95 0 -149 -48t-54 -102z" />
<glyph unicode="7" horiz-adv-x="1351" d="M113 1024v311h1087v-270q-223 -217 -325.5 -467t-106.5 -598h-387q4 323 88.5 568.5t255.5 455.5h-612z" />
<glyph unicode="8" horiz-adv-x="1351" d="M72 408q0 95 57 184.5t150 124.5q-76 37 -114 105.5t-38 138.5q0 127 74.5 218t196.5 134t278 43q150 0 270.5 -42.5t195.5 -133.5t75 -217q0 -66 -40 -137t-112 -107q95 -44 151 -124.5t56 -182.5q0 -207 -159 -319.5t-441 -112.5q-289 0 -444.5 110t-155.5 318z M467 426q0 -67 47 -104t160 -37q103 0 155 39.5t52 101.5q0 65 -52 104t-157 39q-93 0 -149 -40.5t-56 -102.5zM520 942q0 -44 42 -76t114 -32q68 0 108.5 33t40.5 75q0 47 -36.5 80t-116.5 33q-72 0 -112 -34t-40 -79z" />
<glyph unicode="9" horiz-adv-x="1351" d="M84 879q0 225 164.5 351t433.5 126q126 0 228.5 -33.5t179.5 -100t119 -173t42 -244.5q0 -77 -14.5 -154t-48.5 -158.5t-85.5 -154t-131 -137.5t-179 -112.5t-235 -77t-293.5 -31.5v323q206 6 313 42t177 124q-82 -23 -174 -23q-83 0 -156.5 16.5t-136 51t-107.5 85 t-70.5 122.5t-25.5 158zM463 889q0 -56 52 -102t138 -46q95 0 149 48t54 102q0 65 -47.5 112.5t-146.5 47.5q-98 0 -148.5 -48t-50.5 -114z" />
<glyph unicode=":" horiz-adv-x="645" d="M123 180q0 55 20 96.5t51.5 64t65.5 33.5t68 11q87 0 140.5 -58.5t53.5 -144.5t-57.5 -145.5t-140.5 -59.5q-85 0 -143 58.5t-58 144.5zM123 694q0 55 20 96.5t51.5 64t65.5 33.5t68 11q87 0 140.5 -58.5t53.5 -144.5t-57.5 -145t-140.5 -59q-85 0 -143 58t-58 144z" />
<glyph unicode=";" horiz-adv-x="659" d="M123 176q0 89 58 147t141 58q98 0 156.5 -68.5t58.5 -183.5q0 -151 -81 -272.5t-218 -204.5l-105 141q67 49 98 92t54 105q-73 5 -117.5 54.5t-44.5 131.5zM123 694q0 55 20 96.5t51.5 64t65.5 33.5t68 11q87 0 140.5 -58.5t53.5 -144.5t-57.5 -145t-140.5 -59 q-85 0 -143 58t-58 144z" />
<glyph unicode="&#x3c;" horiz-adv-x="1351" d="M223 549v225l848 449v-361l-430 -194q71 -41 215 -111q125 -61 215 -108v-367z" />
<glyph unicode="=" horiz-adv-x="1351" d="M162 262v305h989v-305h-989zM162 752v303h989v-303h-989z" />
<glyph unicode="&#x3e;" horiz-adv-x="1351" d="M244 84v356l430 195q-31 18 -106.5 55.5t-96.5 48.5q-35 16 -227 115v369q165 -93 460 -256t388 -215v-222z" />
<glyph unicode="?" horiz-adv-x="1110" d="M72 840q0 99 27.5 183.5t75 144.5t111.5 102.5t138 63t154 20.5q208 0 334 -109.5t126 -281.5q0 -74 -25 -133t-63.5 -100t-77.5 -79.5t-73 -92t-45 -116.5h-365q1 68 16 124.5t38 95t50 71t54 57.5t49.5 48.5t36.5 51t14 58.5q0 35 -23 60.5t-61 25.5q-56 0 -85 -55.5 t-29 -138.5h-377zM373 176q0 55 20 96.5t51.5 64t65.5 33.5t68 11q87 0 140.5 -58.5t53.5 -144.5t-58 -145.5t-141 -59.5q-85 0 -142.5 58.5t-57.5 144.5z" />
<glyph unicode="@" horiz-adv-x="1912" d="M113 678q0 178 65.5 333t180 265.5t276.5 173.5t348 63q176 0 326.5 -49.5t259 -139.5t170 -223t61.5 -294q0 -110 -29.5 -203t-78.5 -156.5t-112 -108.5t-130 -66t-133 -21q-98 0 -164 34t-90 99l-4 2q-37 -59 -101.5 -93t-132.5 -34q-122 0 -209.5 92t-87.5 256 q0 121 29.5 213.5t80.5 147t112.5 81.5t130.5 27q53 0 104 -21.5t86 -56.5h6l8 64h273l-39 -481q-6 -76 59 -76q69 0 116.5 83t47.5 193q0 153 -73 271t-198 180.5t-280 62.5q-128 0 -242 -49t-195 -132t-128 -197t-47 -240q0 -176 81.5 -314t226 -214t327.5 -76 q143 0 257.5 27t239.5 83l82 -219q-161 -61 -290.5 -89t-280.5 -28q-154 0 -291.5 35t-250.5 105.5t-195 169t-127 232t-45 288.5zM848 631q0 -61 22 -92t60 -31q59 0 108 43l19 231q-40 45 -99 45q-47 0 -78.5 -48.5t-31.5 -147.5z" />
<glyph unicode="A" horiz-adv-x="1445" d="M10 0l477 1333h474l475 -1333h-430l-76 248h-430l-74 -248h-416zM588 532h256l-60 199l-65 230h-6l-68 -236z" />
<glyph unicode="B" horiz-adv-x="1314" d="M102 0v1333h656q208 0 322 -86t114 -250q0 -92 -55 -165.5t-135 -102.5v-6q97 -27 168 -114t71 -193q0 -199 -126 -307.5t-365 -108.5h-650zM506 322h182q139 0 139 116q0 105 -145 105h-176v-221zM506 836h164q54 0 83 23t29 65q0 84 -98 84h-178v-172z" />
<glyph unicode="C" horiz-adv-x="1236" d="M82 678q0 148 39.5 270.5t116 214t197.5 142.5t276 51q330 0 491 -244l-291 -229q-47 69 -94.5 93.5t-105.5 24.5q-105 0 -159 -93t-54 -238q0 -94 22 -169t71 -123t120 -48q135 0 223 137l295 -229q-75 -114 -205 -188.5t-313 -74.5q-207 0 -349.5 88t-211 244 t-68.5 371z" />
<glyph unicode="D" horiz-adv-x="1374" d="M102 0v1333h506q117 0 217 -22t187 -72t148.5 -125.5t96.5 -188.5t35 -255t-35 -255.5t-97 -190.5t-151 -127.5t-192.5 -73.5t-224.5 -23h-490zM506 330h45q157 0 240 80t83 256t-84 255.5t-249 79.5h-35v-671z" />
<glyph unicode="E" horiz-adv-x="1212" d="M102 0v1333h1049v-332h-645v-161h444v-320h-444v-188h665v-332h-1069z" />
<glyph unicode="F" horiz-adv-x="1159" d="M102 0v1333h1037v-332h-633v-202h450v-324h-450l-2 -475h-402z" />
<glyph unicode="G" horiz-adv-x="1359" d="M82 678q0 148 39.5 270.5t116 214t197.5 142.5t276 51q174 0 287 -60t192 -184l-316 -229q-60 118 -178 118q-70 0 -116 -46t-64 -117.5t-18 -167.5q0 -342 204 -342q67 0 113.5 36.5t56.5 104.5h-170v287h576v-228q0 -256 -149 -404.5t-433 -148.5q-307 0 -460.5 187 t-153.5 516z" />
<glyph unicode="H" horiz-adv-x="1411" d="M102 0v1333h402v-491h403v491h402v-1333h-402v512h-403v-512h-402z" />
<glyph unicode="I" horiz-adv-x="649" d="M123 0v1333h403v-1333h-403z" />
<glyph unicode="J" horiz-adv-x="1247" d="M0 420l375 115q39 -122 84.5 -171t115.5 -49q166 0 166 234v784h404v-790q0 -269 -144 -418.5t-419 -149.5q-246 0 -383.5 111.5t-198.5 333.5z" />
<glyph unicode="K" horiz-adv-x="1361" d="M102 0v1333h400v-475h6l377 475h448l-405 -485l444 -848h-446l-262 532l-162 -192v-340h-400z" />
<glyph unicode="L" horiz-adv-x="1128" d="M102 0v1333h402v-1003h614v-330h-1016z" />
<glyph unicode="M" horiz-adv-x="1636" d="M102 0v1333h390l153 -280q22 -42 80.5 -149.5t87.5 -164.5h12q19 39 166 316l150 278h393v-1333h-393v578h-8q-35 -66 -140 -259l-178 -321l-178 324q-21 41 -67.5 126t-69.5 130h-8v-578h-390z" />
<glyph unicode="N" horiz-adv-x="1431" d="M96 0v1333h369l240 -332q180 -263 225 -331h8v663h397v-1333h-350l-274 383l-213 317h-6v-700h-396z" />
<glyph unicode="O" horiz-adv-x="1419" d="M82 662q0 326 159.5 510t469.5 184q308 0 467 -184.5t159 -507.5q0 -325 -160 -507t-472 -182q-306 0 -464.5 184t-158.5 503zM498 670q0 -160 54 -254t159 -94q72 0 120.5 49.5t68.5 124.5t20 172q0 155 -52 247.5t-163 92.5q-104 0 -155.5 -95t-51.5 -243z" />
<glyph unicode="P" horiz-adv-x="1230" d="M102 0v1333h629q107 0 195.5 -27.5t154.5 -81t103 -139.5t37 -196q0 -219 -140 -340t-366 -121h-209v-428h-404zM504 758h135q37 0 62 4t50 16t37.5 38t12.5 67q0 37 -14 62t-39 36.5t-49.5 15.5t-55.5 4h-139v-243z" />
<glyph unicode="Q" horiz-adv-x="1419" d="M82 662q0 326 159.5 510t469.5 184q308 0 467 -184.5t159 -507.5q0 -322 -157 -502l102 -139l-252 -179l-115 156q-98 -25 -210 -25q-306 0 -464.5 184t-158.5 503zM498 670q0 -148 45 -239.5t135 -106.5l4 6l-41 123l156 125l106 -62q17 64 17 152q0 155 -52 247.5 t-163 92.5q-104 0 -155.5 -95t-51.5 -243z" />
<glyph unicode="R" horiz-adv-x="1294" d="M102 0v1333h639q107 0 195.5 -27.5t154.5 -81t103 -139.5t37 -196q0 -278 -232 -387l234 -502h-414l-182 449h-131v-449h-404zM504 778h164q66 0 104.5 29t38.5 88q0 55 -39.5 80.5t-99.5 25.5h-168v-223z" />
<glyph unicode="S" horiz-adv-x="1249" d="M51 178l213 279q89 -74 187.5 -110t177.5 -36q70 0 105.5 24t35.5 58q0 36 -36.5 56.5t-158.5 50.5q-94 25 -161.5 49t-130.5 60t-101.5 79.5t-61 104.5t-22.5 137q0 107 44.5 191t120 134.5t169.5 76.5t199 26q145 0 284 -46.5t234 -131.5l-207 -289q-169 133 -332 133 q-55 0 -78.5 -20.5t-23.5 -51.5q0 -23 22 -40.5t52 -27.5t90 -27q6 -1 9 -2t8 -2.5t9 -2.5h1l1 -1h1h1h1l1 -1h1h1h1l2 -1q181 -49 265 -94q214 -113 214 -341q0 -111 -46 -197.5t-125 -138.5t-177 -78.5t-209 -26.5q-166 0 -324 55t-256 152z" />
<glyph unicode="T" horiz-adv-x="1169" d="M10 1001v332h1149v-332h-373v-1001h-401v1001h-375z" />
<glyph unicode="U" horiz-adv-x="1402" d="M102 571v762h402v-741q0 -130 51.5 -198t144.5 -68q95 0 146 66t51 194v747h403v-762q0 -195 -78 -329.5t-212 -198t-314 -63.5q-272 0 -433 151.5t-161 439.5z" />
<glyph unicode="V" horiz-adv-x="1409" d="M2 1333h436l127 -436l140 -483h8l139 485l127 434h428l-475 -1333h-453z" />
<glyph unicode="W" horiz-adv-x="1908" d="M10 1333h436l78 -426l66 -387h8l76 391l88 422h391l88 -426l76 -387h8l68 395l75 418h437l-334 -1333h-412l-86 346l-115 483h-4l-110 -469l-88 -360h-412z" />
<glyph unicode="X" horiz-adv-x="1306" d="M0 0l434 682l-411 651h436l194 -368l199 368h430l-416 -647l437 -686h-437l-217 406l-217 -406h-432z" />
<glyph unicode="Y" horiz-adv-x="1431" d="M4 1333h432l142 -293q119 -248 141 -297q36 80 145 308l135 282h428l-509 -891v-442h-404v438z" />
<glyph unicode="Z" horiz-adv-x="1226" d="M61 0v293l613 708h-574v332h1055v-299l-618 -702h628v-332h-1104z" />
<glyph unicode="[" horiz-adv-x="808" d="M123 -254v1698h584v-297h-218v-1106h218v-295h-584z" />
<glyph unicode="\" horiz-adv-x="1247" d="M0 1470h352l893 -1622h-350z" />
<glyph unicode="]" horiz-adv-x="808" d="M102 41h217v1106h-217v297h584v-1698h-584v295z" />
<glyph unicode="^" horiz-adv-x="1202" d="M41 670l424 665h274l422 -665h-393l-172 299l-164 -299h-391z" />
<glyph unicode="_" horiz-adv-x="1024" d="M0 -133h1024v-266h-1024v266z" />
<glyph unicode="`" horiz-adv-x="1079" d="M227 1518l338 65l168 -438l-215 -68z" />
<glyph unicode="a" horiz-adv-x="1140" d="M61 303q0 109 53.5 185.5t138 110.5t191.5 34q130 0 226 -33v31q0 47 -38.5 72.5t-109.5 25.5q-135 0 -280 -51l-82 268q191 78 424 78q465 0 465 -389v-635h-379v88l-8 4q-40 -48 -100 -78t-100 -37.5t-71 -7.5q-163 0 -246.5 80.5t-83.5 253.5zM459 324 q0 -35 28.5 -54.5t69.5 -19.5q66 0 113 37v88q-47 28 -111 28q-44 0 -72 -19t-28 -60z" />
<glyph unicode="b" horiz-adv-x="1214" d="M92 0v1354l389 133v-555h8q48 39 118.5 64.5t133.5 25.5q81 0 150.5 -31.5t124 -93.5t86 -163t31.5 -230q0 -254 -111 -389t-287 -135q-65 0 -134.5 25.5t-117.5 76.5l-6 -2v-80h-385zM481 354q54 -59 131 -59q121 0 121 199q0 215 -121 215q-30 0 -66.5 -15.5 t-64.5 -42.5v-297z" />
<glyph unicode="c" horiz-adv-x="1028" d="M82 498q0 243 132 383.5t384 140.5q227 0 375 -150l-213 -245q-47 47 -78.5 62.5t-69.5 15.5q-68 0 -102.5 -49.5t-34.5 -141.5q0 -102 34.5 -158.5t102.5 -56.5q80 0 172 92l213 -246q-86 -87 -195 -127.5t-204 -40.5q-252 0 -384 139.5t-132 381.5z" />
<glyph unicode="d" horiz-adv-x="1218" d="M82 494q0 129 34.5 232t92.5 166.5t131 96.5t154 33q136 0 235 -80h8v414l389 133v-1489h-385v84l-6 2q-52 -52 -123.5 -79t-140.5 -27q-86 0 -155 28.5t-122.5 88.5t-82.5 160.5t-29 236.5zM485 494q0 -199 113 -199q85 0 139 59v297q-61 58 -123 58q-129 0 -129 -215z " />
<glyph unicode="e" horiz-adv-x="1153" d="M82 498q0 240 138 382t384 142q104 0 185.5 -26.5t135.5 -73t89.5 -113t51 -143.5t15.5 -168v-86h-602q5 -71 47 -104.5t136 -33.5q105 0 260 48l106 -252q-201 -93 -410 -93q-142 0 -247 38t-167.5 109t-92 164t-29.5 210zM479 602h217q-5 68 -27 101.5t-83 33.5 q-46 0 -75 -33.5t-32 -101.5z" />
<glyph unicode="f" horiz-adv-x="825" d="M51 735v264h125v148q0 160 102 248t283 88q131 0 244 -25l-14 -317q-62 4 -93 4q-62 0 -96.5 -18t-34.5 -68v-60h205v-264h-205v-735h-391v735h-125z" />
<glyph unicode="g" horiz-adv-x="1218" d="M82 487q0 135 30.5 238.5t85 167t126 95.5t157.5 32q68 0 139.5 -30.5t114.5 -76.5l6 2v86h385v-901q0 -100 -30.5 -188t-95 -166.5t-176.5 -138t-263 -90.5l-115 305q77 25 134 54t87 54.5t47.5 55t22 49.5t4.5 43v26h-8q-52 -49 -123 -77.5t-137 -28.5q-80 0 -149 29.5 t-124 87.5t-86.5 153.5t-31.5 218.5zM485 502q0 -191 121 -191q30 0 66.5 15.5t64.5 42.5v274q-54 59 -131 59q-55 0 -88 -49.5t-33 -150.5z" />
<glyph unicode="h" horiz-adv-x="1212" d="M92 0v1354l387 133v-565h8q56 48 129 74t138 26q366 0 366 -416v-606h-387v530q0 162 -115 162q-98 0 -126 -94q-13 -44 -13 -96v-502h-387z" />
<glyph unicode="i" horiz-adv-x="647" d="M102 1311q0 93 65 158t159 65q91 0 155 -65.5t64 -157.5q0 -91 -64 -155t-155 -64q-94 0 -159 64t-65 155zM131 0v1001h387v-1001h-387z" />
<glyph unicode="j" horiz-adv-x="657" d="M-76 -174q137 24 178 67.5t41 153.5v952h385v-1046q0 -227 -145 -330.5t-436 -103.5zM113 1311q0 93 65 158t158 65q91 0 155 -65.5t64 -157.5q0 -91 -64 -155t-155 -64q-93 0 -158 64t-65 155z" />
<glyph unicode="k" horiz-adv-x="1228" d="M92 0v1354l385 133v-764h4l248 276h451l-324 -333l373 -666h-443l-198 387l-111 -121v-266h-385z" />
<glyph unicode="l" horiz-adv-x="593" d="M102 0v1354l390 133v-1487h-390z" />
<glyph unicode="m" horiz-adv-x="1771" d="M92 0v999h387v-100h8q52 58 126 90.5t139 32.5q97 0 163.5 -41t98.5 -111q152 152 321 152q178 0 261 -109t83 -307v-606h-387v530q0 92 -27 127t-75 35q-58 0 -84 -53q-27 -53 -27 -137v-502h-387v530q0 92 -27 127t-75 35q-66 0 -94 -74q-17 -47 -17 -116v-502h-387z " />
<glyph unicode="n" horiz-adv-x="1212" d="M92 0v999h387v-100h8q48 55 125 89t142 34q366 0 366 -416v-606h-387v530q0 162 -115 162q-98 0 -126 -94q-13 -44 -13 -96v-502h-387z" />
<glyph unicode="o" horiz-adv-x="1236" d="M82 496q0 243 143.5 384.5t392.5 141.5t393 -142.5t144 -381.5q0 -242 -145 -382.5t-396 -140.5q-247 0 -389.5 142t-142.5 379zM477 498q0 -219 141 -219q72 0 106 58.5t34 158.5q0 223 -144 223q-70 0 -103.5 -60.5t-33.5 -160.5z" />
<glyph unicode="p" horiz-adv-x="1218" d="M92 -457v1456h385v-84l6 -2q50 46 125.5 76.5t139.5 30.5q87 0 156 -30t122.5 -92t82 -166.5t28.5 -246.5q0 -129 -34.5 -229.5t-93.5 -159.5t-131 -89t-153 -30q-137 0 -236 80h-8v-381zM481 348q60 -57 123 -57q62 0 95.5 47t33.5 162q-3 107 -30.5 156t-81.5 49 q-85 0 -140 -60v-297z" />
<glyph unicode="q" horiz-adv-x="1218" d="M82 473q0 266 111 406.5t288 140.5q71 0 144 -29.5t110 -77.5l6 2v84h385v-1323l-389 -133v525h-8q-48 -39 -120 -65t-136 -26q-79 0 -148.5 30.5t-124.5 89.5t-86.5 156t-31.5 220zM485 502q0 -116 31 -163.5t90 -47.5q31 0 67 15t64 42v297q-55 60 -131 60 q-115 0 -121 -203z" />
<glyph unicode="r" horiz-adv-x="899" d="M92 0v999h387v-141h8q49 81 125 121.5t164 40.5q60 0 127 -23l-51 -362q-122 16 -172 16q-98 0 -149.5 -41t-51.5 -147v-463h-387z" />
<glyph unicode="s" horiz-adv-x="1050" d="M61 96l121 256q192 -94 318 -94q80 0 80 45q0 27 -18.5 39.5t-80.5 30.5q-114 32 -184 62t-113 69t-59 84t-16 112q0 145 111.5 233.5t318.5 88.5q219 0 424 -102l-117 -265q-154 80 -283 80q-24 0 -38.5 -11.5t-14.5 -25.5q0 -33 78 -53q112 -29 181.5 -57t119 -67.5 t70 -92.5t20.5 -129q0 -155 -122.5 -239.5t-338.5 -84.5q-232 0 -457 121z" />
<glyph unicode="t" horiz-adv-x="899" d="M31 735v264h153v234l385 135v-369h217v-264h-217v-270q0 -90 24 -122t103 -32q52 0 115 8l27 -305q-163 -41 -322 -41q-167 0 -251.5 78t-84.5 260v424h-149z" />
<glyph unicode="u" horiz-adv-x="1200" d="M92 381v618h387v-530q0 -92 29.5 -127t79.5 -35q93 0 121 94q12 40 12 97v501h387v-999h-387v100h-8q-120 -123 -269 -123q-189 0 -270.5 102.5t-81.5 301.5z" />
<glyph unicode="v" horiz-adv-x="1220" d="M12 999h396l116 -364l90 -289h4l93 301l112 352h383l-389 -999h-411z" />
<glyph unicode="w" horiz-adv-x="1697" d="M8 1001h393l66 -360l47 -283h6l66 281l82 362h366l78 -366l57 -285h7q8 44 26.5 149.5t28.5 155.5l65 346h392l-299 -1001h-416l-62 262l-67 289h-6l-66 -283l-67 -268h-416z" />
<glyph unicode="x" horiz-adv-x="1128" d="M8 0l322 520l-293 484h412l110 -254l107 254h415l-293 -476l322 -528h-416l-147 283q-25 -54 -78 -160.5t-61 -122.5h-400z" />
<glyph unicode="y" horiz-adv-x="1185" d="M8 999h391l99 -323l90 -330h8l96 330l99 323h385l-512 -1405h-388l127 351z" />
<glyph unicode="z" horiz-adv-x="1036" d="M51 0v283l459 438h-438v280h889v-280l-480 -438h504v-283h-934z" />
<glyph unicode="{" horiz-adv-x="854" d="M82 481v219q34 3 56.5 14t33 29.5t14.5 38t4 47.5v267q0 78 18 138.5t59 109.5t116.5 75.5t181.5 26.5h187v-281h-90q-61 0 -83 -25.5t-22 -103.5v-164q0 -36 -2 -64t-10 -65t-23 -63.5t-42.5 -51t-65.5 -36.5q45 -18 75.5 -48.5t44 -71t18.5 -77t5 -84.5v-155 q0 -78 22 -103.5t83 -25.5h90v-281h-187q-106 0 -181.5 26.5t-116.5 75.5t-59 109.5t-18 138.5v258q0 114 -108 127z" />
<glyph unicode="|" horiz-adv-x="753" d="M205 -252v1784h344v-1784h-344z" />
<glyph unicode="}" horiz-adv-x="854" d="M102 27h91q61 0 82.5 25.5t21.5 103.5v155q0 48 5 84.5t18.5 77t44 71t75.5 48.5q-38 12 -65.5 36.5t-42.5 51t-23 63.5t-10 65t-2 64v164q0 78 -21.5 103.5t-82.5 25.5h-91v281h187q106 0 181.5 -26.5t116.5 -75.5t59 -109.5t18 -138.5v-267q0 -28 4 -47.5t14.5 -38 t33 -29.5t56.5 -14v-219q-108 -13 -108 -127v-258q0 -78 -18 -138.5t-59 -109.5t-116.5 -75.5t-181.5 -26.5h-187v281z" />
<glyph unicode="~" horiz-adv-x="1351" d="M72 506q33 90 79 156t98 103t105 54t109 17q68 0 162 -27t178 -54.5t129 -27.5q39 0 72 26t88 91l186 -107q-121 -331 -397 -331q-62 0 -216 63t-208 63q-85 0 -183 -133z" />
<glyph unicode="&#xa1;" horiz-adv-x="706" d="M158 809q0 86 57.5 144.5t142.5 58.5q83 0 141 -59.5t58 -145.5t-54 -144.5t-141 -58.5q-34 0 -67.5 11t-65.5 33.5t-51.5 64t-19.5 96.5zM168 35l47 479h293l49 -481v-379h-389v381z" />
<glyph unicode="&#xa2;" horiz-adv-x="1351" d="M217 498q0 219 108 355.5t316 162.5v205h186v-205q163 -26 281 -144l-213 -245q-47 47 -78 62.5t-69 15.5q-68 0 -103 -49.5t-35 -141.5q0 -102 35 -158.5t103 -56.5q80 0 172 92l213 -246q-127 -127 -306 -157v-213h-186v209q-208 24 -316 159t-108 355z" />
<glyph unicode="&#xa3;" horiz-adv-x="1351" d="M147 0v258q68 61 102 110.5t48 114.5h-150v265h105q-37 90 -37 176q0 175 148.5 303.5t365.5 128.5q196 0 314.5 -56.5t218.5 -187.5l-271 -223q-51 77 -101 106t-120 29t-115 -43.5t-45 -99.5q0 -57 25 -131h311v-265h-270q-10 -97 -58 -172h594v-313h-1065z" />
<glyph unicode="&#xa4;" horiz-adv-x="1351" d="M141 285l135 133q-49 88 -49 207q0 110 49 206l-135 138l187 190l135 -135q96 49 211 49q120 0 215 -53l131 139l188 -190l-135 -135q49 -96 49 -209q0 -102 -51 -209l137 -131l-188 -191l-135 135q-92 -51 -211 -51t-211 51l-135 -135zM494 625q0 -74 52.5 -126.5 t125.5 -52.5q75 0 128.5 52t53.5 127t-52.5 128.5t-129.5 53.5q-73 0 -125.5 -53.5t-52.5 -128.5z" />
<glyph unicode="&#xa5;" horiz-adv-x="1351" d="M6 1333h432l242 -590l240 590h428l-242 -456h145v-189h-243l-45 -86h288v-186h-372v-416h-404v416h-364v186h278l-45 86h-233v189h135z" />
<glyph unicode="&#xa6;" horiz-adv-x="667" d="M164 -455v916h340v-916h-340zM164 616v916h340v-916h-340z" />
<glyph unicode="&#xa7;" horiz-adv-x="1171" d="M121 -150l110 228q65 -42 169 -74.5t184 -32.5q48 0 80 16.5t32 43.5q0 31 -37 51.5t-129 50.5q-169 58 -273.5 145t-104.5 201q0 101 75 182.5t219 112.5l111 -213q-43 -29 -43 -63q0 -61 119 -103q82 -27 137 -48.5t118 -55t100 -67.5t62 -83t25 -106 q0 -147 -135 -231.5t-358 -84.5q-111 0 -235 35t-226 96zM154 1141q0 142 119 229.5t331 87.5q195 0 418 -117l-98 -223q-107 52 -194.5 74t-139.5 22q-94 0 -94 -53q0 -33 30 -54t111 -48h-2q79 -27 136 -50.5t112.5 -55.5t89.5 -65.5t55 -78.5t21 -98q0 -101 -80.5 -187.5 t-218.5 -120.5l-105 226q57 26 57 67t-40.5 65.5t-129.5 53.5q-75 25 -123.5 44t-102 48t-83.5 60t-49.5 75.5t-19.5 98.5z" />
<glyph unicode="&#xa8;" horiz-adv-x="1064" d="M117 1282q0 73 53.5 125.5t126.5 52.5q71 0 123.5 -52.5t52.5 -125.5q0 -69 -53 -121.5t-123 -52.5q-72 0 -126 52.5t-54 121.5zM602 1282q0 73 53 125.5t127 52.5q71 0 122.5 -52.5t51.5 -125.5q0 -69 -52 -121.5t-122 -52.5q-73 0 -126.5 52.5t-53.5 121.5z" />
<glyph unicode="&#xa9;" horiz-adv-x="1748" d="M143 700q0 155 56.5 292t153.5 235t232.5 154.5t288.5 56.5t288.5 -56.5t233 -154.5t154 -235t56.5 -292t-56.5 -292t-154 -234.5t-233 -154t-288.5 -56.5q-204 0 -371.5 96t-263.5 265t-96 376zM346 700q0 -151 68.5 -277t190 -199.5t269.5 -73.5t269.5 73.5 t190.5 199.5t69 277t-69 276.5t-190.5 199t-269.5 73.5t-269.5 -73.5t-190 -199t-68.5 -276.5zM496 692q0 194 103.5 313t297.5 119q210 0 313 -155l-184 -146q-54 76 -129 76q-67 0 -102 -60t-35 -153q0 -94 35 -155.5t102 -61.5q81 0 141 88l189 -145 q-49 -73 -131.5 -120.5t-198.5 -47.5q-196 0 -298.5 120t-102.5 328z" />
<glyph unicode="&#xaa;" horiz-adv-x="794" d="M41 631q0 213 258 213q52 0 152 -17v29q0 27 -18.5 47.5t-63.5 20.5q-91 0 -201 -37l-64 186q145 62 308 62q329 0 329 -263v-421h-290v49q-30 -33 -81.5 -50.5t-97.5 -17.5q-231 0 -231 199zM319 651q0 -41 60 -41q25 0 72 21v49q-36 18 -72 18q-60 0 -60 -47z" />
<glyph unicode="&#xab;" horiz-adv-x="1310" d="M80 502l299 422h352l-297 -420l299 -424h-352zM594 502l299 422h352l-297 -420l299 -424h-352z" />
<glyph unicode="&#xac;" horiz-adv-x="1351" d="M180 483v308h989v-627h-344v319h-645z" />
<glyph unicode="&#xad;" horiz-adv-x="878" d="M123 440v320h633v-320h-633z" />
<glyph unicode="&#xae;" horiz-adv-x="1083" d="M82 952q0 199 132 332t329 133q195 0 326.5 -133t131.5 -332q0 -198 -131.5 -330.5t-326.5 -132.5q-197 0 -329 132.5t-132 330.5zM209 952q0 -144 96.5 -245t237.5 -101q140 0 234.5 101t94.5 245q0 146 -94.5 246t-234.5 100q-142 0 -238 -100.5t-96 -245.5zM344 715 v491h236q83 0 132.5 -42t49.5 -124q0 -50 -23.5 -86.5t-64.5 -54.5l88 -184h-152l-67 166h-49v-166h-150zM492 1001h61q23 0 38 11t15 32q0 39 -53 39h-61v-82z" />
<glyph unicode="&#xaf;" horiz-adv-x="925" d="M162 1139v268h622v-268h-622z" />
<glyph unicode="&#xb0;" horiz-adv-x="884" d="M82 1051q0 153 103.5 252.5t256.5 99.5q154 0 257.5 -99.5t103.5 -252.5q0 -157 -103.5 -258t-257.5 -101t-257 101t-103 258zM297 1051q0 -67 42 -111.5t103 -44.5q62 0 104 44.5t42 111.5q0 64 -42 105.5t-104 41.5q-61 0 -103 -41.5t-42 -105.5z" />
<glyph unicode="&#xb1;" horiz-adv-x="1351" d="M168 88v295h979v-295h-979zM170 780v297h326v307h340v-307h329v-297h-329v-307h-340v307h-326z" />
<glyph unicode="&#xb2;" horiz-adv-x="931" d="M51 635q3 86 29.5 162t63 129t93 103.5t102 81t107.5 65.5q33 20 49.5 34t19.5 21.5t3 19.5q0 16 -17.5 27.5t-49.5 11.5q-98 0 -240 -106l-141 184q194 164 422 164q64 0 122 -14.5t106.5 -43.5t77.5 -79t29 -115q0 -157 -249 -291q-121 -66 -158 -112h407v-242h-776z " />
<glyph unicode="&#xb3;" horiz-adv-x="931" d="M37 774l160 180q102 -90 229 -90q43 0 73.5 18t30.5 44q0 59 -75 59h-133v207h131q33 0 51 15t18 38q0 16 -20 29.5t-62 13.5q-119 0 -233 -84l-137 189q81 66 189 102.5t210 36.5q165 0 256.5 -74t91.5 -174q0 -56 -33.5 -106.5t-95.5 -75.5q69 -26 104 -80.5t35 -108.5 q0 -74 -32.5 -131.5t-89.5 -92t-128 -51.5t-153 -17q-224 0 -387 153z" />
<glyph unicode="&#xb4;" horiz-adv-x="1069" d="M328 1145l168 438l338 -65l-291 -441z" />
<glyph unicode="&#xb6;" horiz-adv-x="1193" d="M61 899q0 180 121.5 306t298.5 126h170v-854h-170q-180 0 -300 122t-120 300zM557 -229q129 26 177 68.5t48 150.5v1341h310v-1388q0 -226 -119.5 -331t-390.5 -108z" />
<glyph unicode="&#xb7;" horiz-adv-x="645" d="M123 621q0 55 20 96.5t51.5 64t65.5 33t68 10.5q87 0 140.5 -58t53.5 -144t-57.5 -145.5t-140.5 -59.5q-85 0 -143 58.5t-58 144.5z" />
<glyph unicode="&#xb8;" horiz-adv-x="1234" d="M352 -446l47 141q89 -27 152 -27q98 0 98 62q0 22 -19.5 37.5t-49.5 15.5q-19 0 -37 -6l-72 57l86 252l139 -18l-51 -154q65 -5 112 -24.5t71.5 -48t36 -56t14.5 -57.5q3 -37 -11 -73t-46 -69.5t-93 -54t-143 -20.5q-125 0 -234 43z" />
<glyph unicode="&#xb9;" horiz-adv-x="931" d="M221 1210v203q77 6 110.5 32.5t45.5 72.5h264v-883h-301v575h-119z" />
<glyph unicode="&#xba;" horiz-adv-x="854" d="M49 782q0 161 100.5 256t276.5 95q177 0 278 -94.5t101 -254.5q0 -162 -101.5 -256t-279.5 -94q-175 0 -275 94.5t-100 253.5zM350 784q0 -122 76 -122q38 0 57 33t19 87q0 123 -78 123q-74 0 -74 -121z" />
<glyph unicode="&#xbb;" horiz-adv-x="1310" d="M70 80l299 424l-297 420h352l299 -422l-301 -422h-352zM584 80l299 424l-297 420h352l299 -422l-301 -422h-352z" />
<glyph unicode="&#xbc;" horiz-adv-x="2150" d="M219 1026v203q77 6 110.5 32t45.5 72h264v-882h-301v575h-119zM399 -61l914 1456h282l-913 -1456h-283zM1122 166v209l465 510h285v-502h108v-217h-108v-166h-289v166h-461zM1434 383h149v160z" />
<glyph unicode="&#xbd;" horiz-adv-x="2150" d="M154 1026v203q77 6 110 32t45 72h264v-882h-301v575h-118zM344 -61l913 1456h283l-913 -1456h-283zM1202 0q3 86 29.5 162t63 129t93 103.5t102 81t107.5 65.5q33 20 49.5 34t19.5 21.5t3 19.5q0 16 -17.5 27.5t-49.5 11.5q-98 0 -240 -106l-141 184q194 164 421 164 q64 0 122 -14.5t107 -43.5t78 -79t29 -115q0 -157 -249 -291q-121 -66 -158 -112h407v-242h-776z" />
<glyph unicode="&#xbe;" horiz-adv-x="2150" d="M33 590l160 180q102 -90 229 -90q43 0 73.5 17.5t30.5 43.5q0 60 -75 60h-134v207h132q33 0 51 15t18 38q0 16 -20 29.5t-62 13.5q-119 0 -233 -84l-137 188q82 66 189.5 103t209.5 37q165 0 256.5 -74t91.5 -174q0 -56 -33.5 -106.5t-95.5 -75.5q69 -26 104 -80.5 t35 -108.5q0 -74 -32.5 -131.5t-89.5 -92t-128 -52t-153 -17.5q-223 0 -387 154zM526 -61l914 1456h282l-913 -1456h-283zM1231 166v209l465 510h284v-502h109v-217h-109v-166h-288v166h-461zM1542 383h150v160z" />
<glyph unicode="&#xbf;" horiz-adv-x="1097" d="M94 23q0 74 25.5 133t63.5 100t77.5 79t73.5 91.5t45 116.5h364q-1 -68 -16 -124.5t-38 -95t-50 -71t-54 -57.5t-49.5 -48.5t-36.5 -51t-14 -58.5q0 -35 23 -60.5t61 -25.5q56 0 85.5 55.5t29.5 138.5h377q0 -99 -27.5 -183.5t-75 -144.5t-111.5 -102.5t-138 -63 t-154 -20.5q-208 0 -334.5 110t-126.5 282zM360 807q0 86 58 145.5t141 59.5q85 0 143 -58.5t58 -144.5q0 -55 -20 -96.5t-51.5 -64t-65.5 -33.5t-68 -11q-87 0 -141 58.5t-54 144.5z" />
<glyph unicode="&#xc0;" horiz-adv-x="1439" d="M6 0l477 1333h473l476 -1333h-431l-75 248h-430l-74 -248h-416zM276 1604l256 231l371 -289l-149 -168zM584 532h256l-60 199l-65 230h-6l-68 -236z" />
<glyph unicode="&#xc1;" horiz-adv-x="1445" d="M10 0l477 1333h474l475 -1333h-430l-76 248h-430l-74 -248h-416zM547 1546l371 289l256 -231l-478 -226zM588 532h256l-60 199l-65 230h-6l-68 -236z" />
<glyph unicode="&#xc2;" horiz-adv-x="1445" d="M10 0l477 1333h474l475 -1333h-430l-76 248h-430l-74 -248h-416zM264 1501l322 336h276l322 -336l-154 -137l-311 225l-311 -223zM588 532h256l-60 199l-65 230h-6l-68 -236z" />
<glyph unicode="&#xc3;" horiz-adv-x="1445" d="M10 0l477 1333h474l475 -1333h-430l-76 248h-430l-74 -248h-416zM248 1499q51 153 131.5 223t171.5 70q52 0 122 -27t132.5 -54.5t97.5 -27.5q31 0 56 20.5t67 74.5l156 -72q-95 -289 -308 -289q-48 0 -167 55.5t-160 55.5q-34 0 -64.5 -22t-72.5 -83zM588 532h256 l-60 199l-65 230h-6l-68 -236z" />
<glyph unicode="&#xc4;" horiz-adv-x="1445" d="M10 0l477 1333h474l475 -1333h-430l-76 248h-430l-74 -248h-416zM295 1593q0 73 54 126t126 53q71 0 123.5 -53t52.5 -126q0 -69 -53 -121.5t-123 -52.5q-72 0 -126 52.5t-54 121.5zM588 532h256l-60 199l-65 230h-6l-68 -236zM780 1593q0 73 53.5 126t127.5 53 q71 0 122.5 -53t51.5 -126q0 -69 -52 -121.5t-122 -52.5q-73 0 -127 52.5t-54 121.5z" />
<glyph unicode="&#xc5;" horiz-adv-x="1445" d="M10 0l477 1333h474l475 -1333h-430l-76 248h-430l-74 -248h-416zM442 1620q0 111 80.5 187.5t194.5 76.5q113 0 191.5 -76t78.5 -188t-78.5 -187t-191.5 -75q-115 0 -195 73.5t-80 188.5zM588 532h256l-60 199l-65 230h-6l-68 -236zM627 1622q0 -45 23 -70.5t67 -25.5 q37 0 63.5 26.5t26.5 69.5q0 40 -24 68t-66 28t-66 -28.5t-24 -67.5z" />
<glyph unicode="&#xc6;" horiz-adv-x="2084" d="M-4 0l764 1333h1243v-332h-563v-155h362v-332h-362v-182h583v-332h-1028v248h-397l-141 -248h-461zM745 532h250v469h-2z" />
<glyph unicode="&#xc7;" horiz-adv-x="1236" d="M82 678q0 148 39.5 270.5t116 214t197.5 142.5t276 51q330 0 491 -244l-291 -229q-47 69 -94.5 93.5t-105.5 24.5q-105 0 -159 -93t-54 -238q0 -94 22 -169t71 -123t120 -48q135 0 223 137l295 -229q-73 -109 -195.5 -182.5t-294.5 -80.5l-20 -61q65 -5 112 -24.5 t71.5 -48t35.5 -56t14 -57.5q3 -37 -11 -73t-46 -69.5t-93 -54t-143 -20.5q-124 0 -233 43l47 141q89 -27 152 -27q98 0 98 62q0 22 -20 37.5t-50 15.5q-19 0 -37 -6l-71 57l51 150q-253 33 -383.5 216.5t-130.5 477.5z" />
<glyph unicode="&#xc8;" horiz-adv-x="1212" d="M102 0v1333h1049v-332h-645v-161h444v-320h-444v-188h665v-332h-1069zM295 1604l256 231l371 -289l-150 -168z" />
<glyph unicode="&#xc9;" horiz-adv-x="1212" d="M102 0v1333h1049v-332h-645v-161h444v-320h-444v-188h665v-332h-1069zM422 1546l371 289l256 -231l-478 -226z" />
<glyph unicode="&#xca;" horiz-adv-x="1212" d="M102 0v1333h1049v-332h-645v-161h444v-320h-444v-188h665v-332h-1069zM172 1503l322 336h276l322 -336l-154 -137l-311 225l-312 -223z" />
<glyph unicode="&#xcb;" horiz-adv-x="1212" d="M102 0v1333h1049v-332h-645v-161h444v-320h-444v-188h665v-332h-1069zM229 1597q0 73 54 126t127 53q71 0 123.5 -53t52.5 -126q0 -69 -53 -121.5t-123 -52.5q-72 0 -126.5 52.5t-54.5 121.5zM715 1597q0 73 53 126t127 53q71 0 122.5 -53t51.5 -126q0 -69 -52 -121.5 t-122 -52.5q-73 0 -126.5 52.5t-53.5 121.5z" />
<glyph unicode="&#xcc;" horiz-adv-x="649" d="M-119 1604l256 231l371 -289l-150 -168zM123 0v1333h403v-1333h-403z" />
<glyph unicode="&#xcd;" horiz-adv-x="649" d="M123 0v1333h403v-1333h-403zM168 1546l371 289l256 -231l-478 -226z" />
<glyph unicode="&#xce;" horiz-adv-x="649" d="M-129 1503l322 336h276l322 -336l-154 -137l-311 225l-312 -223zM123 0v1333h403v-1333h-403z" />
<glyph unicode="&#xcf;" horiz-adv-x="649" d="M-96 1587q0 73 53.5 125.5t126.5 52.5q71 0 123.5 -52.5t52.5 -125.5q0 -69 -53 -121.5t-123 -52.5q-72 0 -126 52.5t-54 121.5zM123 0v1333h403v-1333h-403zM389 1587q0 73 53 125.5t127 52.5q71 0 122.5 -52.5t51.5 -125.5q0 -69 -52 -121.5t-122 -52.5 q-73 0 -126.5 52.5t-53.5 121.5z" />
<glyph unicode="&#xd0;" horiz-adv-x="1374" d="M6 551v201h96v581h506q117 0 217 -22t187 -72t148.5 -125.5t96.5 -188.5t35 -255t-35 -255.5t-97 -190.5t-151 -127.5t-192.5 -73.5t-224.5 -23h-490v551h-96zM506 330h45q157 0 240 80t83 256t-84 255.5t-249 79.5h-35v-249h188v-201h-188v-221z" />
<glyph unicode="&#xd1;" horiz-adv-x="1431" d="M96 0v1333h369l240 -332q180 -263 225 -331h8v663h397v-1333h-350l-274 383l-213 317h-6v-700h-396zM248 1487q51 153 131.5 223t171.5 70q52 0 122 -27t132.5 -54.5t97.5 -27.5q31 0 56 20t67 74l156 -71q-95 -289 -308 -289q-48 0 -167 55.5t-160 55.5q-34 0 -64.5 -22 t-72.5 -83z" />
<glyph unicode="&#xd2;" horiz-adv-x="1419" d="M82 662q0 326 159.5 510t469.5 184q308 0 467 -184.5t159 -507.5q0 -325 -160 -507t-472 -182q-306 0 -464.5 184t-158.5 503zM223 1604l256 231l371 -289l-150 -168zM498 670q0 -160 54 -254t159 -94q72 0 120.5 49.5t68.5 124.5t20 172q0 155 -52 247.5t-163 92.5 q-104 0 -155.5 -95t-51.5 -243z" />
<glyph unicode="&#xd3;" horiz-adv-x="1419" d="M82 662q0 326 159.5 510t469.5 184q308 0 467 -184.5t159 -507.5q0 -325 -160 -507t-472 -182q-306 0 -464.5 184t-158.5 503zM498 670q0 -160 54 -254t159 -94q72 0 120.5 49.5t68.5 124.5t20 172q0 155 -52 247.5t-163 92.5q-104 0 -155.5 -95t-51.5 -243zM545 1546 l370 289l256 -231l-477 -226z" />
<glyph unicode="&#xd4;" horiz-adv-x="1419" d="M82 662q0 326 159.5 510t469.5 184q308 0 467 -184.5t159 -507.5q0 -325 -160 -507t-472 -182q-306 0 -464.5 184t-158.5 503zM248 1503l321 336h277l321 -336l-153 -137l-312 225l-311 -223zM498 670q0 -160 54 -254t159 -94q72 0 120.5 49.5t68.5 124.5t20 172 q0 155 -52 247.5t-163 92.5q-104 0 -155.5 -95t-51.5 -243z" />
<glyph unicode="&#xd5;" horiz-adv-x="1419" d="M82 662q0 326 159.5 510t469.5 184q308 0 467 -184.5t159 -507.5q0 -325 -160 -507t-472 -182q-306 0 -464.5 184t-158.5 503zM254 1493q51 153 131.5 223t171.5 70q52 0 122 -27t132.5 -54.5t97.5 -27.5q31 0 56 20.5t67 74.5l156 -72q-95 -289 -307 -289 q-48 0 -167.5 55.5t-160.5 55.5q-34 0 -64.5 -22t-72.5 -83zM498 670q0 -160 54 -254t159 -94q72 0 120.5 49.5t68.5 124.5t20 172q0 155 -52 247.5t-163 92.5q-104 0 -155.5 -95t-51.5 -243z" />
<glyph unicode="&#xd6;" horiz-adv-x="1419" d="M82 662q0 326 159.5 510t469.5 184q308 0 467 -184.5t159 -507.5q0 -325 -160 -507t-472 -182q-306 0 -464.5 184t-158.5 503zM285 1583q0 73 53.5 125.5t126.5 52.5q71 0 123.5 -52.5t52.5 -125.5q0 -69 -53 -121.5t-123 -52.5q-72 0 -126 52.5t-54 121.5zM498 670 q0 -160 54 -254t159 -94q72 0 120.5 49.5t68.5 124.5t20 172q0 155 -52 247.5t-163 92.5q-104 0 -155.5 -95t-51.5 -243zM770 1583q0 73 53 125.5t127 52.5q71 0 122.5 -52.5t51.5 -125.5q0 -69 -52 -121.5t-122 -52.5q-73 0 -126.5 52.5t-53.5 121.5z" />
<glyph unicode="&#xd7;" horiz-adv-x="1351" d="M172 362l274 273l-274 272l229 230l271 -275l270 273l229 -228l-274 -272l274 -270l-227 -228l-272 273l-273 -275z" />
<glyph unicode="&#xd8;" horiz-adv-x="1419" d="M82 662q0 326 159.5 510t469.5 184q238 0 395 -119l106 131l97 -80l-115 -137q143 -180 143 -487q0 -325 -160 -507t-472 -182q-237 0 -388 111l-100 -121l-96 80l106 129q-145 176 -145 488zM498 670q0 -89 14 -152l342 416q-52 74 -149 74q-104 0 -155.5 -95 t-51.5 -243zM567 391q54 -69 144 -69q72 0 120.5 49.5t68.5 124.5t20 172q0 68 -13 135z" />
<glyph unicode="&#xd9;" horiz-adv-x="1402" d="M102 571v762h402v-741q0 -130 51.5 -198t144.5 -68q95 0 146 66t51 194v747h403v-762q0 -195 -78 -329.5t-212 -198t-314 -63.5q-272 0 -433 151.5t-161 439.5zM311 1604l256 231l371 -289l-150 -168z" />
<glyph unicode="&#xda;" horiz-adv-x="1402" d="M102 571v762h402v-741q0 -130 51.5 -198t144.5 -68q95 0 146 66t51 194v747h403v-762q0 -195 -78 -329.5t-212 -198t-314 -63.5q-272 0 -433 151.5t-161 439.5zM522 1546l371 289l256 -231l-477 -226z" />
<glyph unicode="&#xdb;" horiz-adv-x="1402" d="M102 571v762h402v-741q0 -130 51.5 -198t144.5 -68q95 0 146 66t51 194v747h403v-762q0 -195 -78 -329.5t-212 -198t-314 -63.5q-272 0 -433 151.5t-161 439.5zM246 1503l321 336h277l321 -336l-153 -137l-312 225l-311 -223z" />
<glyph unicode="&#xdc;" horiz-adv-x="1402" d="M102 571v762h402v-741q0 -130 51.5 -198t144.5 -68q95 0 146 66t51 194v747h403v-762q0 -195 -78 -329.5t-212 -198t-314 -63.5q-272 0 -433 151.5t-161 439.5zM283 1591q0 73 53.5 125.5t126.5 52.5q71 0 123.5 -52.5t52.5 -125.5q0 -69 -53 -121.5t-123 -52.5 q-72 0 -126 52.5t-54 121.5zM768 1591q0 73 53 125.5t127 52.5q71 0 122.5 -52.5t51.5 -125.5q0 -69 -52 -121.5t-122 -52.5q-73 0 -126.5 52.5t-53.5 121.5z" />
<glyph unicode="&#xdd;" horiz-adv-x="1431" d="M4 1333h432l142 -293q119 -248 141 -297q36 80 145 308l135 282h428l-509 -891v-442h-404v438zM500 1546l370 289l256 -231l-477 -226z" />
<glyph unicode="&#xde;" horiz-adv-x="1230" d="M102 0v1333h402v-211h227q107 0 195.5 -27.5t154.5 -81t103 -139.5t37 -196q0 -219 -140 -340t-366 -121h-209v-217h-404zM504 547h135q37 0 62 4t50 16t37.5 38t12.5 67q0 119 -158 119h-139v-244z" />
<glyph unicode="&#xdf;" horiz-adv-x="1193" d="M92 -129v1147q0 203 133.5 324.5t337.5 121.5q101 0 187 -34.5t141.5 -90t86 -123.5t30.5 -137q0 -80 -32.5 -152.5t-84.5 -109.5q108 -40 169.5 -142.5t61.5 -228.5q0 -203 -119 -336t-311 -133q-103 0 -178 43l49 232q44 -4 77.5 8.5t53 34t31.5 53.5t16 61.5t4 63.5 q0 37 -9 71.5t-28.5 68t-58 55.5t-90.5 26v213q100 8 100 144q0 47 -25 79.5t-67 32.5q-39 0 -66.5 -37t-27.5 -104v-1014z" />
<glyph unicode="&#xe0;" horiz-adv-x="1140" d="M61 303q0 109 53.5 185.5t138 110.5t191.5 34q130 0 226 -33v31q0 47 -38.5 72.5t-109.5 25.5q-135 0 -280 -51l-82 268q191 78 424 78q465 0 465 -389v-635h-379v88l-8 4q-40 -48 -100 -78t-100 -37.5t-71 -7.5q-163 0 -246.5 80.5t-83.5 253.5zM264 1518l338 65 l168 -438l-215 -68zM459 324q0 -35 28.5 -54.5t69.5 -19.5q66 0 113 37v88q-47 28 -111 28q-44 0 -72 -19t-28 -60z" />
<glyph unicode="&#xe1;" horiz-adv-x="1140" d="M61 303q0 109 53.5 185.5t138 110.5t191.5 34q130 0 226 -33v31q0 47 -38.5 72.5t-109.5 25.5q-135 0 -280 -51l-82 268q191 78 424 78q465 0 465 -389v-635h-379v88l-8 4q-40 -48 -100 -78t-100 -37.5t-71 -7.5q-163 0 -246.5 80.5t-83.5 253.5zM428 1145l168 438 l338 -65l-291 -441zM459 324q0 -35 28.5 -54.5t69.5 -19.5q66 0 113 37v88q-47 28 -111 28q-44 0 -72 -19t-28 -60z" />
<glyph unicode="&#xe2;" horiz-adv-x="1140" d="M61 303q0 109 53.5 185.5t138 110.5t191.5 34q130 0 226 -33v31q0 47 -38.5 72.5t-109.5 25.5q-135 0 -280 -51l-82 268q191 78 424 78q465 0 465 -389v-635h-379v88l-8 4q-40 -48 -100 -78t-100 -37.5t-71 -7.5q-163 0 -246.5 80.5t-83.5 253.5zM123 1180l321 336h277 l321 -336l-153 -138l-311 226l-312 -224zM459 324q0 -35 28.5 -54.5t69.5 -19.5q66 0 113 37v88q-47 28 -111 28q-44 0 -72 -19t-28 -60z" />
<glyph unicode="&#xe3;" horiz-adv-x="1140" d="M61 303q0 109 53.5 185.5t138 110.5t191.5 34q130 0 226 -33v31q0 47 -38.5 72.5t-109.5 25.5q-135 0 -280 -51l-82 268q191 78 424 78q465 0 465 -389v-635h-379v88l-8 4q-40 -48 -100 -78t-100 -37.5t-71 -7.5q-163 0 -246.5 80.5t-83.5 253.5zM121 1196 q51 153 131.5 223t171.5 70q52 0 122 -27.5t132.5 -54.5t97.5 -27q31 0 56 20.5t67 74.5l156 -72q-95 -289 -307 -289q-48 0 -167.5 55.5t-160.5 55.5q-34 0 -64.5 -22t-72.5 -83zM459 324q0 -35 28.5 -54.5t69.5 -19.5q66 0 113 37v88q-47 28 -111 28q-44 0 -72 -19 t-28 -60z" />
<glyph unicode="&#xe4;" horiz-adv-x="1140" d="M61 303q0 109 53.5 185.5t138 110.5t191.5 34q130 0 226 -33v31q0 47 -38.5 72.5t-109.5 25.5q-135 0 -280 -51l-82 268q191 78 424 78q465 0 465 -389v-635h-379v88l-8 4q-40 -48 -100 -78t-100 -37.5t-71 -7.5q-163 0 -246.5 80.5t-83.5 253.5zM154 1282 q0 73 53.5 125.5t126.5 52.5q71 0 123.5 -52.5t52.5 -125.5q0 -69 -53 -121.5t-123 -52.5q-72 0 -126 52.5t-54 121.5zM459 324q0 -35 28.5 -54.5t69.5 -19.5q66 0 113 37v88q-47 28 -111 28q-44 0 -72 -19t-28 -60zM639 1282q0 73 53 125.5t127 52.5q71 0 122.5 -52.5 t51.5 -125.5q0 -69 -52 -121.5t-122 -52.5q-73 0 -126.5 52.5t-53.5 121.5z" />
<glyph unicode="&#xe5;" horiz-adv-x="1140" d="M61 303q0 109 53.5 185.5t138 110.5t191.5 34q130 0 226 -33v31q0 47 -38.5 72.5t-109.5 25.5q-135 0 -280 -51l-82 268q191 78 424 78q465 0 465 -389v-635h-379v88l-8 4q-40 -48 -100 -78t-100 -37.5t-71 -7.5q-163 0 -246.5 80.5t-83.5 253.5zM340 1341 q0 112 80.5 188.5t193.5 76.5t192 -76.5t79 -188.5t-79 -187t-192 -75q-115 0 -194.5 73.5t-79.5 188.5zM459 324q0 -35 28.5 -54.5t69.5 -19.5q66 0 113 37v88q-47 28 -111 28q-44 0 -72 -19t-28 -60zM524 1343q0 -45 23 -70.5t67 -25.5q37 0 64 26.5t27 69.5 q0 40 -24.5 68.5t-66.5 28.5t-66 -29t-24 -68z" />
<glyph unicode="&#xe6;" horiz-adv-x="1740" d="M61 303q0 82 34 147t90 104t122 59t137 20q130 0 226 -33v31q0 47 -38.5 72.5t-109.5 25.5q-135 0 -280 -51l-82 268q90 37 213 57.5t231 20.5q189 0 301 -70q123 68 287 68q104 0 185.5 -26.5t135.5 -73t89.5 -113t51 -143.5t15.5 -168v-86h-602q5 -71 46.5 -104.5 t135.5 -33.5q105 0 260 48l107 -252q-202 -93 -410 -93q-279 0 -379 119q-153 -127 -372 -127q-187 0 -290.5 85t-103.5 249zM459 324q0 -35 28 -52.5t70 -17.5q32 0 75.5 9.5t65.5 23.5q-7 20 -20 88q-47 28 -119 28q-44 0 -72 -19t-28 -60zM1067 602h217q-5 67 -27.5 101 t-82.5 34q-46 0 -75 -34t-32 -101z" />
<glyph unicode="&#xe7;" horiz-adv-x="1028" d="M82 498q0 243 132 383.5t384 140.5q227 0 375 -150l-213 -245q-47 47 -78.5 62.5t-69.5 15.5q-68 0 -102.5 -49.5t-34.5 -141.5q0 -102 34.5 -158.5t102.5 -56.5q80 0 172 92l213 -246q-86 -87 -195 -127.5t-204 -40.5h-10l-21 -63q65 -5 112 -24.5t71.5 -48t36 -56 t14.5 -57.5q3 -37 -11 -73t-46 -69.5t-93 -54t-143 -20.5q-125 0 -234 43l48 141q89 -27 151 -27q98 0 98 62q0 22 -19.5 37.5t-49.5 15.5q-19 0 -37 -6l-72 57l53 160q-180 38 -272 169.5t-92 334.5z" />
<glyph unicode="&#xe8;" horiz-adv-x="1153" d="M82 498q0 240 138 382t384 142q104 0 185.5 -26.5t135.5 -73t89.5 -113t51 -143.5t15.5 -168v-86h-602q5 -71 47 -104.5t136 -33.5q105 0 260 48l106 -252q-201 -93 -410 -93q-142 0 -247 38t-167.5 109t-92 164t-29.5 210zM266 1518l338 65l168 -438l-215 -68zM479 602 h217q-5 68 -27 101.5t-83 33.5q-46 0 -75 -33.5t-32 -101.5z" />
<glyph unicode="&#xe9;" horiz-adv-x="1153" d="M82 498q0 240 138 382t384 142q104 0 185.5 -26.5t135.5 -73t89.5 -113t51 -143.5t15.5 -168v-86h-602q5 -71 47 -104.5t136 -33.5q105 0 260 48l106 -252q-201 -93 -410 -93q-142 0 -247 38t-167.5 109t-92 164t-29.5 210zM451 1145l167 438l338 -65l-290 -441zM479 602 h217q-5 68 -27 101.5t-83 33.5q-46 0 -75 -33.5t-32 -101.5z" />
<glyph unicode="&#xea;" horiz-adv-x="1153" d="M82 498q0 240 138 382t384 142q104 0 185.5 -26.5t135.5 -73t89.5 -113t51 -143.5t15.5 -168v-86h-602q5 -71 47 -104.5t136 -33.5q105 0 260 48l106 -252q-201 -93 -410 -93q-142 0 -247 38t-167.5 109t-92 164t-29.5 210zM137 1180l322 336h276l322 -336l-154 -138 l-311 226l-311 -224zM479 602h217q-5 68 -27 101.5t-83 33.5q-46 0 -75 -33.5t-32 -101.5z" />
<glyph unicode="&#xeb;" horiz-adv-x="1153" d="M82 498q0 240 138 382t384 142q104 0 185.5 -26.5t135.5 -73t89.5 -113t51 -143.5t15.5 -168v-86h-602q5 -71 47 -104.5t136 -33.5q105 0 260 48l106 -252q-201 -93 -410 -93q-142 0 -247 38t-167.5 109t-92 164t-29.5 210zM172 1262q0 73 53.5 125.5t126.5 52.5 q71 0 123.5 -52.5t52.5 -125.5q0 -69 -53 -122t-123 -53q-72 0 -126 53t-54 122zM479 602h217q-5 68 -27 101.5t-83 33.5q-46 0 -75 -33.5t-32 -101.5zM657 1262q0 73 53.5 125.5t127.5 52.5q71 0 122.5 -52.5t51.5 -125.5q0 -69 -52 -122t-122 -53q-73 0 -127 53t-54 122z " />
<glyph unicode="&#xec;" horiz-adv-x="647" d="M-51 1518l338 65l168 -438l-215 -68zM131 0v1001h387v-1001h-387z" />
<glyph unicode="&#xed;" horiz-adv-x="647" d="M131 0v1001h387v-1001h-387zM158 1145l168 438l338 -65l-291 -441z" />
<glyph unicode="&#xee;" horiz-adv-x="878" d="M-20 1180l321 336h277l321 -336l-154 -138l-311 226l-311 -224zM236 0v1001h387v-1001h-387z" />
<glyph unicode="&#xef;" horiz-adv-x="798" d="M-20 1282q0 73 53.5 125.5t126.5 52.5q71 0 123.5 -52.5t52.5 -125.5q0 -69 -53 -121.5t-123 -52.5q-72 0 -126 52.5t-54 121.5zM205 0v1001h387v-1001h-387zM465 1282q0 73 53 125.5t127 52.5q71 0 122.5 -52.5t51.5 -125.5q0 -69 -52 -121.5t-122 -52.5 q-73 0 -126.5 52.5t-53.5 121.5z" />
<glyph unicode="&#xf0;" horiz-adv-x="1263" d="M82 475q0 99 37.5 189t103.5 157t163 106.5t210 39.5q123 0 221 -66q-22 112 -100 184l-82 -94l-119 103l64 71q-86 33 -193 41l33 275q215 -6 371 -76l114 129l121 -96l-100 -115q253 -198 256 -629q0 -66 -5 -127t-20.5 -135.5t-41 -137t-69.5 -123t-102 -102.5 t-143 -68t-189 -26q-238 0 -384 136.5t-146 363.5zM471 473q0 -199 145 -199q60 0 101 52t41 149q0 82 -38.5 134.5t-107.5 52.5q-61 0 -101 -51.5t-40 -137.5z" />
<glyph unicode="&#xf1;" horiz-adv-x="1212" d="M111 1196q51 153 131.5 223t171.5 70q52 0 122 -27.5t132.5 -54.5t97.5 -27q31 0 56 20.5t67 74.5l155 -72q-95 -289 -307 -289q-48 0 -167 55.5t-160 55.5q-35 0 -65.5 -22t-72.5 -83zM117 0v999h387v-100h8q48 55 125 89t141 34q367 0 367 -416v-606h-387v530 q0 162 -115 162q-99 0 -127 -94q-12 -40 -12 -96v-502h-387z" />
<glyph unicode="&#xf2;" horiz-adv-x="1236" d="M82 496q0 243 143.5 384.5t392.5 141.5t393 -142.5t144 -381.5q0 -242 -145 -382.5t-396 -140.5q-247 0 -389.5 142t-142.5 379zM272 1518l338 65l168 -438l-215 -68zM477 498q0 -219 141 -219q72 0 106 58.5t34 158.5q0 223 -144 223q-70 0 -103.5 -60.5t-33.5 -160.5z " />
<glyph unicode="&#xf3;" horiz-adv-x="1236" d="M82 496q0 243 143.5 384.5t392.5 141.5t393 -142.5t144 -381.5q0 -242 -145 -382.5t-396 -140.5q-247 0 -389.5 142t-142.5 379zM451 1145l167 438l338 -65l-290 -441zM477 498q0 -219 141 -219q72 0 106 58.5t34 158.5q0 223 -144 223q-70 0 -103.5 -60.5t-33.5 -160.5z " />
<glyph unicode="&#xf4;" horiz-adv-x="1236" d="M82 496q0 243 143.5 384.5t392.5 141.5t393 -142.5t144 -381.5q0 -242 -145 -382.5t-396 -140.5q-247 0 -389.5 142t-142.5 379zM156 1180l321 336h277l321 -336l-153 -138l-312 226l-311 -224zM477 498q0 -219 141 -219q72 0 106 58.5t34 158.5q0 223 -144 223 q-70 0 -103.5 -60.5t-33.5 -160.5z" />
<glyph unicode="&#xf5;" horiz-adv-x="1236" d="M82 496q0 243 143.5 384.5t392.5 141.5t393 -142.5t144 -381.5q0 -242 -145 -382.5t-396 -140.5q-247 0 -389.5 142t-142.5 379zM156 1196q51 153 131.5 223t171.5 70q52 0 122 -27.5t132.5 -54.5t97.5 -27q31 0 56 20.5t67 74.5l156 -72q-95 -289 -308 -289 q-48 0 -167 55.5t-160 55.5q-35 0 -65.5 -22t-72.5 -83zM477 498q0 -219 141 -219q72 0 106 58.5t34 158.5q0 223 -144 223q-70 0 -103.5 -60.5t-33.5 -160.5z" />
<glyph unicode="&#xf6;" horiz-adv-x="1236" d="M82 496q0 243 143.5 384.5t392.5 141.5t393 -142.5t144 -381.5q0 -242 -145 -382.5t-396 -140.5q-247 0 -389.5 142t-142.5 379zM197 1282q0 73 53.5 125.5t126.5 52.5q71 0 123.5 -52.5t52.5 -125.5q0 -69 -53 -121.5t-123 -52.5q-72 0 -126 52.5t-54 121.5zM477 498 q0 -219 141 -219q72 0 106 58.5t34 158.5q0 223 -144 223q-70 0 -103.5 -60.5t-33.5 -160.5zM682 1282q0 73 53 125.5t127 52.5q71 0 122.5 -52.5t51.5 -125.5q0 -69 -52 -121.5t-122 -52.5q-73 0 -126.5 52.5t-53.5 121.5z" />
<glyph unicode="&#xf7;" horiz-adv-x="1351" d="M178 485v306h993v-306h-993zM492 233q0 77 52 128t130 51t130 -51t52 -128q0 -67 -53 -119.5t-129 -52.5q-78 0 -130 50t-52 122zM492 1040q0 77 52 128t130 51t130 -51t52 -128q0 -67 -53 -119.5t-129 -52.5q-78 0 -130 50t-52 122z" />
<glyph unicode="&#xf8;" horiz-adv-x="1236" d="M82 496q0 243 143.5 384.5t392.5 141.5q190 0 318 -84l78 90l82 -67l-78 -91q137 -140 137 -372q0 -242 -145 -382.5t-396 -140.5q-173 0 -299 72l-71 -84l-82 72l67 78q-147 138 -147 383zM477 498q0 -48 6 -88l228 266q-37 43 -97 43q-70 0 -103.5 -60.5t-33.5 -160.5z M537 305q29 -26 81 -26q72 0 106 58.5t34 158.5q0 23 -4 63z" />
<glyph unicode="&#xf9;" horiz-adv-x="1200" d="M92 381v618h387v-530q0 -92 29.5 -127t79.5 -35q93 0 121 94q12 40 12 97v501h387v-999h-387v100h-8q-120 -123 -269 -123q-189 0 -270.5 102.5t-81.5 301.5zM233 1518l338 65l168 -438l-215 -68z" />
<glyph unicode="&#xfa;" horiz-adv-x="1200" d="M92 381v618h387v-530q0 -92 29.5 -127t79.5 -35q93 0 121 94q12 40 12 97v501h387v-999h-387v100h-8q-120 -123 -269 -123q-189 0 -270.5 102.5t-81.5 301.5zM412 1145l168 438l338 -65l-291 -441z" />
<glyph unicode="&#xfb;" horiz-adv-x="1200" d="M92 381v618h387v-530q0 -92 29.5 -127t79.5 -35q93 0 121 94q12 40 12 97v501h387v-999h-387v100h-8q-120 -123 -269 -123q-189 0 -270.5 102.5t-81.5 301.5zM139 1180l322 336h276l322 -336l-154 -138l-311 226l-311 -224z" />
<glyph unicode="&#xfc;" horiz-adv-x="1200" d="M92 381v618h387v-530q0 -92 29.5 -127t79.5 -35q93 0 121 94q12 40 12 97v501h387v-999h-387v100h-8q-120 -123 -269 -123q-189 0 -270.5 102.5t-81.5 301.5zM176 1282q0 73 53.5 125.5t126.5 52.5q71 0 123.5 -52.5t52.5 -125.5q0 -69 -53 -121.5t-123 -52.5 q-72 0 -126 52.5t-54 121.5zM662 1282q0 73 53 125.5t127 52.5q71 0 122.5 -52.5t51.5 -125.5q0 -69 -52 -121.5t-122 -52.5q-73 0 -126.5 52.5t-53.5 121.5z" />
<glyph unicode="&#xfd;" horiz-adv-x="1185" d="M8 999h391l99 -323l90 -330h8l96 330l99 323h385l-512 -1405h-388l127 351zM451 1145l167 438l338 -65l-290 -441z" />
<glyph unicode="&#xfe;" horiz-adv-x="1208" d="M92 -457v1790h385v-418l6 -2q50 46 125.5 76.5t139.5 30.5q87 0 156 -30t122.5 -92t82 -166.5t28.5 -246.5q0 -129 -34.5 -229.5t-93.5 -159.5t-131 -89t-153 -30q-137 0 -236 80h-8v-381zM481 348q60 -57 123 -57q62 0 95.5 47t33.5 162q-3 107 -30.5 156t-81.5 49 q-85 0 -140 -60v-297z" />
<glyph unicode="&#xff;" horiz-adv-x="1185" d="M8 999h391l99 -323l90 -330h8l96 330l99 323h385l-512 -1405h-388l127 351zM176 1282q0 73 53.5 125.5t126.5 52.5q71 0 123.5 -52.5t52.5 -125.5q0 -69 -53 -121.5t-123 -52.5q-72 0 -126 52.5t-54 121.5zM662 1282q0 73 53 125.5t127 52.5q71 0 122.5 -52.5 t51.5 -125.5q0 -69 -52 -121.5t-122 -52.5q-73 0 -126.5 52.5t-53.5 121.5z" />
<glyph unicode="&#x100;" horiz-adv-x="1445" d="M10 0l477 1333h474l475 -1333h-430l-76 248h-430l-74 -248h-416zM412 1466v269h622v-269h-622zM588 532h256l-60 199l-65 230h-6l-68 -236z" />
<glyph unicode="&#x101;" horiz-adv-x="1140" d="M61 303q0 109 53.5 185.5t138 110.5t191.5 34q130 0 226 -33v31q0 47 -38.5 72.5t-109.5 25.5q-135 0 -280 -51l-82 268q191 78 424 78q465 0 465 -389v-635h-379v88l-8 4q-40 -48 -100 -78t-100 -37.5t-71 -7.5q-163 0 -246.5 80.5t-83.5 253.5zM266 1139v268h623v-268 h-623zM459 324q0 -35 28.5 -54.5t69.5 -19.5q66 0 113 37v88q-47 28 -111 28q-44 0 -72 -19t-28 -60z" />
<glyph unicode="&#x102;" horiz-adv-x="1445" d="M10 0l477 1333h474l475 -1333h-430l-76 248h-430l-74 -248h-416zM305 1806h256q11 -66 53.5 -107.5t104.5 -41.5q63 0 101 47t38 102h266q0 -49 -12 -99.5t-41.5 -104t-74 -95t-116.5 -68t-161 -26.5q-91 0 -165 26.5t-119 68t-75.5 95t-42.5 104t-12 99.5zM588 532h256 l-60 199l-65 230h-6l-68 -236z" />
<glyph unicode="&#x103;" horiz-adv-x="1140" d="M61 303q0 109 53.5 185.5t138 110.5t191.5 34q130 0 226 -33v31q0 47 -38.5 72.5t-109.5 25.5q-135 0 -280 -51l-82 268q191 78 424 78q465 0 465 -389v-635h-379v88l-8 4q-40 -48 -100 -78t-100 -37.5t-71 -7.5q-163 0 -246.5 80.5t-83.5 253.5zM174 1479h256 q11 -66 53.5 -108t104.5 -42q63 0 101 47.5t38 102.5h266q0 -49 -12 -99.5t-41.5 -104.5t-74 -95.5t-116.5 -68t-161 -26.5q-91 0 -165 26.5t-119 68t-75.5 95.5t-42.5 104.5t-12 99.5zM459 324q0 -35 28.5 -54.5t69.5 -19.5q66 0 113 37v88q-47 28 -111 28q-44 0 -72 -19 t-28 -60z" />
<glyph unicode="&#x104;" horiz-adv-x="1445" d="M10 0l477 1333h474l475 -1333h-211q-64 -98 -64 -180q0 -49 42 -70.5t96 -18t106 22.5l51 -166q-47 -25 -118.5 -41t-131.5 -16q-113 0 -183.5 60.5t-70.5 158.5q0 52 26 118t85 132h-57l-76 248h-430l-74 -248h-416zM588 532h256l-60 199l-65 230h-6l-68 -236z" />
<glyph unicode="&#x105;" horiz-adv-x="1140" d="M61 303q0 109 53.5 185.5t138 110.5t191.5 34q130 0 226 -33v31q0 47 -38.5 72.5t-109.5 25.5q-135 0 -280 -51l-82 268q191 78 424 78q465 0 465 -389v-635h-220q-63 -97 -63 -180q0 -49 42 -70.5t96 -18t106 22.5l51 -166q-47 -25 -118.5 -41t-131.5 -16 q-113 0 -183.5 60.5t-70.5 158.5q0 53 26.5 119.5t86.5 130.5v88l-8 4q-40 -48 -100 -78t-100 -37.5t-71 -7.5q-163 0 -246.5 80.5t-83.5 253.5zM459 324q0 -35 28.5 -54.5t69.5 -19.5q66 0 113 37v88q-47 28 -111 28q-44 0 -72 -19t-28 -60z" />
<glyph unicode="&#x106;" horiz-adv-x="1236" d="M82 678q0 148 39.5 270.5t116 214t197.5 142.5t276 51q330 0 491 -244l-291 -229q-47 69 -94.5 93.5t-105.5 24.5q-105 0 -159 -93t-54 -238q0 -94 22 -169t71 -123t120 -48q135 0 223 137l295 -229q-75 -114 -205 -188.5t-313 -74.5q-207 0 -349.5 88t-211 244 t-68.5 371zM489 1546l371 289l256 -231l-477 -226z" />
<glyph unicode="&#x107;" horiz-adv-x="1028" d="M82 498q0 243 132 383.5t384 140.5q227 0 375 -150l-213 -245q-47 47 -78.5 62.5t-69.5 15.5q-68 0 -102.5 -49.5t-34.5 -141.5q0 -102 34.5 -158.5t102.5 -56.5q80 0 172 92l213 -246q-86 -87 -195 -127.5t-204 -40.5q-252 0 -384 139.5t-132 381.5zM385 1145l168 438 l338 -65l-291 -441z" />
<glyph unicode="&#x108;" horiz-adv-x="1236" d="M82 678q0 148 39.5 270.5t116 214t197.5 142.5t276 51q330 0 491 -244l-291 -229q-47 69 -94.5 93.5t-105.5 24.5q-105 0 -159 -93t-54 -238q0 -94 22 -169t71 -123t120 -48q135 0 223 137l295 -229q-75 -114 -205 -188.5t-313 -74.5q-207 0 -349.5 88t-211 244 t-68.5 371zM209 1503l321 336h277l321 -336l-153 -137l-311 225l-312 -223z" />
<glyph unicode="&#x109;" horiz-adv-x="1028" d="M82 498q0 243 132 383.5t384 140.5q227 0 375 -150l-213 -245q-47 47 -78.5 62.5t-69.5 15.5q-68 0 -102.5 -49.5t-34.5 -141.5q0 -102 34.5 -158.5t102.5 -56.5q80 0 172 92l213 -246q-86 -87 -195 -127.5t-204 -40.5q-252 0 -384 139.5t-132 381.5zM98 1188l322 336 h276l322 -336l-154 -137l-311 225l-311 -223z" />
<glyph unicode="&#x10a;" horiz-adv-x="1236" d="M82 678q0 148 39.5 270.5t116 214t197.5 142.5t276 51q330 0 491 -244l-291 -229q-47 69 -94.5 93.5t-105.5 24.5q-105 0 -159 -93t-54 -238q0 -94 22 -169t71 -123t120 -48q135 0 223 137l295 -229q-75 -114 -205 -188.5t-313 -74.5q-207 0 -349.5 88t-211 244 t-68.5 371zM489 1604q0 79 56.5 135.5t136.5 56.5t136 -56t56 -136t-56.5 -136.5t-135.5 -56.5q-80 0 -136.5 56.5t-56.5 136.5z" />
<glyph unicode="&#x10b;" horiz-adv-x="1028" d="M82 498q0 243 132 383.5t384 140.5q227 0 375 -150l-213 -245q-47 47 -78.5 62.5t-69.5 15.5q-68 0 -102.5 -49.5t-34.5 -141.5q0 -102 34.5 -158.5t102.5 -56.5q80 0 172 92l213 -246q-86 -87 -195 -127.5t-204 -40.5q-252 0 -384 139.5t-132 381.5zM369 1300 q0 80 56.5 136.5t135.5 56.5t136 -56.5t57 -136.5q0 -79 -56.5 -135.5t-136.5 -56.5q-79 0 -135.5 56t-56.5 136z" />
<glyph unicode="&#x10c;" horiz-adv-x="1236" d="M82 678q0 148 39.5 270.5t116 214t197.5 142.5t276 51q330 0 491 -244l-291 -229q-47 69 -94.5 93.5t-105.5 24.5q-105 0 -159 -93t-54 -238q0 -94 22 -169t71 -123t120 -48q135 0 223 137l295 -229q-75 -114 -205 -188.5t-313 -74.5q-207 0 -349.5 88t-211 244 t-68.5 371zM238 1737l143 135l311 -223l312 225l153 -137l-321 -336h-277z" />
<glyph unicode="&#x10d;" horiz-adv-x="1028" d="M82 498q0 243 132 383.5t384 140.5q227 0 375 -150l-213 -245q-47 47 -78.5 62.5t-69.5 15.5q-68 0 -102.5 -49.5t-34.5 -141.5q0 -102 34.5 -158.5t102.5 -56.5q80 0 172 92l213 -246q-86 -87 -195 -127.5t-204 -40.5q-252 0 -384 139.5t-132 381.5zM111 1432l143 135 l311 -224l312 226l153 -137l-321 -336h-277z" />
<glyph unicode="&#x10e;" horiz-adv-x="1374" d="M102 0v1333h506q117 0 217 -22t187 -72t148.5 -125.5t96.5 -188.5t35 -255t-35 -255.5t-97 -190.5t-151 -127.5t-192.5 -73.5t-224.5 -23h-490zM145 1737l144 135l311 -223l311 225l154 -137l-322 -336h-276zM506 330h45q157 0 240 80t83 256t-84 255.5t-249 79.5h-35 v-671z" />
<glyph unicode="&#x10f;" horiz-adv-x="1576" d="M82 494q0 129 34.5 232t92.5 166.5t131 96.5t154 33q136 0 235 -80h8v414l389 133v-1489h-385v84l-6 2q-52 -52 -123.5 -79t-140.5 -27q-86 0 -155 28.5t-122.5 88.5t-82.5 160.5t-29 236.5zM485 494q0 -199 113 -199q85 0 139 59v297q-61 58 -123 58q-129 0 -129 -215z M1217 1337q0 74 55 123t131 49q95 0 153 -59.5t58 -153.5q0 -128 -78.5 -235t-212.5 -166l-98 121q61 44 89 83.5t40 86.5q-59 6 -98 45t-39 106z" />
<glyph unicode="&#x110;" horiz-adv-x="1374" d="M18 551v201h84v581h506q117 0 217 -22t187 -72t148.5 -125.5t96.5 -188.5t35 -255t-35 -255.5t-97 -190.5t-151 -127.5t-192.5 -73.5t-224.5 -23h-490v551h-84zM506 330h45q157 0 240 80t83 256t-84 255.5t-249 79.5h-35v-249h188v-201h-188v-221z" />
<glyph unicode="&#x111;" horiz-adv-x="1239" d="M82 457q0 127 34.5 225t93 156.5t130.5 88t154 29.5q137 0 235 -79h8v157h-250v187h250v135l389 133v-268h93v-187h-93v-1034h-385v84l-6 2q-52 -52 -123.5 -79t-140.5 -27q-178 0 -283.5 117t-105.5 360zM485 457q0 -78 30 -120t83 -42q85 0 139 59v232q-60 57 -123 57 q-129 0 -129 -186z" />
<glyph unicode="&#x112;" horiz-adv-x="1212" d="M102 0v1333h1049v-332h-645v-161h444v-320h-444v-188h665v-332h-1069zM315 1466v269h623v-269h-623z" />
<glyph unicode="&#x113;" horiz-adv-x="1153" d="M82 498q0 240 138 382t384 142q104 0 185.5 -26.5t135.5 -73t89.5 -113t51 -143.5t15.5 -168v-86h-602q5 -71 47 -104.5t136 -33.5q105 0 260 48l106 -252q-201 -93 -410 -93q-142 0 -247 38t-167.5 109t-92 164t-29.5 210zM279 1139v268h622v-268h-622zM479 602h217 q-5 68 -27 101.5t-83 33.5q-46 0 -75 -33.5t-32 -101.5z" />
<glyph unicode="&#x114;" horiz-adv-x="1212" d="M102 0v1333h1049v-332h-645v-161h444v-320h-444v-188h665v-332h-1069zM205 1806h256q11 -66 53 -107.5t104 -41.5q63 0 101.5 47t38.5 102h266q0 -49 -12 -99.5t-42 -104t-74.5 -95t-116.5 -68t-161 -26.5q-91 0 -165 26.5t-119 67.5t-75 95t-42 104.5t-12 99.5z" />
<glyph unicode="&#x115;" horiz-adv-x="1153" d="M82 498q0 240 138 382t384 142q104 0 185.5 -26.5t135.5 -73t89.5 -113t51 -143.5t15.5 -168v-86h-602q5 -71 47 -104.5t136 -33.5q105 0 260 48l106 -252q-201 -93 -410 -93q-142 0 -247 38t-167.5 109t-92 164t-29.5 210zM184 1479h256q11 -66 53.5 -108t104.5 -42 q63 0 101 47.5t38 102.5h267q0 -49 -12 -99.5t-42 -104.5t-74.5 -95.5t-116.5 -68t-161 -26.5q-91 0 -165 26.5t-119 68t-75.5 95.5t-42.5 104.5t-12 99.5zM479 602h217q-5 68 -27 101.5t-83 33.5q-46 0 -75 -33.5t-32 -101.5z" />
<glyph unicode="&#x116;" horiz-adv-x="1212" d="M102 0v1333h1049v-332h-645v-161h444v-320h-444v-188h665v-332h-1069zM451 1595q0 80 56.5 136.5t135.5 56.5t136 -57t57 -136t-56.5 -135.5t-136.5 -56.5q-79 0 -135.5 56.5t-56.5 135.5z" />
<glyph unicode="&#x117;" horiz-adv-x="1153" d="M82 498q0 240 138 382t384 142q104 0 185.5 -26.5t135.5 -73t89.5 -113t51 -143.5t15.5 -168v-86h-602q5 -71 47 -104.5t136 -33.5q105 0 260 48l106 -252q-201 -93 -410 -93q-142 0 -247 38t-167.5 109t-92 164t-29.5 210zM395 1300q0 80 56.5 136.5t136.5 56.5 q79 0 135.5 -56.5t56.5 -136.5t-56 -136t-136 -56t-136.5 56.5t-56.5 135.5zM479 602h217q-5 68 -27 101.5t-83 33.5q-46 0 -75 -33.5t-32 -101.5z" />
<glyph unicode="&#x118;" horiz-adv-x="1212" d="M102 0v1333h1049v-332h-645v-161h444v-320h-444v-188h665v-332h-96q-63 -97 -63 -180q0 -49 41.5 -70.5t95.5 -18t106 22.5l52 -166q-47 -25 -118.5 -41t-131.5 -16q-113 0 -183.5 60.5t-70.5 158.5q0 127 110 250h-811z" />
<glyph unicode="&#x119;" horiz-adv-x="1153" d="M82 498q0 240 138 382t384 142q104 0 185.5 -26.5t135.5 -73t89.5 -113t51 -143.5t15.5 -168v-86h-602q5 -71 47 -104.5t136 -33.5q105 0 260 48l106 -252q-53 -24 -113 -45q-43 -79 -43 -146q0 -37 24.5 -58.5t62 -26t78.5 0.5t79 19l51 -166q-47 -25 -118 -41.5 t-131 -16.5q-113 0 -183.5 61t-70.5 159q0 84 53 172q-83 -5 -99 -5q-142 0 -247 38t-167.5 109t-92 164t-29.5 210zM479 602h217q-5 68 -27 101.5t-83 33.5q-46 0 -75 -33.5t-32 -101.5z" />
<glyph unicode="&#x11a;" horiz-adv-x="1212" d="M102 0v1333h1049v-332h-645v-161h444v-320h-444v-188h665v-332h-1069zM156 1733l143 135l311 -223l312 225l153 -137l-321 -336h-277z" />
<glyph unicode="&#x11b;" horiz-adv-x="1153" d="M82 498q0 240 138 382t384 142q104 0 185.5 -26.5t135.5 -73t89.5 -113t51 -143.5t15.5 -168v-86h-602q5 -71 47 -104.5t136 -33.5q105 0 260 48l106 -252q-201 -93 -410 -93q-142 0 -247 38t-167.5 109t-92 164t-29.5 210zM127 1421l143 135l312 -223l311 226l154 -138 l-322 -336h-276zM479 602h217q-5 68 -27 101.5t-83 33.5q-46 0 -75 -33.5t-32 -101.5z" />
<glyph unicode="&#x11c;" horiz-adv-x="1359" d="M82 678q0 148 39.5 270.5t116 214t197.5 142.5t276 51q174 0 287 -60t192 -184l-316 -229q-60 118 -178 118q-70 0 -116 -46t-64 -117.5t-18 -167.5q0 -342 204 -342q67 0 113.5 36.5t56.5 104.5h-170v287h576v-228q0 -256 -149 -404.5t-433 -148.5q-307 0 -460.5 187 t-153.5 516zM215 1503l322 336h276l322 -336l-154 -137l-311 225l-312 -223z" />
<glyph unicode="&#x11d;" horiz-adv-x="1218" d="M82 487q0 135 30.5 238.5t85 167t126 95.5t157.5 32q68 0 139.5 -30.5t114.5 -76.5l6 2v86h385v-901q0 -100 -30.5 -188t-95 -166.5t-176.5 -138t-263 -90.5l-115 305q77 25 134 54t87 54.5t47.5 55t22 49.5t4.5 43v26h-8q-52 -49 -123 -77.5t-137 -28.5q-80 0 -149 29.5 t-124 87.5t-86.5 153.5t-31.5 218.5zM172 1180l322 336h276l322 -336l-154 -138l-311 226l-312 -224zM485 502q0 -191 121 -191q30 0 66.5 15.5t64.5 42.5v274q-54 59 -131 59q-55 0 -88 -49.5t-33 -150.5z" />
<glyph unicode="&#x11e;" horiz-adv-x="1359" d="M82 678q0 148 39.5 270.5t116 214t197.5 142.5t276 51q174 0 287 -60t192 -184l-316 -229q-60 118 -178 118q-70 0 -116 -46t-64 -117.5t-18 -167.5q0 -342 204 -342q67 0 113.5 36.5t56.5 104.5h-170v287h576v-228q0 -256 -149 -404.5t-433 -148.5q-307 0 -460.5 187 t-153.5 516zM272 1806h256q11 -66 53.5 -107.5t104.5 -41.5q63 0 101 47t38 102h267q0 -49 -12 -99.5t-42 -104t-74.5 -95t-116.5 -68t-161 -26.5q-91 0 -165 26.5t-119 68t-75.5 95t-42.5 104t-12 99.5z" />
<glyph unicode="&#x11f;" horiz-adv-x="1218" d="M82 487q0 135 30.5 238.5t85 167t126 95.5t157.5 32q68 0 139.5 -30.5t114.5 -76.5l6 2v86h385v-901q0 -100 -30.5 -188t-95 -166.5t-176.5 -138t-263 -90.5l-115 305q77 25 134 54t87 54.5t47.5 55t22 49.5t4.5 43v26h-8q-52 -49 -123 -77.5t-137 -28.5q-80 0 -149 29.5 t-124 87.5t-86.5 153.5t-31.5 218.5zM231 1479h256q11 -66 53.5 -108t104.5 -42q63 0 101 47.5t38 102.5h267q0 -49 -12 -99.5t-42 -104.5t-74.5 -95.5t-116.5 -68t-161 -26.5q-91 0 -165 26.5t-119 68t-75.5 95.5t-42.5 104.5t-12 99.5zM485 502q0 -191 121 -191 q30 0 66.5 15.5t64.5 42.5v274q-54 59 -131 59q-55 0 -88 -49.5t-33 -150.5z" />
<glyph unicode="&#x120;" horiz-adv-x="1359" d="M82 678q0 148 39.5 270.5t116 214t197.5 142.5t276 51q174 0 287 -60t192 -184l-316 -229q-60 118 -178 118q-70 0 -116 -46t-64 -117.5t-18 -167.5q0 -342 204 -342q67 0 113.5 36.5t56.5 104.5h-170v287h576v-228q0 -256 -149 -404.5t-433 -148.5q-307 0 -460.5 187 t-153.5 516zM498 1595q0 80 56.5 136.5t135.5 56.5q80 0 136.5 -57t56.5 -136t-56.5 -135.5t-136.5 -56.5t-136 56.5t-56 135.5z" />
<glyph unicode="&#x121;" horiz-adv-x="1218" d="M82 487q0 135 30.5 238.5t85 167t126 95.5t157.5 32q68 0 139.5 -30.5t114.5 -76.5l6 2v86h385v-901q0 -100 -30.5 -188t-95 -166.5t-176.5 -138t-263 -90.5l-115 305q77 25 134 54t87 54.5t47.5 55t22 49.5t4.5 43v26h-8q-52 -49 -123 -77.5t-137 -28.5q-80 0 -149 29.5 t-124 87.5t-86.5 153.5t-31.5 218.5zM485 502q0 -191 121 -191q30 0 66.5 15.5t64.5 42.5v274q-54 59 -131 59q-55 0 -88 -49.5t-33 -150.5zM492 1300q0 80 56.5 136.5t135.5 56.5q80 0 136.5 -56.5t56.5 -136.5q0 -79 -56.5 -135.5t-136.5 -56.5t-136 56t-56 136z" />
<glyph unicode="&#x122;" horiz-adv-x="1359" d="M82 678q0 148 39.5 270.5t116 214t197.5 142.5t276 51q174 0 287 -60t192 -184l-316 -229q-60 118 -178 118q-70 0 -116 -46t-64 -117.5t-18 -167.5q0 -342 204 -342q67 0 113.5 36.5t56.5 104.5h-170v287h576v-228q0 -256 -149 -404.5t-433 -148.5q-307 0 -460.5 187 t-153.5 516zM516 -260q0 74 55 123t131 49q95 0 153 -59.5t58 -153.5q0 -128 -78 -235t-212 -166l-99 120q61 44 89 83.5t40 86.5q-59 6 -98 45.5t-39 106.5z" />
<glyph unicode="&#x123;" horiz-adv-x="1218" d="M82 487q0 135 30.5 238.5t85 167t126 95.5t157.5 32q68 0 139.5 -30.5t114.5 -76.5l6 2v86h385v-901q0 -100 -30.5 -188t-95 -166.5t-176.5 -138t-263 -90.5l-115 305q77 25 134 54t87 54.5t47.5 55t22 49.5t4.5 43v26h-8q-52 -49 -123 -77.5t-137 -28.5q-80 0 -149 29.5 t-124 87.5t-86.5 153.5t-31.5 218.5zM451 1309q0 126 71.5 232t194.5 165l90 -119q-55 -44 -81 -83t-38 -85q56 -6 91.5 -44.5t35.5 -104.5q0 -74 -50 -122t-120 -48q-85 0 -139.5 59.5t-54.5 149.5zM485 502q0 -191 121 -191q30 0 66.5 15.5t64.5 42.5v274q-54 59 -131 59 q-55 0 -88 -49.5t-33 -150.5z" />
<glyph unicode="&#x124;" horiz-adv-x="1411" d="M102 0v1333h402v-491h403v491h402v-1333h-402v512h-403v-512h-402zM254 1503l321 336h277l322 -336l-154 -137l-311 225l-312 -223z" />
<glyph unicode="&#x125;" horiz-adv-x="1212" d="M-129 1559l322 335h276l322 -335l-154 -138l-311 226l-312 -224zM92 0v1354l387 133v-565h8q56 48 129 74t138 26q366 0 366 -416v-606h-387v530q0 162 -115 162q-98 0 -126 -94q-13 -44 -13 -96v-502h-387z" />
<glyph unicode="&#x126;" horiz-adv-x="1411" d="M27 977v160h75v196h402v-196h403v196h402v-196h80v-160h-80v-977h-402v512h-403v-512h-402v977h-75zM504 842h403v135h-403v-135z" />
<glyph unicode="&#x127;" horiz-adv-x="1202" d="M16 1047v188h76v119l387 133v-252h340v-188h-340v-183h8q56 48 129.5 74.5t137.5 26.5q366 0 366 -416v-549h-387v473q0 162 -115 162q-98 0 -126 -94q-13 -44 -13 -97v-444h-387v1047h-76z" />
<glyph unicode="&#x128;" horiz-adv-x="649" d="M-129 1524q51 153 131.5 223t171.5 70q52 0 122 -27.5t132.5 -54.5t97.5 -27q31 0 56 20t67 74l156 -71q-95 -289 -307 -289q-48 0 -167.5 55t-160.5 55q-35 0 -65 -21.5t-72 -82.5zM123 0v1333h403v-1333h-403z" />
<glyph unicode="&#x129;" horiz-adv-x="892" d="M-20 1178q51 153 131 222.5t172 69.5q52 0 122 -27t132.5 -54t97.5 -27q31 0 56 20t67 74l155 -72q-95 -288 -307 -288q-48 0 -167 55t-160 55q-35 0 -65.5 -21.5t-72.5 -82.5zM252 0v1001h387v-1001h-387z" />
<glyph unicode="&#x12a;" horiz-adv-x="649" d="M14 1444v268h623v-268h-623zM123 0v1333h403v-1333h-403z" />
<glyph unicode="&#x12b;" horiz-adv-x="647" d="M12 1114v268h623v-268h-623zM131 0v1001h387v-1001h-387z" />
<glyph unicode="&#x12c;" horiz-adv-x="757" d="M-31 1806h256q11 -66 53.5 -107.5t104.5 -41.5q63 0 101 47t38 102h266q0 -49 -12 -99.5t-41.5 -104t-74 -95t-116.5 -68t-161 -26.5q-91 0 -165 26.5t-119 68t-75.5 95t-42.5 104t-12 99.5zM176 0v1333h404v-1333h-404z" />
<glyph unicode="&#x12d;" horiz-adv-x="765" d="M-20 1479h256q11 -66 53 -108t104 -42q63 0 101 47.5t38 102.5h267q0 -49 -12 -99.5t-42 -104.5t-74.5 -95.5t-116.5 -68t-161 -26.5q-91 0 -165 26.5t-119 68t-75 95.5t-42 104.5t-12 99.5zM186 0v1001h387v-1001h-387z" />
<glyph unicode="&#x12e;" horiz-adv-x="649" d="M121 -250q0 127 110 250h-108v1333h403v-1333h-133q-63 -97 -63 -180q0 -49 41.5 -70.5t95.5 -18t106 22.5l52 -166q-47 -25 -118.5 -41t-131.5 -16q-113 0 -183.5 60.5t-70.5 158.5z" />
<glyph unicode="&#x12f;" horiz-adv-x="647" d="M102 1311q0 93 65 158t159 65q91 0 155 -65.5t64 -157.5q0 -91 -64 -155t-155 -64q-94 0 -159 64t-65 155zM125 -250q0 52 26 118t85 132h-105v1001h387v-1001h-121q-63 -97 -63 -180q0 -49 42 -70.5t96 -18t106 22.5l51 -166q-47 -25 -118.5 -41t-131.5 -16 q-113 0 -183.5 60.5t-70.5 158.5z" />
<glyph unicode="&#x130;" horiz-adv-x="649" d="M123 0v1333h403v-1333h-403zM129 1595q0 79 56.5 136t136.5 57q79 0 135.5 -56.5t56.5 -136.5q0 -79 -56 -135.5t-136 -56.5t-136.5 56.5t-56.5 135.5z" />
<glyph unicode="&#x131;" horiz-adv-x="647" d="M131 0v1001h387v-1001h-387z" />
<glyph unicode="&#x132;" horiz-adv-x="1863" d="M123 0v1333h403v-1333h-403zM616 420l375 115q39 -121 85 -170.5t116 -49.5q166 0 166 234v784h403v-790q0 -269 -144 -418.5t-419 -149.5q-246 0 -383.5 111.5t-198.5 333.5z" />
<glyph unicode="&#x133;" horiz-adv-x="1247" d="M102 1311q0 93 65 158t159 65q91 0 155 -65.5t64 -157.5q0 -91 -64 -155t-155 -64q-94 0 -159 64t-65 155zM131 0v1001h387v-1001h-387zM514 -174q137 24 178 67.5t41 153.5v952h385v-1046q0 -227 -145 -330.5t-436 -103.5zM702 1311q0 93 65 158t159 65q91 0 155 -65.5 t64 -157.5q0 -91 -64 -155t-155 -64q-94 0 -159 64t-65 155z" />
<glyph unicode="&#x134;" horiz-adv-x="1314" d="M0 422l375 115q39 -122 84.5 -171t115.5 -49q166 0 166 234v784h404v-790q0 -269 -144 -418.5t-419 -149.5q-246 0 -383.5 111.5t-198.5 333.5zM487 1503l322 336h276l322 -336l-154 -137l-311 225l-311 -223z" />
<glyph unicode="&#x135;" horiz-adv-x="858" d="M-31 1180l322 336h276l322 -336l-154 -138l-311 226l-311 -224zM16 -174q137 24 178.5 67.5t41.5 153.5v952h385v-1046q0 -227 -145.5 -330.5t-436.5 -103.5z" />
<glyph unicode="&#x136;" horiz-adv-x="1361" d="M102 0v1333h400v-475h6l377 475h448l-405 -485l444 -848h-446l-262 532l-162 -192v-340h-400zM498 -199q0 74 55 123t131 49q95 0 153 -59.5t58 -153.5q0 -128 -78.5 -235t-212.5 -166l-98 121q61 44 89 83.5t40 86.5q-59 6 -98 45t-39 106z" />
<glyph unicode="&#x137;" horiz-adv-x="1228" d="M92 0v1354l385 133v-764h4l248 276h451l-324 -333l373 -666h-443l-198 387l-111 -121v-266h-385zM434 -254q0 74 55 123t132 49q95 0 152.5 -59.5t57.5 -153.5q0 -128 -78 -235t-212 -166l-99 121q61 44 89 83.5t40 85.5q-59 6 -98 45.5t-39 106.5z" />
<glyph unicode="&#x138;" horiz-adv-x="1236" d="M92 0v999h385v-276h4l248 276h451l-324 -333l373 -666h-443l-198 387l-111 -121v-266h-385z" />
<glyph unicode="&#x139;" horiz-adv-x="1128" d="M102 0v1333h402v-1003h614v-330h-1016zM158 1546l370 289l256 -231l-477 -226z" />
<glyph unicode="&#x13a;" horiz-adv-x="593" d="M66 1640l370 289l256 -231l-477 -225zM102 0v1354l390 133v-1487h-390z" />
<glyph unicode="&#x13b;" horiz-adv-x="1128" d="M102 0v1333h402v-1003h614v-330h-1016zM412 -244q0 74 55 123t131 49q95 0 153 -59.5t58 -153.5q0 -128 -78.5 -235t-212.5 -166l-98 121q61 44 89 83.5t40 86.5q-59 6 -98 45t-39 106z" />
<glyph unicode="&#x13c;" horiz-adv-x="593" d="M102 0v1354l390 133v-1487h-390zM123 -236q0 74 55 123.5t131 49.5q95 0 153 -59.5t58 -153.5q0 -128 -78.5 -235.5t-212.5 -166.5l-98 121q61 44 89 83.5t40 86.5q-59 6 -98 45t-39 106z" />
<glyph unicode="&#x13d;" horiz-adv-x="1124" d="M102 0v1333h402v-1003h614v-330h-1016zM684 1167q0 74 55 123t131 49q95 0 153 -59.5t58 -153.5q0 -128 -78 -235t-212 -166l-99 121q61 44 89 83.5t40 86.5q-59 6 -98 45t-39 106z" />
<glyph unicode="&#x13e;" horiz-adv-x="954" d="M102 0v1354l390 133v-1487h-390zM596 1223q0 74 55 123t131 49q95 0 153 -59.5t58 -153.5q0 -128 -78.5 -235.5t-212.5 -166.5l-98 121q61 44 89 83.5t40 86.5q-59 6 -98 45.5t-39 106.5z" />
<glyph unicode="&#x13f;" horiz-adv-x="1128" d="M102 0v1333h402v-1003h614v-330h-1016zM692 756q0 79 56.5 135.5t136.5 56.5q79 0 135.5 -56t56.5 -136t-56.5 -136.5t-135.5 -56.5t-136 56.5t-57 136.5z" />
<glyph unicode="&#x140;" horiz-adv-x="933" d="M102 0v1354l390 133v-1487h-390zM586 698q0 80 56.5 136.5t135.5 56.5q80 0 136.5 -56.5t56.5 -136.5q0 -79 -56.5 -135.5t-136.5 -56.5t-136 56t-56 136z" />
<glyph unicode="&#x141;" horiz-adv-x="1165" d="M-31 528l170 99v706h402v-475l190 111l100 -172l-290 -168v-299h614v-330h-1016v395l-69 -39z" />
<glyph unicode="&#x142;" horiz-adv-x="749" d="M-10 528l184 107v719l389 133v-625l96 58l101 -172l-197 -115v-633h-389v406l-84 -50z" />
<glyph unicode="&#x143;" horiz-adv-x="1431" d="M96 0v1333h369l240 -332q180 -263 225 -331h8v663h397v-1333h-350l-274 383l-213 317h-6v-700h-396zM504 1546l370 289l256 -231l-477 -226z" />
<glyph unicode="&#x144;" horiz-adv-x="1212" d="M117 0v999h387v-100h8q48 55 125 89t141 34q367 0 367 -416v-606h-387v530q0 162 -115 162q-99 0 -127 -94q-12 -40 -12 -96v-502h-387zM395 1145l168 438l338 -65l-291 -441z" />
<glyph unicode="&#x145;" horiz-adv-x="1431" d="M96 0v1333h369l240 -332q180 -263 225 -331h8v663h397v-1333h-350l-274 383l-213 317h-6v-700h-396zM541 -199q0 74 55 123t131 49q95 0 153 -59.5t58 -153.5q0 -128 -78.5 -235t-212.5 -166l-98 121q61 44 89 83.5t40 86.5q-59 6 -98 45t-39 106z" />
<glyph unicode="&#x146;" horiz-adv-x="1212" d="M117 0v999h387v-100h8q48 55 125 89t141 34q367 0 367 -416v-606h-387v530q0 162 -115 162q-99 0 -127 -94q-12 -40 -12 -96v-502h-387zM416 -264q0 74 55 123t131 49q95 0 153 -59.5t58 -153.5q0 -128 -78.5 -235.5t-212.5 -166.5l-98 121q61 44 89 83.5t40 86.5 q-59 6 -98 45.5t-39 106.5z" />
<glyph unicode="&#x147;" horiz-adv-x="1431" d="M96 0v1333h369l240 -332q180 -263 225 -331h8v663h397v-1333h-350l-274 383l-213 317h-6v-700h-396zM246 1733l143 135l311 -223l312 225l153 -137l-321 -336h-277z" />
<glyph unicode="&#x148;" horiz-adv-x="1212" d="M102 1421l144 135l311 -223l311 226l154 -138l-322 -336h-276zM117 0v999h387v-100h8q48 55 125 89t141 34q367 0 367 -416v-606h-387v530q0 162 -115 162q-99 0 -127 -94q-12 -40 -12 -96v-502h-387z" />
<glyph unicode="&#x149;" horiz-adv-x="1363" d="M-35 1395q0 74 55 123t132 49q95 0 152.5 -59.5t57.5 -153.5q0 -128 -78 -235.5t-212 -166.5l-99 121q61 44 89 83.5t40 86.5q-59 6 -98 45.5t-39 106.5zM268 0v999h387v-100h9q48 55 125 89t141 34q366 0 366 -416v-606h-387v530q0 162 -114 162q-99 0 -127 -94 q-13 -44 -13 -96v-502h-387z" />
<glyph unicode="&#x14a;" horiz-adv-x="1431" d="M96 0v1333h369l240 -332q180 -263 225 -331h8v663h397v-1501q0 -68 -19 -121t-51 -86.5t-76.5 -55.5t-92 -31t-101.5 -9q-130 0 -252 45l43 264q54 -8 78 -8q41 0 63.5 20.5t22.5 73.5v123l-239 336l-213 317h-6v-700h-396z" />
<glyph unicode="&#x14b;" horiz-adv-x="1202" d="M92 0v999h387v-100h8q48 55 125 89t142 34q366 0 366 -416v-774q0 -84 -28.5 -145t-78.5 -94.5t-108 -48.5t-127 -15q-130 0 -252 45l43 264q54 -8 78 -8q41 0 63.5 20.5t22.5 73.5v606q0 162 -115 162q-98 0 -126 -94q-13 -44 -13 -96v-502h-387z" />
<glyph unicode="&#x14c;" horiz-adv-x="1419" d="M82 662q0 326 159.5 510t469.5 184q308 0 467 -184.5t159 -507.5q0 -325 -160 -507t-472 -182q-306 0 -464.5 184t-158.5 503zM389 1466v269h623v-269h-623zM498 670q0 -160 54 -254t159 -94q72 0 120.5 49.5t68.5 124.5t20 172q0 155 -52 247.5t-163 92.5 q-104 0 -155.5 -95t-51.5 -243z" />
<glyph unicode="&#x14d;" horiz-adv-x="1236" d="M82 496q0 243 143.5 384.5t392.5 141.5t393 -142.5t144 -381.5q0 -242 -145 -382.5t-396 -140.5q-247 0 -389.5 142t-142.5 379zM301 1139v268h623v-268h-623zM477 498q0 -219 141 -219q72 0 106 58.5t34 158.5q0 223 -144 223q-70 0 -103.5 -60.5t-33.5 -160.5z" />
<glyph unicode="&#x14e;" horiz-adv-x="1419" d="M82 662q0 326 159.5 510t469.5 184q308 0 467 -184.5t159 -507.5q0 -325 -160 -507t-472 -182q-306 0 -464.5 184t-158.5 503zM293 1806h256q11 -66 53.5 -107.5t104.5 -41.5q63 0 101 47t38 102h266q0 -49 -12 -99.5t-41.5 -104t-74 -95t-116.5 -68t-161 -26.5 q-91 0 -165 26.5t-119 68t-75.5 95t-42.5 104t-12 99.5zM498 670q0 -160 54 -254t159 -94q72 0 120.5 49.5t68.5 124.5t20 172q0 155 -52 247.5t-163 92.5q-104 0 -155.5 -95t-51.5 -243z" />
<glyph unicode="&#x14f;" horiz-adv-x="1236" d="M82 496q0 243 143.5 384.5t392.5 141.5t393 -142.5t144 -381.5q0 -242 -145 -382.5t-396 -140.5q-247 0 -389.5 142t-142.5 379zM201 1479h256q11 -66 53 -108t104 -42q63 0 101.5 47.5t38.5 102.5h266q0 -49 -12 -99.5t-42 -104.5t-74.5 -95.5t-116.5 -68t-161 -26.5 q-91 0 -165 26.5t-119 68t-75 95.5t-42 104.5t-12 99.5zM477 498q0 -219 141 -219q72 0 106 58.5t34 158.5q0 223 -144 223q-70 0 -103.5 -60.5t-33.5 -160.5z" />
<glyph unicode="&#x150;" horiz-adv-x="1419" d="M82 662q0 326 159.5 510t469.5 184q308 0 467 -184.5t159 -507.5q0 -325 -160 -507t-472 -182q-306 0 -464.5 184t-158.5 503zM293 1542l321 342l289 -190l-436 -295zM498 670q0 -160 54 -254t159 -94q72 0 120.5 49.5t68.5 124.5t20 172q0 155 -52 247.5t-163 92.5 q-104 0 -155.5 -95t-51.5 -243zM768 1511l322 342l288 -190l-436 -295z" />
<glyph unicode="&#x151;" horiz-adv-x="1236" d="M82 496q0 243 143.5 384.5t392.5 141.5t393 -142.5t144 -381.5q0 -242 -145 -382.5t-396 -140.5q-247 0 -389.5 142t-142.5 379zM287 1161l168 438l338 -65l-291 -440zM477 498q0 -219 141 -219q72 0 106 58.5t34 158.5q0 223 -144 223q-70 0 -103.5 -60.5t-33.5 -160.5z M700 1145l168 438l338 -65l-291 -441z" />
<glyph unicode="&#x152;" horiz-adv-x="1929" d="M102 662q0 326 159.5 510t469.5 184q96 0 193 -23h923v-332h-596v-155h396v-332h-396v-182h617v-332h-936q-95 -25 -207 -25q-306 0 -464.5 184t-158.5 503zM518 670q0 -160 54 -254t159 -94q68 0 117 43v598q-51 45 -123 45q-104 0 -155.5 -95t-51.5 -243z" />
<glyph unicode="&#x153;" horiz-adv-x="1835" d="M82 496q0 243 143.5 384.5t392.5 141.5q198 0 338 -117q134 117 330 117q104 0 185.5 -26.5t135.5 -73t89.5 -113t51 -143.5t15.5 -168v-86h-602q5 -71 46.5 -104.5t135.5 -33.5q106 0 261 48l106 -252q-202 -93 -410 -93q-234 0 -348 111q-128 -113 -338 -113 q-247 0 -389.5 142t-142.5 379zM477 498q0 -219 141 -219q72 0 106 58.5t34 158.5q0 223 -144 223q-70 0 -103.5 -60.5t-33.5 -160.5zM1161 602h217q-5 68 -27 101.5t-83 33.5q-46 0 -75 -33.5t-32 -101.5z" />
<glyph unicode="&#x154;" horiz-adv-x="1294" d="M102 0v1333h639q107 0 195.5 -27.5t154.5 -81t103 -139.5t37 -196q0 -278 -232 -387l234 -502h-414l-182 449h-131v-449h-404zM403 1546l371 289l256 -231l-477 -226zM504 778h164q66 0 104.5 29t38.5 88q0 55 -39.5 80.5t-99.5 25.5h-168v-223z" />
<glyph unicode="&#x155;" horiz-adv-x="899" d="M92 0v999h387v-141h8q49 81 125 121.5t164 40.5q60 0 127 -23l-51 -362q-122 16 -172 16q-98 0 -149.5 -41t-51.5 -147v-463h-387zM236 1145l167 438l338 -65l-290 -441z" />
<glyph unicode="&#x156;" horiz-adv-x="1294" d="M102 0v1333h639q107 0 195.5 -27.5t154.5 -81t103 -139.5t37 -196q0 -278 -232 -387l234 -502h-414l-182 449h-131v-449h-404zM463 -195q0 74 55 123t131 49q95 0 153 -59.5t58 -153.5q0 -128 -78.5 -235t-212.5 -166l-98 121q61 44 89 83.5t40 86.5q-59 6 -98 45 t-39 106zM504 778h164q66 0 104.5 29t38.5 88q0 55 -39.5 80.5t-99.5 25.5h-168v-223z" />
<glyph unicode="&#x157;" horiz-adv-x="899" d="M92 0v999h387v-141h8q49 81 125 121.5t164 40.5q60 0 127 -23l-51 -362q-122 16 -172 16q-98 0 -149.5 -41t-51.5 -147v-463h-387zM125 -260q0 74 55 123t131 49q95 0 153 -59.5t58 -153.5q0 -128 -78.5 -235t-212.5 -166l-98 120q61 44 89 83.5t40 86.5q-59 6 -98 45.5 t-39 106.5z" />
<glyph unicode="&#x158;" horiz-adv-x="1294" d="M102 0v1333h639q107 0 195.5 -27.5t154.5 -81t103 -139.5t37 -196q0 -278 -232 -387l234 -502h-414l-182 449h-131v-449h-404zM145 1733l144 135l311 -223l311 225l154 -137l-322 -336h-276zM504 778h164q66 0 104.5 29t38.5 88q0 55 -39.5 80.5t-99.5 25.5h-168v-223z " />
<glyph unicode="&#x159;" horiz-adv-x="899" d="M-27 1421l144 135l311 -223l311 226l154 -138l-322 -336h-276zM92 0v999h387v-141h8q49 81 125 121.5t164 40.5q60 0 127 -23l-51 -362q-122 16 -172 16q-98 0 -149.5 -41t-51.5 -147v-463h-387z" />
<glyph unicode="&#x15a;" horiz-adv-x="1249" d="M51 178l213 279q89 -74 187.5 -110t177.5 -36q70 0 105.5 24t35.5 58q0 36 -36.5 56.5t-158.5 50.5q-94 25 -161.5 49t-130.5 60t-101.5 79.5t-61 104.5t-22.5 137q0 107 44.5 191t120 134.5t169.5 76.5t199 26q145 0 284 -46.5t234 -131.5l-207 -289q-169 133 -332 133 q-55 0 -78.5 -20.5t-23.5 -51.5q0 -23 22 -40.5t52 -27.5t90 -27q6 -1 9 -2t8 -2.5t9 -2.5h1l1 -1h1h1h1l1 -1h1h1h1l2 -1q181 -49 265 -94q214 -113 214 -341q0 -111 -46 -197.5t-125 -138.5t-177 -78.5t-209 -26.5q-166 0 -324 55t-256 152zM420 1546l371 289l256 -231 l-478 -226z" />
<glyph unicode="&#x15b;" horiz-adv-x="1050" d="M61 96l121 256q192 -94 318 -94q80 0 80 45q0 27 -18.5 39.5t-80.5 30.5q-114 32 -184 62t-113 69t-59 84t-16 112q0 145 111.5 233.5t318.5 88.5q219 0 424 -102l-117 -265q-154 80 -283 80q-24 0 -38.5 -11.5t-14.5 -25.5q0 -33 78 -53q112 -29 181.5 -57t119 -67.5 t70 -92.5t20.5 -129q0 -155 -122.5 -239.5t-338.5 -84.5q-232 0 -457 121zM360 1151l168 438l338 -65l-291 -441z" />
<glyph unicode="&#x15c;" horiz-adv-x="1249" d="M51 178l213 279q89 -74 187.5 -110t177.5 -36q70 0 105.5 24t35.5 58q0 36 -36.5 56.5t-158.5 50.5q-94 25 -161.5 49t-130.5 60t-101.5 79.5t-61 104.5t-22.5 137q0 107 44.5 191t120 134.5t169.5 76.5t199 26q145 0 284 -46.5t234 -131.5l-207 -289q-169 133 -332 133 q-55 0 -78.5 -20.5t-23.5 -51.5q0 -23 22 -40.5t52 -27.5t90 -27q6 -1 9 -2t8 -2.5t9 -2.5h1l1 -1h1h1h1l1 -1h1h1h1l2 -1q181 -49 265 -94q214 -113 214 -341q0 -111 -46 -197.5t-125 -138.5t-177 -78.5t-209 -26.5q-166 0 -324 55t-256 152zM176 1503l322 336h276 l322 -336l-154 -137l-311 225l-312 -223z" />
<glyph unicode="&#x15d;" horiz-adv-x="1050" d="M61 96l121 256q192 -94 318 -94q80 0 80 45q0 27 -18.5 39.5t-80.5 30.5q-114 32 -184 62t-113 69t-59 84t-16 112q0 145 111.5 233.5t318.5 88.5q219 0 424 -102l-117 -265q-154 80 -283 80q-24 0 -38.5 -11.5t-14.5 -25.5q0 -33 78 -53q112 -29 181.5 -57t119 -67.5 t70 -92.5t20.5 -129q0 -155 -122.5 -239.5t-338.5 -84.5q-232 0 -457 121zM84 1180l322 336h276l322 -336l-154 -138l-311 226l-312 -224z" />
<glyph unicode="&#x15e;" horiz-adv-x="1249" d="M51 178l213 279q89 -74 187.5 -110t177.5 -36q70 0 105.5 24t35.5 58q0 36 -36.5 56.5t-158.5 50.5q-94 25 -161.5 49t-130.5 60t-101.5 79.5t-61 104.5t-22.5 137q0 107 44.5 191t120 134.5t169.5 76.5t199 26q145 0 284 -46.5t234 -131.5l-207 -289q-169 133 -332 133 q-55 0 -78.5 -20.5t-23.5 -51.5q0 -23 22 -40.5t52 -27.5t90 -27q6 -1 9 -2t8 -2.5t9 -2.5h1l1 -1h1h1h1l1 -1h1h1h1l2 -1q181 -49 265 -94q214 -113 214 -341q0 -111 -46 -197.5t-125 -138.5t-177 -78.5t-209 -26.5h-2l-19 -57q65 -5 113 -24.5t73 -48t36.5 -56.5t11.5 -57 q0 -33 -14.5 -67.5t-45.5 -69.5t-91.5 -57.5t-141.5 -22.5q-125 0 -234 43l48 141q89 -27 151 -27q98 0 98 62q0 22 -19.5 37.5t-49.5 15.5q-19 0 -37 -6l-72 57l49 150q-130 19 -245 69.5t-189 124.5z" />
<glyph unicode="&#x15f;" horiz-adv-x="1050" d="M61 96l121 256q192 -94 318 -94q80 0 80 45q0 27 -18.5 39.5t-80.5 30.5q-114 32 -184 62t-113 69t-59 84t-16 112q0 145 111.5 233.5t318.5 88.5q219 0 424 -102l-117 -265q-154 80 -283 80q-24 0 -38.5 -11.5t-14.5 -25.5q0 -33 78 -53q112 -29 181.5 -57t119 -67.5 t70 -92.5t20.5 -129q0 -147 -111.5 -230.5t-308.5 -91.5l-20 -63q65 -5 112.5 -24.5t72.5 -48t36.5 -56.5t11.5 -57q0 -33 -14.5 -67.5t-45.5 -69.5t-91.5 -57.5t-141.5 -22.5q-124 0 -233 43l47 141q89 -27 151 -27q99 0 99 62q0 22 -20 37.5t-50 15.5q-19 0 -37 -6l-71 57 l49 148q-194 26 -353 114z" />
<glyph unicode="&#x160;" horiz-adv-x="1249" d="M51 178l213 279q89 -74 187.5 -110t177.5 -36q70 0 105.5 24t35.5 58q0 36 -36.5 56.5t-158.5 50.5q-94 25 -161.5 49t-130.5 60t-101.5 79.5t-61 104.5t-22.5 137q0 107 44.5 191t120 134.5t169.5 76.5t199 26q145 0 284 -46.5t234 -131.5l-207 -289q-169 133 -332 133 q-55 0 -78.5 -20.5t-23.5 -51.5q0 -23 22 -40.5t52 -27.5t90 -27q6 -1 9 -2t8 -2.5t9 -2.5h1l1 -1h1h1h1l1 -1h1h1h1l2 -1q181 -49 265 -94q214 -113 214 -341q0 -111 -46 -197.5t-125 -138.5t-177 -78.5t-209 -26.5q-166 0 -324 55t-256 152zM186 1733l144 135l311 -223 l311 225l154 -137l-322 -336h-276z" />
<glyph unicode="&#x161;" horiz-adv-x="1050" d="M61 96l121 256q192 -94 318 -94q80 0 80 45q0 27 -18.5 39.5t-80.5 30.5q-114 32 -184 62t-113 69t-59 84t-16 112q0 145 111.5 233.5t318.5 88.5q219 0 424 -102l-117 -265q-154 80 -283 80q-24 0 -38.5 -11.5t-14.5 -25.5q0 -33 78 -53q112 -29 181.5 -57t119 -67.5 t70 -92.5t20.5 -129q0 -155 -122.5 -239.5t-338.5 -84.5q-232 0 -457 121zM72 1434l143 135l311 -223l312 225l153 -137l-321 -336h-277z" />
<glyph unicode="&#x162;" horiz-adv-x="1169" d="M10 1001v332h1149v-332h-373v-1001h-401v1001h-375zM410 -260q0 74 55 123t131 49q95 0 153 -59.5t58 -153.5q0 -128 -78.5 -235t-212.5 -166l-98 120q61 44 89 83.5t40 86.5q-59 6 -98 45.5t-39 106.5z" />
<glyph unicode="&#x163;" horiz-adv-x="899" d="M31 735v264h153v234l385 135v-369h217v-264h-217v-270q0 -90 24 -122t103 -32q52 0 115 8l27 -305q-163 -41 -322 -41q-167 0 -251.5 78t-84.5 260v424h-149zM254 -260q0 74 55 123t131 49q95 0 153 -59.5t58 -153.5q0 -128 -78.5 -235t-212.5 -166l-98 120 q61 44 89 83.5t40 86.5q-59 6 -98 45.5t-39 106.5z" />
<glyph unicode="&#x164;" horiz-adv-x="1169" d="M10 1001v332h1149v-332h-373v-1001h-401v1001h-375zM129 1737l143 135l312 -223l311 225l154 -137l-322 -336h-276z" />
<glyph unicode="&#x165;" horiz-adv-x="1064" d="M33 735v264h153v234l385 135v-369h217v-264h-217v-270q0 -90 24 -122t103 -32q52 0 115 8l27 -305q-163 -41 -322 -41q-167 0 -251.5 78t-84.5 260v424h-149zM713 1470q0 74 55 123t131 49q96 0 153.5 -59.5t57.5 -152.5q0 -128 -78.5 -235.5t-212.5 -166.5l-98 121 q61 44 89 83.5t40 86.5q-59 6 -98 45t-39 106z" />
<glyph unicode="&#x166;" horiz-adv-x="1169" d="M10 1001v332h1149v-332h-373v-241h336v-187h-336v-573h-401v573h-332v187h332v241h-375z" />
<glyph unicode="&#x167;" horiz-adv-x="899" d="M51 735v264h154v234l385 135v-369h217v-264h-217v-114h184v-172h-184q2 -79 26.5 -108.5t100.5 -29.5q51 0 114 8l27 -305q-163 -41 -321 -41q-167 0 -251.5 78t-84.5 260v138h-133v172h133v114h-150z" />
<glyph unicode="&#x168;" horiz-adv-x="1402" d="M102 571v762h402v-741q0 -130 51.5 -198t144.5 -68q95 0 146 66t51 194v747h403v-762q0 -195 -78 -329.5t-212 -198t-314 -63.5q-272 0 -433 151.5t-161 439.5zM244 1503q51 153 131.5 223t171.5 70q52 0 122 -27t132.5 -54t97.5 -27q31 0 56 20t67 74l156 -72 q-95 -289 -308 -289q-48 0 -167 55.5t-160 55.5q-34 0 -64.5 -22t-72.5 -83z" />
<glyph unicode="&#x169;" horiz-adv-x="1200" d="M92 381v618h387v-530q0 -92 29.5 -127t79.5 -35q93 0 121 94q12 40 12 97v501h387v-999h-387v100h-8q-120 -123 -269 -123q-189 0 -270.5 102.5t-81.5 301.5zM143 1196q51 153 131.5 223t171.5 70q52 0 122 -27.5t133 -54.5t98 -27q31 0 56 20.5t67 74.5l155 -72 q-95 -289 -307 -289q-48 0 -167.5 55.5t-160.5 55.5q-34 0 -64.5 -22t-72.5 -83z" />
<glyph unicode="&#x16a;" horiz-adv-x="1402" d="M102 571v762h402v-741q0 -130 51.5 -198t144.5 -68q95 0 146 66t51 194v747h403v-762q0 -195 -78 -329.5t-212 -198t-314 -63.5q-272 0 -433 151.5t-161 439.5zM389 1466v269h623v-269h-623z" />
<glyph unicode="&#x16b;" horiz-adv-x="1200" d="M92 381v618h387v-530q0 -92 29.5 -127t79.5 -35q93 0 121 94q12 40 12 97v501h387v-999h-387v100h-8q-120 -123 -269 -123q-189 0 -270.5 102.5t-81.5 301.5zM297 1139v268h623v-268h-623z" />
<glyph unicode="&#x16c;" horiz-adv-x="1402" d="M102 571v762h402v-741q0 -130 51.5 -198t144.5 -68q95 0 146 66t51 194v747h403v-762q0 -195 -78 -329.5t-212 -198t-314 -63.5q-272 0 -433 151.5t-161 439.5zM285 1806h256q11 -66 53 -107.5t104 -41.5q63 0 101.5 47t38.5 102h266q0 -49 -12 -99.5t-42 -104t-74.5 -95 t-116.5 -68t-161 -26.5q-91 0 -165 26.5t-119 67.5t-75 95t-42 104.5t-12 99.5z" />
<glyph unicode="&#x16d;" horiz-adv-x="1200" d="M92 381v618h387v-530q0 -92 29.5 -127t79.5 -35q93 0 121 94q12 40 12 97v501h387v-999h-387v100h-8q-120 -123 -269 -123q-189 0 -270.5 102.5t-81.5 301.5zM172 1479h256q11 -66 53.5 -108t104.5 -42q63 0 101 47.5t38 102.5h266q0 -49 -12 -99.5t-41.5 -104.5 t-74 -95.5t-116.5 -68t-161 -26.5q-91 0 -165 26.5t-119 68t-75.5 95.5t-42.5 104.5t-12 99.5z" />
<glyph unicode="&#x16e;" horiz-adv-x="1402" d="M102 571v762h402v-741q0 -130 51.5 -198t144.5 -68q95 0 146 66t51 194v747h403v-762q0 -195 -78 -329.5t-212 -198t-314 -63.5q-272 0 -433 151.5t-161 439.5zM420 1595q0 112 80.5 188.5t193.5 76.5t192 -76.5t79 -188.5t-79 -187t-192 -75q-115 0 -194.5 73.5 t-79.5 188.5zM604 1597q0 -45 23 -70.5t67 -25.5q37 0 63.5 26.5t26.5 69.5q0 41 -24 69t-66 28t-66 -29t-24 -68z" />
<glyph unicode="&#x16f;" horiz-adv-x="1200" d="M92 381v618h387v-530q0 -92 29.5 -127t79.5 -35q93 0 121 94q12 40 12 97v501h387v-999h-387v100h-8q-120 -123 -269 -123q-189 0 -270.5 102.5t-81.5 301.5zM326 1358q0 112 80.5 188t193.5 76t191.5 -76t78.5 -188t-78.5 -187t-191.5 -75q-115 0 -194.5 73.5 t-79.5 188.5zM510 1360q0 -45 23 -70.5t67 -25.5q37 0 63.5 26.5t26.5 69.5q0 40 -24 68t-66 28t-66 -28.5t-24 -67.5z" />
<glyph unicode="&#x170;" horiz-adv-x="1402" d="M102 571v762h402v-741q0 -130 51.5 -198t144.5 -68q95 0 146 66t51 194v747h403v-762q0 -195 -78 -329.5t-212 -198t-314 -63.5q-272 0 -433 151.5t-161 439.5zM246 1542l321 342l289 -190l-436 -295zM721 1511l321 342l289 -190l-436 -295z" />
<glyph unicode="&#x171;" horiz-adv-x="1200" d="M92 381v618h387v-530q0 -92 29.5 -127t79.5 -35q93 0 121 94q12 40 12 97v501h387v-999h-387v100h-8q-120 -123 -269 -123q-189 0 -270.5 102.5t-81.5 301.5zM213 1161l168 438l338 -65l-291 -440zM627 1145l168 438l338 -65l-291 -441z" />
<glyph unicode="&#x172;" horiz-adv-x="1402" d="M102 571v762h402v-741q0 -130 51.5 -198t144.5 -68q95 0 146 66t51 194v747h403v-762q0 -274 -146 -423.5t-396 -165.5q-49 -85 -49 -158q0 -49 41.5 -70.5t95.5 -18t106 22.5l52 -166q-47 -25 -118.5 -41t-131.5 -16q-113 0 -183.5 60.5t-70.5 158.5q0 120 94 232 q-229 27 -360.5 176t-131.5 409z" />
<glyph unicode="&#x173;" horiz-adv-x="1200" d="M92 381v618h387v-530q0 -92 29.5 -127t79.5 -35q93 0 121 94q12 40 12 97v501h387v-999h-227q-62 -91 -62 -176q0 -49 42 -70.5t96 -18t106 22.5l51 -166q-47 -25 -118.5 -41t-131.5 -16q-113 0 -183.5 60.5t-70.5 158.5q0 129 111 248v98h-8q-120 -123 -269 -123 q-189 0 -270.5 102.5t-81.5 301.5z" />
<glyph unicode="&#x174;" horiz-adv-x="1908" d="M10 1333h436l78 -426l66 -387h8l76 391l88 422h391l88 -426l76 -387h8l68 395l75 418h437l-334 -1333h-412l-86 346l-115 483h-4l-110 -469l-88 -360h-412zM498 1501l321 336h277l321 -336l-153 -137l-312 225l-311 -223z" />
<glyph unicode="&#x175;" horiz-adv-x="1697" d="M8 1001h393l66 -360l47 -283h6l66 281l82 362h366l78 -366l57 -285h7q8 44 26.5 149.5t28.5 155.5l65 346h392l-299 -1001h-416l-62 262l-67 289h-6l-66 -283l-67 -268h-416zM383 1180l322 336h276l322 -336l-154 -138l-311 226l-312 -224z" />
<glyph unicode="&#x176;" horiz-adv-x="1431" d="M4 1333h432l142 -293q119 -248 141 -297q36 80 145 308l135 282h428l-509 -891v-442h-404v438zM262 1503l322 336h276l322 -336l-154 -137l-311 225l-311 -223z" />
<glyph unicode="&#x177;" horiz-adv-x="1185" d="M8 999h391l99 -323l90 -330h8l96 330l99 323h385l-512 -1405h-388l127 351zM147 1180l322 336h276l322 -336l-154 -138l-311 226l-311 -224z" />
<glyph unicode="&#x178;" horiz-adv-x="1431" d="M4 1333h432l142 -293q119 -248 141 -297q36 80 145 308l135 282h428l-509 -891v-442h-404v438zM305 1593q0 73 54 126t126 53q71 0 124 -53t53 -126q0 -69 -53.5 -121.5t-123.5 -52.5q-72 0 -126 52.5t-54 121.5zM791 1593q0 73 53 126t127 53q71 0 122.5 -53t51.5 -126 q0 -69 -52 -121.5t-122 -52.5q-73 0 -126.5 52.5t-53.5 121.5z" />
<glyph unicode="&#x179;" horiz-adv-x="1226" d="M61 0v293l613 708h-574v332h1055v-299l-618 -702h628v-332h-1104zM430 1546l371 289l256 -231l-477 -226z" />
<glyph unicode="&#x17a;" horiz-adv-x="1036" d="M51 0v283l459 438h-438v280h889v-280l-480 -438h504v-283h-934zM352 1145l168 438l338 -65l-291 -441z" />
<glyph unicode="&#x17b;" horiz-adv-x="1226" d="M61 0v293l613 708h-574v332h1055v-299l-618 -702h628v-332h-1104zM471 1595q0 79 56.5 136t136.5 57q79 0 135.5 -56.5t56.5 -136.5q0 -79 -56 -135.5t-136 -56.5t-136.5 56.5t-56.5 135.5z" />
<glyph unicode="&#x17c;" horiz-adv-x="1036" d="M51 0v283l459 438h-438v280h889v-280l-480 -438h504v-283h-934zM356 1300q0 80 57 136.5t136 56.5t135.5 -56.5t56.5 -136.5t-56.5 -136t-135.5 -56q-80 0 -136.5 56.5t-56.5 135.5z" />
<glyph unicode="&#x17d;" horiz-adv-x="1226" d="M61 0v293l613 708h-574v332h1055v-299l-618 -702h628v-332h-1104zM182 1733l144 135l311 -223l311 225l154 -137l-322 -336h-276z" />
<glyph unicode="&#x17e;" horiz-adv-x="1036" d="M51 0v283l459 438h-438v280h889v-280l-480 -438h504v-283h-934zM70 1434l143 135l311 -223l312 225l153 -137l-321 -336h-277z" />
<glyph unicode="&#x192;" horiz-adv-x="1351" d="M115 -139l92 289q102 -35 150.5 -5t72.5 158q27 147 49 313h-149v275h190q10 64 19 110t26 103.5t38.5 97.5t55 81.5t76 66.5t102 41t132.5 16q59 0 138.5 -15.5t131.5 -41.5l-90 -295q-56 20 -105 20q-74 0 -106 -43.5t-49 -140.5h182v-275h-219l-55 -366 q-12 -83 -28.5 -145t-47 -122.5t-73 -99.5t-108.5 -62.5t-151 -23.5q-56 0 -134.5 17.5t-139.5 46.5z" />
<glyph unicode="&#x1a0;" horiz-adv-x="1427" d="M82 662q0 326 159.5 510t469.5 184q174 0 305 -64q85 2 116 44.5t31 160.5v76h269v-109q0 -118 -56.5 -211t-154.5 -139q116 -174 116 -450q0 -325 -160 -507t-472 -182q-306 0 -464.5 184t-158.5 503zM498 670q0 -160 54 -254t159 -94q72 0 120.5 49.5t68.5 124.5 t20 172q0 155 -52 247.5t-163 92.5q-104 0 -155.5 -95t-51.5 -243z" />
<glyph unicode="&#x1a1;" horiz-adv-x="1236" d="M82 496q0 243 143.5 384.5t392.5 141.5q158 0 287 -66q66 7 91.5 52t25.5 151v76h260v-109q0 -121 -50 -213t-145 -135q68 -123 68 -280q0 -242 -145 -382.5t-396 -140.5q-247 0 -389.5 142t-142.5 379zM477 498q0 -219 141 -219q72 0 106 58.5t34 158.5q0 223 -144 223 q-70 0 -103.5 -60.5t-33.5 -160.5z" />
<glyph unicode="&#x1af;" horiz-adv-x="1642" d="M102 571v762h402v-741q0 -130 51.5 -198t144.5 -68q95 0 146 66t51 194v747h403v-57q68 8 94.5 53t26.5 152v88h252v-121q0 -167 -100 -282t-260 -115h-13v-480q0 -195 -78 -329.5t-212 -198t-314 -63.5q-272 0 -433 151.5t-161 439.5z" />
<glyph unicode="&#x1b0;" horiz-adv-x="1452" d="M92 381v618h387v-530q0 -92 29.5 -127t79.5 -35q93 0 121 94q12 40 12 97v501h387v-43q60 9 84.5 54.5t24.5 148.5v76h260v-109q0 -170 -95.5 -275.5t-273.5 -105.5v-745h-387v100h-8q-120 -123 -269 -123q-189 0 -270.5 102.5t-81.5 301.5z" />
<glyph unicode="&#x1fc;" horiz-adv-x="2084" d="M-4 0l764 1333h1243v-332h-563v-155h362v-332h-362v-182h583v-332h-1028v248h-397l-141 -248h-461zM745 532h250v469h-2zM1077 1546l371 289l256 -231l-477 -226z" />
<glyph unicode="&#x1fd;" horiz-adv-x="1740" d="M61 303q0 82 34 147t90 104t122 59t137 20q130 0 226 -33v31q0 47 -38.5 72.5t-109.5 25.5q-135 0 -280 -51l-82 268q90 37 213 57.5t231 20.5q189 0 301 -70q123 68 287 68q104 0 185.5 -26.5t135.5 -73t89.5 -113t51 -143.5t15.5 -168v-86h-602q5 -71 46.5 -104.5 t135.5 -33.5q105 0 260 48l107 -252q-202 -93 -410 -93q-279 0 -379 119q-153 -127 -372 -127q-187 0 -290.5 85t-103.5 249zM459 324q0 -35 28 -52.5t70 -17.5q32 0 75.5 9.5t65.5 23.5q-7 20 -20 88q-47 28 -119 28q-44 0 -72 -19t-28 -60zM735 1145l168 438l338 -65 l-291 -441zM1067 602h217q-5 67 -27.5 101t-82.5 34q-46 0 -75 -34t-32 -101z" />
<glyph unicode="&#x1fe;" horiz-adv-x="1419" d="M82 662q0 326 159.5 510t469.5 184q242 0 397 -121l111 135l96 -80l-117 -143q139 -180 139 -483q0 -325 -160 -507t-472 -182q-233 0 -386 109l-96 -117l-96 80l102 125q-147 178 -147 490zM498 670q0 -91 14 -154l344 416q-57 76 -151 76q-104 0 -155.5 -95t-51.5 -243 zM532 1546l371 289l256 -231l-477 -226zM569 387q55 -65 142 -65q72 0 120.5 49.5t68.5 124.5t20 172q0 56 -11 131z" />
<glyph unicode="&#x1ff;" horiz-adv-x="1236" d="M82 496q0 243 143.5 384.5t392.5 141.5q184 0 314 -82l76 88l82 -67l-74 -87q139 -142 139 -376q0 -242 -145 -382.5t-396 -140.5q-174 0 -303 74l-73 -86l-82 72l69 82q-143 140 -143 379zM459 1145l168 438l338 -65l-291 -441zM477 498q0 -44 6 -82l226 262 q-35 41 -95 41q-70 0 -103.5 -60.5t-33.5 -160.5zM532 309q34 -30 86 -30q72 0 106 58.5t34 158.5q0 39 -6 69z" />
<glyph unicode="&#x218;" horiz-adv-x="1249" d="M51 178l213 279q89 -74 187.5 -110t177.5 -36q70 0 105.5 24t35.5 58q0 36 -36.5 56.5t-158.5 50.5q-94 25 -161.5 49t-130.5 60t-101.5 79.5t-61 104.5t-22.5 137q0 107 44.5 191t120 134.5t169.5 76.5t199 26q145 0 284 -46.5t234 -131.5l-207 -289q-169 133 -332 133 q-55 0 -78.5 -20.5t-23.5 -51.5q0 -23 22 -40.5t52 -27.5t90 -27q6 -1 9 -2t8 -2.5t9 -2.5h1l1 -1h1h1h1l1 -1h1h1h1l2 -1q181 -49 265 -94q214 -113 214 -341q0 -111 -46 -197.5t-125 -138.5t-177 -78.5t-209 -26.5q-166 0 -324 55t-256 152zM457 -260q0 74 55 123t131 49 q95 0 153 -59.5t58 -153.5q0 -128 -78.5 -235t-212.5 -166l-98 120q61 44 89 83.5t40 86.5q-59 6 -98 45.5t-39 106.5z" />
<glyph unicode="&#x219;" horiz-adv-x="1050" d="M61 96l121 256q192 -94 318 -94q80 0 80 45q0 27 -18.5 39.5t-80.5 30.5q-114 32 -184 62t-113 69t-59 84t-16 112q0 145 111.5 233.5t318.5 88.5q219 0 424 -102l-117 -265q-154 80 -283 80q-24 0 -38.5 -11.5t-14.5 -25.5q0 -33 78 -53q112 -29 181.5 -57t119 -67.5 t70 -92.5t20.5 -129q0 -155 -122.5 -239.5t-338.5 -84.5q-232 0 -457 121zM328 -260q0 74 55 123t131 49q95 0 153 -59.5t58 -153.5q0 -128 -78.5 -235t-212.5 -166l-98 120q61 44 89 83.5t40 86.5q-59 6 -98 45.5t-39 106.5z" />
<glyph unicode="&#x259;" horiz-adv-x="1142" d="M61 502v86h603q-5 71 -47 104t-136 33q-108 0 -260 -47l-88 258q109 50 198 68t193 18q142 0 247.5 -38t167.5 -109t92 -163.5t30 -209.5q0 -240 -138 -382.5t-384 -142.5q-129 0 -223.5 40t-149 113t-80 165t-25.5 207zM446 397q5 -67 27.5 -101t83.5 -34q46 0 75 33.5 t32 101.5h-218z" />
<glyph unicode="&#x2b9;" horiz-adv-x="571" d="M10 823l301 674l336 -63l-424 -680z" />
<glyph unicode="&#x2c6;" horiz-adv-x="1120" d="M106 1180l322 336h277l321 -336l-154 -138l-311 226l-311 -224z" />
<glyph unicode="&#x2c7;" horiz-adv-x="1017" d="M63 1421l144 135l311 -223l311 226l154 -138l-321 -336h-277z" />
<glyph unicode="&#x2d8;" horiz-adv-x="1110" d="M147 1479h256q11 -66 53.5 -108t104.5 -42q63 0 101 47.5t38 102.5h267q0 -49 -12 -99.5t-42 -104.5t-74.5 -95.5t-116.5 -68t-161 -26.5q-91 0 -165 26.5t-119 68t-75.5 95.5t-42.5 104.5t-12 99.5z" />
<glyph unicode="&#x2d9;" horiz-adv-x="931" d="M281 1300q0 80 56.5 136.5t135.5 56.5t136 -56.5t57 -136.5q0 -79 -56.5 -135.5t-136.5 -56.5q-79 0 -135.5 56t-56.5 136z" />
<glyph unicode="&#x2da;" horiz-adv-x="1079" d="M291 1358q0 112 80.5 188t193.5 76t192 -76t79 -188t-79 -187t-192 -75q-115 0 -194.5 73.5t-79.5 188.5zM475 1360q0 -45 23 -70.5t67 -25.5q37 0 63.5 26.5t26.5 69.5q0 40 -24 68t-66 28t-66 -28.5t-24 -67.5z" />
<glyph unicode="&#x2db;" horiz-adv-x="745" d="M129 -250q0 55 29 125.5t96 138.5h154v-6q-70 -104 -70 -188q0 -49 42 -70.5t96 -18t106 22.5l51 -166q-47 -25 -118.5 -41t-131.5 -16q-113 0 -183.5 60.5t-70.5 158.5z" />
<glyph unicode="&#x2dc;" horiz-adv-x="1120" d="M111 1196q51 153 131.5 223t171.5 70q52 0 122 -27.5t132.5 -54.5t97.5 -27q31 0 56 20.5t67 74.5l155 -72q-95 -289 -307 -289q-48 0 -167 55.5t-160 55.5q-35 0 -65.5 -22t-72.5 -83z" />
<glyph unicode="&#x2dd;" horiz-adv-x="1327" d="M352 1161l168 438l338 -65l-291 -440zM766 1145l168 438l338 -65l-291 -441z" />
<glyph unicode="&#x384;" horiz-adv-x="1069" d="M389 1161l168 438l338 -65l-291 -440z" />
<glyph unicode="&#x385;" horiz-adv-x="1193" d="M35 1282q0 73 53.5 125.5t126.5 52.5q71 0 123.5 -52.5t52.5 -125.5q0 -69 -53 -121.5t-123 -52.5q-72 0 -126 52.5t-54 121.5zM406 1145l139 448l342 -43l-262 -458zM811 1282q0 73 53 125.5t127 52.5q71 0 122.5 -52.5t51.5 -125.5q0 -69 -52 -121.5t-122 -52.5 q-73 0 -126.5 52.5t-53.5 121.5z" />
<glyph unicode="&#x386;" horiz-adv-x="1402" d="M-139 997l168 439l338 -66l-291 -440zM-8 0l477 1333h473l475 -1333h-430l-76 248h-430l-73 -248h-416zM569 532h256l-59 199l-66 230h-6l-67 -236z" />
<glyph unicode="&#x387;" horiz-adv-x="645" d="M123 694q0 55 20 96.5t51.5 64t65.5 33.5t68 11q87 0 140.5 -58.5t53.5 -144.5t-57.5 -145t-140.5 -59q-85 0 -143 58t-58 144z" />
<glyph unicode="&#x388;" horiz-adv-x="1212" d="M-442 997l168 439l337 -66l-290 -440zM102 0v1333h1049v-332h-645v-161h444v-320h-444v-188h665v-332h-1069z" />
<glyph unicode="&#x389;" horiz-adv-x="1411" d="M-424 997l168 439l338 -66l-291 -440zM102 0v1333h402v-491h403v491h402v-1333h-402v512h-403v-512h-402z" />
<glyph unicode="&#x38a;" horiz-adv-x="649" d="M-406 997l168 439l338 -66l-290 -440zM123 0v1333h403v-1333h-403z" />
<glyph unicode="&#x38c;" horiz-adv-x="1419" d="M-317 997l167 439l338 -66l-290 -440zM82 662q0 326 159.5 510t469.5 184q308 0 467 -184.5t159 -507.5q0 -325 -160 -507t-472 -182q-306 0 -464.5 184t-158.5 503zM498 670q0 -160 54 -254t159 -94q72 0 120.5 49.5t68.5 124.5t20 172q0 155 -52 247.5t-163 92.5 q-104 0 -155.5 -95t-51.5 -243z" />
<glyph unicode="&#x38e;" horiz-adv-x="1431" d="M-514 997l168 439l338 -66l-291 -440zM4 1333h432l142 -293q119 -248 141 -297q36 80 145 308l135 282h428l-509 -891v-442h-404v438z" />
<glyph unicode="&#x38f;" horiz-adv-x="1468" d="M-281 997l168 439l338 -66l-291 -440zM92 0v330h148q-58 50 -92.5 147t-34.5 203q0 313 164.5 494.5t461.5 181.5q295 0 463 -175t168 -472q0 -94 -36 -204.5t-99 -172.5h141v-332h-577v317q162 57 162 340q0 164 -55.5 257.5t-166.5 93.5q-103 0 -160 -90.5t-57 -235.5 q0 -150 34 -238.5t122 -121.5v-322h-586z" />
<glyph unicode="&#x390;" horiz-adv-x="856" d="M-150 1282q0 73 54 125.5t127 52.5q71 0 123.5 -52.5t52.5 -125.5q0 -69 -53 -121.5t-123 -52.5q-72 0 -126.5 52.5t-54.5 121.5zM221 1145l139 448l342 -43l-262 -458zM225 0v1001h387v-1001h-387zM627 1282q0 73 53 125.5t127 52.5q71 0 122.5 -52.5t51.5 -125.5 q0 -69 -52 -121.5t-122 -52.5q-73 0 -126.5 52.5t-53.5 121.5z" />
<glyph unicode="&#x391;" horiz-adv-x="1445" d="M10 0l477 1333h474l475 -1333h-430l-76 248h-430l-74 -248h-416zM588 532h256l-60 199l-65 230h-6l-68 -236z" />
<glyph unicode="&#x392;" horiz-adv-x="1314" d="M102 0v1333h656q208 0 322 -86t114 -250q0 -92 -55 -165.5t-135 -102.5v-6q97 -27 168 -114t71 -193q0 -199 -126 -307.5t-365 -108.5h-650zM506 322h182q139 0 139 116q0 105 -145 105h-176v-221zM506 836h164q54 0 83 23t29 65q0 84 -98 84h-178v-172z" />
<glyph unicode="&#x393;" horiz-adv-x="1167" d="M102 0v1333h1037v-332h-633v-1001h-404z" />
<glyph unicode="&#x394;" horiz-adv-x="1439" d="M6 0l477 1333h473l476 -1333h-1426zM524 330h369l-113 401l-65 230h-6l-68 -236z" />
<glyph unicode="&#x395;" horiz-adv-x="1212" d="M102 0v1333h1049v-332h-645v-161h444v-320h-444v-188h665v-332h-1069z" />
<glyph unicode="&#x396;" horiz-adv-x="1226" d="M61 0v293l613 708h-574v332h1055v-299l-618 -702h628v-332h-1104z" />
<glyph unicode="&#x397;" horiz-adv-x="1411" d="M102 0v1333h402v-491h403v491h402v-1333h-402v512h-403v-512h-402z" />
<glyph unicode="&#x398;" horiz-adv-x="1419" d="M82 662q0 326 159.5 510t469.5 184q308 0 467 -184.5t159 -507.5q0 -325 -160 -507t-472 -182q-306 0 -464.5 184t-158.5 503zM498 670q0 -160 54 -254t159 -94q72 0 120.5 49.5t68.5 124.5t20 172q0 155 -52 247.5t-163 92.5q-104 0 -155.5 -95t-51.5 -243zM561 537v251 h295v-251h-295z" />
<glyph unicode="&#x399;" horiz-adv-x="649" d="M123 0v1333h403v-1333h-403z" />
<glyph unicode="&#x39a;" horiz-adv-x="1361" d="M102 0v1333h400v-475h6l377 475h448l-405 -485l444 -848h-446l-262 532l-162 -192v-340h-400z" />
<glyph unicode="&#x39b;" horiz-adv-x="1441" d="M6 0l477 1333h473l476 -1333h-431l-167 555l-119 406h-6l-119 -416l-168 -545h-416z" />
<glyph unicode="&#x39c;" horiz-adv-x="1636" d="M102 0v1333h390l153 -280q22 -42 80.5 -149.5t87.5 -164.5h12q19 39 166 316l150 278h393v-1333h-393v578h-8q-35 -66 -140 -259l-178 -321l-178 324q-21 41 -67.5 126t-69.5 130h-8v-578h-390z" />
<glyph unicode="&#x39d;" horiz-adv-x="1431" d="M96 0v1333h369l240 -332q180 -263 225 -331h8v663h397v-1333h-350l-274 383l-213 317h-6v-700h-396z" />
<glyph unicode="&#x39e;" horiz-adv-x="1226" d="M51 0v332h348v186h-194v324h194v159h-327v332h1083v-332h-350v-159h194v-324h-194v-186h371v-332h-1125z" />
<glyph unicode="&#x39f;" horiz-adv-x="1419" d="M82 662q0 326 159.5 510t469.5 184q308 0 467 -184.5t159 -507.5q0 -325 -160 -507t-472 -182q-306 0 -464.5 184t-158.5 503zM498 670q0 -160 54 -254t159 -94q72 0 120.5 49.5t68.5 124.5t20 172q0 155 -52 247.5t-163 92.5q-104 0 -155.5 -95t-51.5 -243z" />
<glyph unicode="&#x3a0;" horiz-adv-x="1411" d="M102 0v1333h1207v-1333h-402v999h-403v-999h-402z" />
<glyph unicode="&#x3a1;" horiz-adv-x="1230" d="M102 0v1333h629q107 0 195.5 -27.5t154.5 -81t103 -139.5t37 -196q0 -219 -140 -340t-366 -121h-209v-428h-404zM504 758h135q37 0 62 4t50 16t37.5 38t12.5 67q0 37 -14 62t-39 36.5t-49.5 15.5t-55.5 4h-139v-243z" />
<glyph unicode="&#x3a3;" horiz-adv-x="1226" d="M61 0v293l338 395l-319 346v299h1063v-332h-582l287 -313l-311 -356h628v-332h-1104z" />
<glyph unicode="&#x3a4;" horiz-adv-x="1169" d="M10 1001v332h1149v-332h-373v-1001h-401v1001h-375z" />
<glyph unicode="&#x3a5;" horiz-adv-x="1431" d="M4 1333h432l142 -293q119 -248 141 -297q36 80 145 308l135 282h428l-509 -891v-442h-404v438z" />
<glyph unicode="&#x3a6;" horiz-adv-x="1687" d="M72 678q0 153 77 278.5t204 201t284 97.5v80h403v-78q257 -30 416.5 -184.5t159.5 -392.5q0 -237 -157 -391.5t-419 -184.5v-104h-403v106q-251 30 -408 183.5t-157 388.5zM465 674q0 -100 39 -166t133 -94v524q-172 -68 -172 -264zM1040 408q51 10 88 37.5t56.5 66.5 t28 80t8.5 88q0 213 -181 264v-536z" />
<glyph unicode="&#x3a7;" horiz-adv-x="1306" d="M0 0l434 682l-411 651h436l194 -368l199 368h430l-416 -647l437 -686h-437l-217 406l-217 -406h-432z" />
<glyph unicode="&#x3a8;" horiz-adv-x="1748" d="M92 926v407h385v-428q0 -120 52.5 -196t138.5 -97v721h401v-721q85 10 143 85.5t58 201.5v434h387v-407q0 -145 -43.5 -263.5t-122 -199.5t-186 -128t-236.5 -56v-279h-399v279q-259 12 -418.5 186t-159.5 461z" />
<glyph unicode="&#x3a9;" horiz-adv-x="1468" d="M92 0v330h148q-58 50 -92.5 147t-34.5 203q0 313 164.5 494.5t461.5 181.5q295 0 463 -175t168 -472q0 -94 -36 -204.5t-99 -172.5h141v-332h-577v317q162 57 162 340q0 164 -55.5 257.5t-166.5 93.5q-103 0 -160 -90.5t-57 -235.5q0 -150 34 -238.5t122 -121.5v-322 h-586z" />
<glyph unicode="&#x3aa;" horiz-adv-x="649" d="M-90 1575q0 73 53.5 125.5t126.5 52.5q71 0 123.5 -52.5t52.5 -125.5q0 -69 -53 -121.5t-123 -52.5q-72 0 -126 52.5t-54 121.5zM123 0v1333h403v-1333h-403zM395 1575q0 73 53 125.5t127 52.5q71 0 123 -52.5t52 -125.5q0 -69 -52.5 -121.5t-122.5 -52.5 q-73 0 -126.5 52.5t-53.5 121.5z" />
<glyph unicode="&#x3ab;" horiz-adv-x="1431" d="M4 1333h432l142 -293q119 -248 141 -297q36 80 145 308l135 282h428l-509 -891v-442h-404v438zM299 1573q0 73 53.5 125.5t126.5 52.5q71 0 123.5 -52.5t52.5 -125.5q0 -69 -53 -121.5t-123 -52.5q-72 0 -126 52.5t-54 121.5zM784 1573q0 73 53.5 125.5t127.5 52.5 q71 0 122.5 -52.5t51.5 -125.5q0 -69 -52 -121.5t-122 -52.5q-73 0 -127 52.5t-54 121.5z" />
<glyph unicode="&#x3ac;" horiz-adv-x="1218" d="M82 479q0 135 30.5 239.5t85 170t126 98.5t157.5 33q68 0 139.5 -30.5t114.5 -76.5l6 2v86h385v-1001h-335l-37 88h-9q-114 -106 -272 -106q-79 0 -148.5 31t-124.5 90.5t-86.5 156t-31.5 219.5zM471 1161l168 438l338 -65l-291 -440zM485 494q0 -199 121 -199 q31 0 67 15t64 42v291q-54 59 -131 59q-55 0 -88 -53t-33 -155z" />
<glyph unicode="&#x3ad;" horiz-adv-x="1034" d="M82 270q0 66 34.5 127.5t112.5 98.5q-76 24 -110.5 81.5t-34.5 114.5q0 106 66 183.5t166.5 114t218.5 36.5q125 0 238.5 -39.5t184.5 -114.5l-190 -227q-84 84 -184 84q-45 0 -68.5 -16.5t-23.5 -44.5q0 -21 16.5 -35.5t44.5 -14.5h94v-229h-92q-33 0 -50.5 -14.5 t-17.5 -38.5t21 -43t72 -19q107 0 219 101l205 -230q-81 -83 -209 -127.5t-267 -44.5q-121 0 -219 30t-162.5 99t-64.5 168zM352 1161l168 438l338 -65l-291 -440z" />
<glyph unicode="&#x3ae;" horiz-adv-x="1202" d="M92 0v999h387v-100h8q48 55 125 89t142 34q366 0 366 -416v-606h-387v530q0 162 -115 162q-98 0 -126 -94q-13 -44 -13 -96v-502h-387zM399 1161l168 438l338 -65l-291 -440z" />
<glyph unicode="&#x3af;" horiz-adv-x="632" d="M123 0v1001h387v-1001h-387zM182 1161l168 438l338 -65l-291 -440z" />
<glyph unicode="&#x3b0;" horiz-adv-x="1218" d="M49 1282q0 73 53.5 125.5t126.5 52.5q71 0 124 -52.5t53 -125.5q0 -69 -53.5 -121.5t-123.5 -52.5q-72 0 -126 52.5t-54 121.5zM92 449v552h387v-552q0 -170 127 -170q135 0 135 170v552l385 -2v-550q0 -224 -137.5 -349t-378.5 -125q-240 0 -379 124.5t-139 349.5z M420 1145l139 448l342 -43l-262 -458zM825 1282q0 73 53.5 125.5t127.5 52.5q71 0 122.5 -52.5t51.5 -125.5q0 -69 -52 -121.5t-122 -52.5q-73 0 -127 52.5t-54 121.5z" />
<glyph unicode="&#x3b1;" horiz-adv-x="1218" d="M82 479q0 135 30.5 239.5t85 170t126 98.5t157.5 33q68 0 139.5 -30.5t114.5 -76.5l6 2v86h385v-1001h-335l-37 88h-9q-114 -106 -272 -106q-79 0 -148.5 31t-124.5 90.5t-86.5 156t-31.5 219.5zM485 494q0 -199 121 -199q31 0 67 15t64 42v291q-54 59 -131 59 q-55 0 -88 -53t-33 -155z" />
<glyph unicode="&#x3b2;" horiz-adv-x="1208" d="M92 -457v1448q0 111 36 201.5t99 150t149 91.5t187 32q114 0 205.5 -34.5t148 -91t86 -126t29.5 -143.5q0 -70 -35 -141.5t-100 -116.5q119 -49 179.5 -151t60.5 -226q0 -86 -26 -165.5t-74.5 -144.5t-128 -104.5t-177.5 -39.5q-60 0 -128.5 20t-115.5 55h-6v-381z M481 342q18 -20 56 -34.5t65 -14.5q62 0 100.5 48t38.5 132q0 90 -44.5 141.5t-123.5 51.5h-43v231q152 12 152 145q0 49 -29.5 84t-83.5 35q-40 0 -64 -36t-24 -95v-688z" />
<glyph unicode="&#x3b3;" horiz-adv-x="1150" d="M10 999h396l86 -288l90 -338h4l88 334l86 292h383l-375 -976v-347l-389 -133v508z" />
<glyph unicode="&#x3b4;" horiz-adv-x="1218" d="M82 465q0 117 61 239.5t179 192.5q-148 92 -148 244t117.5 239.5t316.5 87.5q229 0 426 -102l-114 -266q-162 86 -269 86q-29 0 -46 -12t-17 -31q0 -8 3.5 -16t11.5 -15.5t16 -14t22.5 -15t25 -14t29.5 -15.5t31 -17q51 -28 90 -51.5t84 -56t77.5 -64t64 -73.5t51 -87 t31.5 -101.5t12 -119.5q0 -228 -139.5 -368t-387.5 -140q-243 0 -385.5 134.5t-142.5 355.5zM469 469q0 -93 36.5 -143t100.5 -50q69 0 104 56.5t35 132.5q0 92 -31.5 154t-107.5 112q-57 -39 -97 -109t-40 -153z" />
<glyph unicode="&#x3b5;" horiz-adv-x="1034" d="M82 270q0 66 34.5 127.5t112.5 98.5q-76 24 -110.5 81.5t-34.5 114.5q0 106 66 183.5t166.5 114t218.5 36.5q125 0 238.5 -39.5t184.5 -114.5l-190 -227q-84 84 -184 84q-45 0 -68.5 -16.5t-23.5 -44.5q0 -21 16.5 -35.5t44.5 -14.5h94v-229h-92q-33 0 -50.5 -14.5 t-17.5 -38.5t21 -43t72 -19q107 0 219 101l205 -230q-81 -83 -209 -127.5t-267 -44.5q-121 0 -219 30t-162.5 99t-64.5 168z" />
<glyph unicode="&#x3b6;" horiz-adv-x="978" d="M74 393q0 92 40.5 200t106.5 207t150.5 188.5t173.5 152.5h-377v278h852v-289q-241 -158 -396 -345.5t-155 -333.5q0 -67 51 -116t182 -91q96 -30 157.5 -62t90.5 -66.5t39 -65.5t10 -73q0 -80 -88.5 -211.5t-181.5 -211.5l-217 155q96 143 96 185q0 13 -9.5 19t-48.5 19 q-8 3 -13 4.5t-14 4.5t-17 6q-71 24 -122 45.5t-104 50t-87.5 61t-63 74.5t-42 96t-13.5 119z" />
<glyph unicode="&#x3b7;" horiz-adv-x="1202" d="M92 0v999h387v-100h8q48 55 125 89t142 34q366 0 366 -416v-606h-387v530q0 162 -115 162q-98 0 -126 -94q-13 -44 -13 -96v-502h-387z" />
<glyph unicode="&#x3b8;" horiz-adv-x="1261" d="M82 725q0 351 145 545t402 194q256 0 403.5 -198t147.5 -539q0 -359 -144.5 -556.5t-408.5 -197.5q-272 0 -408.5 194t-136.5 558zM492 606q-3 -332 139 -332q71 0 104 79t33 253h-276zM496 879h268q0 284 -137 284q-128 0 -131 -284z" />
<glyph unicode="&#x3b9;" horiz-adv-x="632" d="M123 0v1001h387v-1001h-387z" />
<glyph unicode="&#x3ba;" horiz-adv-x="1236" d="M92 0v999h385v-276h4l248 276h451l-324 -333l373 -666h-443l-198 387l-111 -121v-266h-385z" />
<glyph unicode="&#x3bb;" horiz-adv-x="1163" d="M31 0l368 958q-16 78 -26 115q-15 55 -38 73.5t-75 18.5q-6 0 -15 -0.5t-26.5 -1.5t-34.5 -2l-26 281q114 33 227 33q157 0 237.5 -65t116.5 -185l269 -922q7 -23 21.5 -35t47.5 -12h27l18 -250q-90 -22 -178 -22q-82 0 -136 12.5t-86 41.5t-48 64.5t-29 94.5l-61 297 l-9 2q-6 -22 -33 -110t-38 -130q-40 -141 -76 -256h-397z" />
<glyph unicode="&#x3bc;" horiz-adv-x="1204" d="M92 -457v1456h391v-530q0 -92 29.5 -127t79.5 -35q93 0 121 94q12 40 12 97v501h387v-999h-387v100h-8q-56 -58 -111.5 -79t-124.5 -21v-324z" />
<glyph unicode="&#x3bd;" horiz-adv-x="1220" d="M12 999h396l116 -364l90 -289h4l93 301l112 352h383l-389 -999h-411z" />
<glyph unicode="&#x3be;" horiz-adv-x="962" d="M66 385q0 111 56.5 210.5t166.5 152.5v10q-59 23 -101 61t-61.5 81.5t-27 81t-7.5 75.5q0 125 65 220t171.5 143t234.5 48q307 0 449 -149l-187 -244q-38 38 -95.5 59t-115.5 21q-63 0 -103 -32.5t-40 -96.5q0 -68 48 -100.5t114 -32.5h223v-264h-201q-90 0 -145 -51.5 t-55 -141.5q0 -24 7 -45.5t14 -36t26.5 -29.5t29 -22t38 -19t36.5 -15t42 -14l4.5 -1.5l4.5 -1.5t5 -2q100 -33 163 -63.5t93.5 -63t40.5 -61.5t10 -70q0 -177 -271 -436l-217 155q43 64 70 115.5t27 67.5q0 21 -46 36q-89 30 -134 46.5t-110 46.5t-96.5 59t-65.5 73 t-47 100.5t-13 129.5z" />
<glyph unicode="&#x3bf;" horiz-adv-x="1236" d="M82 496q0 243 143.5 384.5t392.5 141.5t393 -142.5t144 -381.5q0 -242 -145 -382.5t-396 -140.5q-247 0 -389.5 142t-142.5 379zM477 498q0 -219 141 -219q72 0 106 58.5t34 158.5q0 223 -144 223q-70 0 -103.5 -60.5t-33.5 -160.5z" />
<glyph unicode="&#x3c0;" horiz-adv-x="1212" d="M92 0v1001h1028v-1001h-387v717h-256v-717h-385z" />
<glyph unicode="&#x3c1;" horiz-adv-x="1218" d="M92 -455v963q0 76 18 149t57.5 141t97 119t141.5 83t186 34q138 0 244.5 -41.5t171 -114.5t97 -166.5t32.5 -203.5q0 -82 -12 -155t-42.5 -143t-77 -120.5t-121 -81.5t-169.5 -31q-49 0 -119.5 23t-108.5 59h-6v-383zM481 348q60 -57 123 -57q62 0 95.5 47t33.5 162v2 q0 36 -5.5 69.5t-18 65.5t-36 51t-55.5 19q-66 0 -101.5 -45.5t-35.5 -112.5v-201z" />
<glyph unicode="&#x3c2;" horiz-adv-x="989" d="M80 473q0 117 31.5 216t92.5 173.5t157 117t217 42.5q257 0 401 -152l-182 -241q-83 76 -168 76q-67 0 -111.5 -65t-44.5 -181q0 -76 33.5 -120t107.5 -73q104 -41 165.5 -72t93 -62t40.5 -57t9 -67q0 -177 -271 -436l-217 156q43 64 69.5 115t26.5 67q0 7 -2 11.5 t-12.5 12t-30.5 13.5q-89 30 -150.5 60t-112.5 72t-80.5 96t-45.5 127.5t-16 170.5z" />
<glyph unicode="&#x3c3;" horiz-adv-x="1282" d="M82 485q0 236 143 375t393 139h613v-282h-141l-7 -8q31 -45 48.5 -107.5t17.5 -114.5q0 -237 -143.5 -374.5t-393.5 -137.5q-247 0 -388.5 138.5t-141.5 371.5zM475 487q0 -102 35 -158.5t106 -56.5q69 0 103.5 61t34.5 152q0 95 -35 156t-107 61q-68 0 -102.5 -63 t-34.5 -152z" />
<glyph unicode="&#x3c4;" horiz-adv-x="974" d="M41 717v282h852v-282h-258v-252q0 -90 24 -122t103 -32q52 0 115 8l26 -305q-163 -41 -321 -41q-167 0 -251.5 78t-84.5 260v406h-205z" />
<glyph unicode="&#x3c5;" horiz-adv-x="1218" d="M92 449v552h387v-552q0 -170 127 -170q135 0 135 170v552l385 -2v-550q0 -224 -137.5 -349t-378.5 -125q-240 0 -379 124.5t-139 349.5z" />
<glyph unicode="&#x3c6;" horiz-adv-x="1638" d="M82 504q0 94 26.5 175.5t67 135.5t92.5 95.5t97.5 62.5t87.5 31l125 -271q-125 -67 -125 -231q0 -109 39 -167t129 -81v760h362q260 0 416.5 -132.5t156.5 -377.5q0 -235 -145 -374.5t-403 -156.5v-295l-387 -133v426q-246 17 -392.5 159.5t-146.5 373.5zM1008 252 q78 14 124 74.5t46 167.5q0 100 -40.5 163.5t-129.5 73.5v-479z" />
<glyph unicode="&#x3c7;" horiz-adv-x="1128" d="M8 0l322 520l-293 484h412l110 -254l107 254h415l-293 -476l322 -528h-416l-147 283q-25 -54 -78 -160.5t-61 -122.5h-400z" />
<glyph unicode="&#x3c8;" horiz-adv-x="1617" d="M92 469v532h377v-552q0 -75 43.5 -120t103.5 -50v833l388 137v-968q62 6 104.5 50.5t42.5 117.5v483l375 131v-594q0 -218 -144 -350.5t-378 -143.5v-297l-386 -133l-2 430q-235 11 -379.5 143t-144.5 351z" />
<glyph unicode="&#x3c9;" horiz-adv-x="1650" d="M82 506q0 85 29.5 168.5t84.5 157t145 126.5t202 70l98 -268q-162 -56 -162 -260q0 -121 29 -173.5t70 -52.5t66.5 29t25.5 76v242h311v-248q0 -49 25 -74t67 -25q41 0 69.5 52.5t28.5 173.5q0 204 -161 260l98 268q112 -17 202 -70t145 -126.5t84.5 -157t29.5 -168.5 q0 -154 -52.5 -271.5t-159 -186t-255.5 -68.5q-86 0 -160.5 38.5t-114.5 102.5h-4q-40 -64 -114.5 -102.5t-159.5 -38.5q-226 0 -346.5 138.5t-120.5 387.5z" />
<glyph unicode="&#x3ca;" horiz-adv-x="741" d="M-51 1282q0 73 53.5 125.5t126.5 52.5q71 0 123.5 -52.5t52.5 -125.5q0 -69 -53 -121.5t-123 -52.5q-72 0 -126 52.5t-54 121.5zM172 0v1001h387v-1001h-387zM434 1282q0 73 53 125.5t127 52.5q71 0 122.5 -52.5t51.5 -125.5q0 -69 -52 -121.5t-122 -52.5 q-73 0 -126.5 52.5t-53.5 121.5z" />
<glyph unicode="&#x3cb;" horiz-adv-x="1218" d="M92 449v552h387v-552q0 -170 127 -170q135 0 135 170v552l385 -2v-550q0 -224 -137.5 -349t-378.5 -125q-240 0 -379 124.5t-139 349.5zM195 1282q0 73 53.5 125.5t126.5 52.5q71 0 123.5 -52.5t52.5 -125.5q0 -69 -53 -121.5t-123 -52.5q-72 0 -126 52.5t-54 121.5z M680 1282q0 73 53 125.5t127 52.5q71 0 122.5 -52.5t51.5 -125.5q0 -69 -52 -121.5t-122 -52.5q-73 0 -126.5 52.5t-53.5 121.5z" />
<glyph unicode="&#x3cc;" horiz-adv-x="1236" d="M82 496q0 243 143.5 384.5t392.5 141.5t393 -142.5t144 -381.5q0 -242 -145 -382.5t-396 -140.5q-247 0 -389.5 142t-142.5 379zM473 1161l168 438l338 -65l-291 -440zM477 498q0 -219 141 -219q72 0 106 58.5t34 158.5q0 223 -144 223q-70 0 -103.5 -60.5t-33.5 -160.5z " />
<glyph unicode="&#x3cd;" horiz-adv-x="1218" d="M92 449v552h387v-552q0 -170 127 -170q135 0 135 170v552l385 -2v-550q0 -224 -137.5 -349t-378.5 -125q-240 0 -379 124.5t-139 349.5zM457 1161l168 438l338 -65l-291 -440z" />
<glyph unicode="&#x3ce;" horiz-adv-x="1650" d="M82 506q0 85 29.5 168.5t84.5 157t145 126.5t202 70l98 -268q-162 -56 -162 -260q0 -121 29 -173.5t70 -52.5t66.5 29t25.5 76v242h311v-248q0 -49 25 -74t67 -25q41 0 69.5 52.5t28.5 173.5q0 204 -161 260l98 268q112 -17 202 -70t145 -126.5t84.5 -157t29.5 -168.5 q0 -154 -52.5 -271.5t-159 -186t-255.5 -68.5q-86 0 -160.5 38.5t-114.5 102.5h-4q-40 -64 -114.5 -102.5t-159.5 -38.5q-226 0 -346.5 138.5t-120.5 387.5zM645 1161l168 438l338 -65l-291 -440z" />
<glyph unicode="&#x401;" horiz-adv-x="1212" d="M102 0v1333h1049v-332h-645v-161h444v-320h-444v-188h665v-332h-1069zM221 1567q0 73 53.5 125.5t126.5 52.5q71 0 124 -52.5t53 -125.5q0 -69 -53.5 -121.5t-123.5 -52.5q-72 0 -126 52.5t-54 121.5zM707 1567q0 73 53 125.5t127 52.5q71 0 122.5 -52.5t51.5 -125.5 q0 -69 -52 -121.5t-122 -52.5q-73 0 -126.5 52.5t-53.5 121.5z" />
<glyph unicode="&#x402;" horiz-adv-x="1611" d="M20 1001v332h1192v-332h-450v-223q145 92 323 92q124 0 217.5 -40.5t149 -112.5t82.5 -164t27 -203q0 -101 -30 -190.5t-88 -160t-151 -112t-211 -41.5q-49 0 -102 9v268q164 24 164 242q0 80 -38.5 130t-121.5 50q-113 0 -221 -74v-471h-395v1001h-347z" />
<glyph unicode="&#x403;" horiz-adv-x="1167" d="M102 0v1333h1037v-332h-633v-1001h-404zM362 1546l371 289l256 -231l-477 -226z" />
<glyph unicode="&#x404;" horiz-adv-x="1239" d="M82 678q0 148 39.5 270.5t116 214t197.5 142.5t276 51q330 0 491 -244l-291 -229q-47 69 -94.5 93.5t-105.5 24.5q-82 0 -134.5 -52t-64.5 -144h340v-277h-340q12 -94 64.5 -146t134.5 -52q135 0 223 137l295 -229q-75 -114 -205 -188.5t-313 -74.5q-207 0 -349.5 88 t-211 244t-68.5 371z" />
<glyph unicode="&#x405;" horiz-adv-x="1249" d="M51 178l213 279q89 -74 187.5 -110t177.5 -36q70 0 105.5 24t35.5 58q0 36 -36.5 56.5t-158.5 50.5q-94 25 -161.5 49t-130.5 60t-101.5 79.5t-61 104.5t-22.5 137q0 107 44.5 191t120 134.5t169.5 76.5t199 26q145 0 284 -46.5t234 -131.5l-207 -289q-169 133 -332 133 q-55 0 -78.5 -20.5t-23.5 -51.5q0 -23 22 -40.5t52 -27.5t90 -27q6 -1 9 -2t8 -2.5t9 -2.5h1l1 -1h1h1h1l1 -1h1h1h1l2 -1q181 -49 265 -94q214 -113 214 -341q0 -111 -46 -197.5t-125 -138.5t-177 -78.5t-209 -26.5q-166 0 -324 55t-256 152z" />
<glyph unicode="&#x406;" horiz-adv-x="649" d="M123 0v1333h403v-1333h-403z" />
<glyph unicode="&#x407;" horiz-adv-x="649" d="M-94 1587q0 73 53.5 125.5t126.5 52.5q71 0 123.5 -52.5t52.5 -125.5q0 -69 -53 -121.5t-123 -52.5q-72 0 -126 52.5t-54 121.5zM123 0v1333h403v-1333h-403zM391 1587q0 73 53 125.5t127 52.5q71 0 122.5 -52.5t51.5 -125.5q0 -69 -52 -121.5t-122 -52.5 q-73 0 -126.5 52.5t-53.5 121.5z" />
<glyph unicode="&#x408;" horiz-adv-x="1247" d="M0 420l375 115q39 -122 84.5 -171t115.5 -49q166 0 166 234v784h404v-790q0 -269 -144 -418.5t-419 -149.5q-246 0 -383.5 111.5t-198.5 333.5z" />
<glyph unicode="&#x409;" horiz-adv-x="1953" d="M16 303q43 3 72.5 7t55 13.5t41 20t28 32.5t18.5 43.5t9.5 61t4.5 77t1 99.5v676h932v-473h219q108 0 197 -26t156.5 -78t104.5 -136.5t37 -195.5q0 -107 -36.5 -189.5t-102 -133t-151.5 -76t-189 -25.5h-637v1001h-160v-383q0 -121 -10.5 -210.5t-42 -175.5t-85 -140 t-142.5 -86.5t-211 -32.5q-28 0 -90 4zM1180 330h182q139 0 139 112q0 105 -145 105h-176v-217z" />
<glyph unicode="&#x40a;" horiz-adv-x="1943" d="M102 0v1335h404v-471h260v471h401v-471h219q223 0 359.5 -111t136.5 -329q0 -107 -36.5 -189.5t-102 -133t-151.5 -76t-189 -25.5h-637v539h-260v-539h-404zM1167 330h183q139 0 139 112q0 105 -146 105h-176v-217z" />
<glyph unicode="&#x40b;" horiz-adv-x="1603" d="M33 1001v334h1179v-334h-450v-225q169 90 336 90q189 0 306.5 -109.5t117.5 -316.5v-440h-400v360q0 97 -36.5 137t-116.5 40q-103 0 -207 -80v-457h-397v1001h-332z" />
<glyph unicode="&#x40c;" horiz-adv-x="1363" d="M102 0v1333h400v-616l6 -2l379 618h456l-419 -647l415 -686h-475l-356 647l-6 -2v-645h-400zM461 1546l370 289l256 -231l-477 -226z" />
<glyph unicode="&#x40e;" horiz-adv-x="1343" d="M10 1333h445l112 -286l113 -308h10q24 61 62.5 183t42.5 133l82 278h456l-432 -1028q-43 -98 -91.5 -164.5t-104 -104t-113 -53t-129.5 -16.5l-230 -2v314h127q38 0 60.5 15.5t42.5 49.5zM272 1800h256q11 -66 53.5 -107.5t104.5 -41.5q63 0 101 47t38 102h267 q0 -49 -12 -99.5t-42 -104t-74.5 -95t-116.5 -68t-161 -26.5q-91 0 -165 26.5t-119 68t-75.5 95t-42.5 104t-12 99.5z" />
<glyph unicode="&#x40f;" horiz-adv-x="1411" d="M102 0v1333h402v-1003h403v1003h402v-1333h-426v-399h-346v399h-435z" />
<glyph unicode="&#x410;" horiz-adv-x="1445" d="M10 0l477 1333h474l475 -1333h-430l-76 248h-430l-74 -248h-416zM588 532h256l-60 199l-65 230h-6l-68 -236z" />
<glyph unicode="&#x411;" horiz-adv-x="1292" d="M102 0v1337h981v-338h-577v-143h219q108 0 197 -25.5t156.5 -76.5t105 -135t37.5 -195q0 -107 -36.5 -189.5t-102.5 -133t-152 -76t-189 -25.5h-639zM506 330h182q139 0 139 112q0 105 -145 105h-176v-217z" />
<glyph unicode="&#x412;" horiz-adv-x="1314" d="M102 0v1333h656q208 0 322 -86t114 -250q0 -92 -55 -165.5t-135 -102.5v-6q97 -27 168 -114t71 -193q0 -199 -126 -307.5t-365 -108.5h-650zM506 322h182q139 0 139 116q0 105 -145 105h-176v-221zM506 836h164q54 0 83 23t29 65q0 84 -98 84h-178v-172z" />
<glyph unicode="&#x413;" horiz-adv-x="1167" d="M102 0v1333h1037v-332h-633v-1001h-404z" />
<glyph unicode="&#x414;" horiz-adv-x="1564" d="M41 319l121 3q70 42 114.5 158t53.5 308l24 545h1016v-1003h133v-695h-348v365h-770v-365h-344v684zM584 330h387v671h-266l-7 -135q-8 -172 -31.5 -309.5t-82.5 -226.5z" />
<glyph unicode="&#x415;" horiz-adv-x="1212" d="M102 0v1333h1049v-332h-645v-161h444v-320h-444v-188h665v-332h-1069z" />
<glyph unicode="&#x416;" horiz-adv-x="2041" d="M20 1333h457l338 -618l6 2v616h400v-616l6 -2l338 618h456l-379 -647l375 -686h-475l-315 647l-6 -2v-645h-400v645l-6 2l-315 -647h-475l374 686z" />
<glyph unicode="&#x417;" horiz-adv-x="1249" d="M20 190l228 250q82 -75 159 -101t171 -26q86 0 140 38t54 93q0 103 -154 103h-184v280h174q65 0 102.5 25t37.5 74q0 39 -32.5 67.5t-107.5 28.5q-89 0 -170.5 -22.5t-169.5 -88.5l-178 256q108 93 249 140t296 47q121 0 215 -21.5t152 -56.5t95 -84.5t51.5 -99.5 t14.5 -107q0 -86 -54 -165.5t-134 -110.5v-13q97 -38 150 -114.5t53 -171.5q0 -110 -44 -193.5t-123 -134.5t-182.5 -76.5t-228.5 -25.5q-165 0 -318 53t-262 157z" />
<glyph unicode="&#x418;" horiz-adv-x="1464" d="M102 0v1333h402v-712h12l139 225l308 487h399v-1333h-399v678h-11l-129 -201l-319 -477h-402z" />
<glyph unicode="&#x419;" horiz-adv-x="1464" d="M102 0v1333h402v-712h12l139 225l308 487h399v-1333h-399v678h-11l-129 -201l-319 -477h-402zM313 1806h256q11 -66 53.5 -107.5t104.5 -41.5q63 0 101 47t38 102h267q0 -49 -12 -99.5t-42 -104t-74.5 -95t-116.5 -68t-161 -26.5q-91 0 -165 26.5t-119 68t-75.5 95 t-42.5 104t-12 99.5z" />
<glyph unicode="&#x41a;" horiz-adv-x="1363" d="M102 0v1333h400v-616l6 -2l379 618h456l-419 -647l415 -686h-475l-356 647l-6 -2v-645h-400z" />
<glyph unicode="&#x41b;" horiz-adv-x="1331" d="M16 303q43 3 72.5 7t55 13.5t41 20t28 32.5t18.5 43.5t9.5 61t4.5 77t1 99.5v676h983v-1333h-404v1001h-209v-383q0 -121 -10.5 -210.5t-42 -175.5t-85 -140t-142.5 -86.5t-211 -32.5q-28 0 -90 4z" />
<glyph unicode="&#x41c;" horiz-adv-x="1636" d="M102 0v1333h390l153 -280q22 -42 80.5 -149.5t87.5 -164.5h12q19 39 166 316l150 278h393v-1333h-393v578h-8q-35 -66 -140 -259l-178 -321l-178 324q-21 41 -67.5 126t-69.5 130h-8v-578h-390z" />
<glyph unicode="&#x41d;" horiz-adv-x="1411" d="M102 0v1333h402v-491h403v491h402v-1333h-402v512h-403v-512h-402z" />
<glyph unicode="&#x41e;" horiz-adv-x="1419" d="M82 662q0 326 159.5 510t469.5 184q308 0 467 -184.5t159 -507.5q0 -325 -160 -507t-472 -182q-306 0 -464.5 184t-158.5 503zM498 670q0 -160 54 -254t159 -94q72 0 120.5 49.5t68.5 124.5t20 172q0 155 -52 247.5t-163 92.5q-104 0 -155.5 -95t-51.5 -243z" />
<glyph unicode="&#x41f;" horiz-adv-x="1411" d="M102 0v1333h1207v-1333h-402v999h-403v-999h-402z" />
<glyph unicode="&#x420;" horiz-adv-x="1230" d="M102 0v1333h629q107 0 195.5 -27.5t154.5 -81t103 -139.5t37 -196q0 -219 -140 -340t-366 -121h-209v-428h-404zM504 758h135q37 0 62 4t50 16t37.5 38t12.5 67q0 37 -14 62t-39 36.5t-49.5 15.5t-55.5 4h-139v-243z" />
<glyph unicode="&#x421;" horiz-adv-x="1236" d="M82 678q0 148 39.5 270.5t116 214t197.5 142.5t276 51q330 0 491 -244l-291 -229q-47 69 -94.5 93.5t-105.5 24.5q-105 0 -159 -93t-54 -238q0 -94 22 -169t71 -123t120 -48q135 0 223 137l295 -229q-75 -114 -205 -188.5t-313 -74.5q-207 0 -349.5 88t-211 244 t-68.5 371z" />
<glyph unicode="&#x422;" horiz-adv-x="1169" d="M10 1001v332h1149v-332h-373v-1001h-401v1001h-375z" />
<glyph unicode="&#x423;" horiz-adv-x="1343" d="M10 1333h445l112 -286l113 -308h10q24 61 62.5 183t42.5 133l82 278h456l-432 -1028q-43 -98 -91.5 -164.5t-104 -104t-113 -53t-129.5 -16.5l-230 -2v314h127q38 0 60.5 15.5t42.5 49.5z" />
<glyph unicode="&#x424;" horiz-adv-x="1687" d="M72 678q0 153 77 278.5t204 201t284 97.5v80h403v-78q257 -30 416.5 -184.5t159.5 -392.5q0 -237 -157 -391.5t-419 -184.5v-104h-403v106q-251 30 -408 183.5t-157 388.5zM465 674q0 -100 39 -166t133 -94v524q-172 -68 -172 -264zM1040 408q51 10 88 37.5t56.5 66.5 t28 80t8.5 88q0 213 -181 264v-536z" />
<glyph unicode="&#x425;" horiz-adv-x="1306" d="M0 0l434 682l-411 651h436l194 -368l199 368h430l-416 -647l437 -686h-437l-217 406l-217 -406h-432z" />
<glyph unicode="&#x426;" horiz-adv-x="1480" d="M102 0v1333h400v-1003h401v1003h404v-1003h133v-695h-348v365h-990z" />
<glyph unicode="&#x427;" horiz-adv-x="1368" d="M61 844v489h400v-358q0 -219 217 -219q32 0 86.5 13t99.5 40v524h402v-1333h-402v473q-162 -49 -317 -49q-79 0 -149.5 14.5t-133 47t-107 80.5t-70.5 119t-26 159z" />
<glyph unicode="&#x428;" horiz-adv-x="1832" d="M102 0v1333h404v-1003h213v1003h403v-1003h205v1003h404v-1333h-1629z" />
<glyph unicode="&#x429;" horiz-adv-x="1904" d="M102 0v1333h404v-1003h213v1003h403v-1003h205v1003h404v-1003h133v-695h-348v365h-1414z" />
<glyph unicode="&#x42a;" horiz-adv-x="1505" d="M10 1001v334l719 2v-481h219q108 0 197 -25.5t156.5 -76.5t105 -135t37.5 -195q0 -107 -36.5 -189.5t-102 -133t-151.5 -76t-189 -25.5h-639v1001h-316zM729 330h182q140 0 140 112q0 105 -146 105h-176v-217z" />
<glyph unicode="&#x42b;" horiz-adv-x="1828" d="M102 0v1335l404 2v-481h219q108 0 197 -25.5t156.5 -76.5t105 -135t37.5 -195q0 -107 -36.5 -189.5t-102.5 -133t-152 -76t-189 -25.5h-639zM506 330h182q139 0 139 112q0 105 -145 105h-176v-217zM1323 0v1333h403v-1333h-403z" />
<glyph unicode="&#x42c;" horiz-adv-x="1282" d="M102 0v1335l404 2v-481h219q108 0 197 -25.5t156.5 -76.5t105 -135t37.5 -195q0 -107 -36.5 -189.5t-102.5 -133t-152 -76t-189 -25.5h-639zM506 330h182q139 0 139 112q0 105 -145 105h-176v-217z" />
<glyph unicode="&#x42d;" horiz-adv-x="1259" d="M31 238l295 229q88 -137 223 -137q82 0 134.5 52t64.5 146h-349v277h349q-12 92 -64.5 144t-134.5 52q-58 0 -106 -24.5t-95 -93.5l-272 233q40 53 83.5 93.5t103 75t138.5 53t174 18.5q124 0 224.5 -33.5t170.5 -93t117 -145t69 -186.5t22 -220q0 -215 -68.5 -371 t-211 -244t-349.5 -88q-183 0 -313 74.5t-205 188.5z" />
<glyph unicode="&#x42e;" horiz-adv-x="1918" d="M102 0v1333h402v-477h119q21 108 66.5 196.5t117.5 157.5t178 107.5t238 38.5q285 0 449.5 -190t164.5 -496q0 -202 -73 -359t-213.5 -247.5t-327.5 -90.5q-140 0 -252 45.5t-184 125.5t-115 179t-58 216h-110v-539h-402zM1030 670q0 -163 49.5 -253.5t143.5 -90.5 q95 0 144.5 89t49.5 253q0 344 -194 344q-94 0 -143.5 -89.5t-49.5 -252.5z" />
<glyph unicode="&#x42f;" horiz-adv-x="1294" d="M61 0l234 502q-232 109 -232 381q0 218 135 334t355 116h639v-1333h-404v449h-131l-182 -449h-414zM483 887q0 -109 144 -109h164v223h-168q-59 0 -99.5 -29.5t-40.5 -84.5z" />
<glyph unicode="&#x430;" horiz-adv-x="1140" d="M61 303q0 109 53.5 185.5t138 110.5t191.5 34q130 0 226 -33v31q0 47 -38.5 72.5t-109.5 25.5q-135 0 -280 -51l-82 268q191 78 424 78q465 0 465 -389v-635h-379v88l-8 4q-40 -48 -100 -78t-100 -37.5t-71 -7.5q-163 0 -246.5 80.5t-83.5 253.5zM459 324 q0 -35 28.5 -54.5t69.5 -19.5q66 0 113 37v88q-47 28 -111 28q-44 0 -72 -19t-28 -60z" />
<glyph unicode="&#x431;" horiz-adv-x="1243" d="M82 575q0 357 112 554.5t381 275.5q79 22 201.5 47t204.5 47l80 -282q-55 -22 -113.5 -36.5t-126 -27.5t-106.5 -23q-116 -30 -157 -68t-50 -116q71 33 184 33q205 0 337 -129.5t132 -360.5q0 -237 -146.5 -374t-387.5 -140q-124 0 -220.5 35.5t-155.5 93t-98 138 t-54.5 161.5t-16.5 172zM487 483q0 -207 138 -207q66 0 101.5 53.5t35.5 151.5q0 101 -36 152t-97 51q-65 0 -103.5 -52.5t-38.5 -148.5z" />
<glyph unicode="&#x432;" horiz-adv-x="1146" d="M92 0v1001h608q151 0 244.5 -67t93.5 -199q0 -57 -35 -114.5t-92 -81.5q75 -35 114.5 -97t39.5 -133q0 -58 -22.5 -112.5t-65 -99t-113 -71t-157.5 -26.5h-615zM463 633h166q24 0 38.5 12.5t14.5 36.5q0 45 -51 45h-168v-94zM465 272h151q26 0 46 16t20 48q0 35 -21.5 50 t-46.5 15h-149v-129z" />
<glyph unicode="&#x433;" horiz-adv-x="972" d="M92 0v1001h871v-284h-488v-717h-383z" />
<glyph unicode="&#x434;" horiz-adv-x="1290" d="M31 287h106q60 45 88 119.5t37 203.5l27 391h839v-714h111v-602h-330v315h-561v-315h-317v602zM518 287h223v430h-137l-8 -109q-6 -81 -9.5 -113.5t-20.5 -94.5t-48 -113z" />
<glyph unicode="&#x435;" horiz-adv-x="1153" d="M82 498q0 240 138 382t384 142q104 0 185.5 -26.5t135.5 -73t89.5 -113t51 -143.5t15.5 -168v-86h-602q5 -71 47 -104.5t136 -33.5q105 0 260 48l106 -252q-201 -93 -410 -93q-142 0 -247 38t-167.5 109t-92 164t-29.5 210zM479 602h217q-5 68 -27 101.5t-83 33.5 q-46 0 -75 -33.5t-32 -101.5z" />
<glyph unicode="&#x436;" horiz-adv-x="1712" d="M31 0l264 537l-254 460h397l226 -442v442h385v-442l233 442h397l-262 -460l264 -537h-407l-225 510v-510h-385v510l-226 -510h-407z" />
<glyph unicode="&#x437;" horiz-adv-x="1024" d="M31 131l176 225q46 -42 97.5 -64.5t83.5 -27t73 -4.5q96 0 96 68q0 63 -96 63h-109v205h133q33 0 52.5 18.5t19.5 44.5q0 37 -26 56.5t-68 19.5q-49 0 -114 -25.5t-107 -66.5l-158 227q185 152 440 152q86 0 155.5 -16t116.5 -42.5t78.5 -63t45.5 -76t14 -83.5 q0 -60 -36 -115.5t-105 -95.5q70 -27 109.5 -89t39.5 -130q0 -163 -125.5 -247t-329.5 -84q-131 0 -255.5 40.5t-200.5 110.5z" />
<glyph unicode="&#x438;" horiz-adv-x="1241" d="M92 0v1001h387v-436h13l94 154l176 282h387v-1001h-387v408h-12l-117 -179l-154 -229h-387z" />
<glyph unicode="&#x439;" horiz-adv-x="1241" d="M92 0v1001h387v-436h13l94 154l176 282h387v-1001h-387v408h-12l-117 -179l-154 -229h-387zM209 1479h256q11 -66 53.5 -108t104.5 -42q63 0 101 47.5t38 102.5h266q0 -49 -12 -99.5t-41.5 -104.5t-74 -95.5t-116.5 -68t-161 -26.5q-91 0 -165 26.5t-119 68t-75.5 95.5 t-42.5 104.5t-12 99.5z" />
<glyph unicode="&#x43a;" horiz-adv-x="1177" d="M92 0v997h385v-442l271 442h407l-299 -460l301 -537h-418l-262 510v-510h-385z" />
<glyph unicode="&#x43b;" horiz-adv-x="1128" d="M20 266q119 9 142.5 62.5t23.5 265.5v407h850v-1001h-389v717h-112v-172q0 -72 -2 -121t-11 -114t-25.5 -108.5t-48 -90t-75 -73.5t-109 -45t-149.5 -18q-11 0 -78 5z" />
<glyph unicode="&#x43c;" horiz-adv-x="1382" d="M92 0v999h373l223 -434h8l219 434h375v-999h-379v377h-4l-217 -381l-217 379h-4v-375h-377z" />
<glyph unicode="&#x43d;" horiz-adv-x="1210" d="M92 0v1001h385v-346h252v346h389v-1001h-389v375h-252v-375h-385z" />
<glyph unicode="&#x43e;" horiz-adv-x="1236" d="M82 496q0 243 143.5 384.5t392.5 141.5t393 -142.5t144 -381.5q0 -242 -145 -382.5t-396 -140.5q-247 0 -389.5 142t-142.5 379zM477 498q0 -219 141 -219q72 0 106 58.5t34 158.5q0 223 -144 223q-70 0 -103.5 -60.5t-33.5 -160.5z" />
<glyph unicode="&#x43f;" horiz-adv-x="1212" d="M92 0v1001h1028v-1001h-387v717h-256v-717h-385z" />
<glyph unicode="&#x440;" horiz-adv-x="1218" d="M92 -457v1456h385v-84l6 -2q50 46 125.5 76.5t139.5 30.5q87 0 156 -30t122.5 -92t82 -166.5t28.5 -246.5q0 -129 -34.5 -229.5t-93.5 -159.5t-131 -89t-153 -30q-137 0 -236 80h-8v-381zM481 348q60 -57 123 -57q62 0 95.5 47t33.5 162q-3 107 -30.5 156t-81.5 49 q-85 0 -140 -60v-297z" />
<glyph unicode="&#x441;" horiz-adv-x="1028" d="M82 498q0 243 132 383.5t384 140.5q227 0 375 -150l-213 -245q-47 47 -78.5 62.5t-69.5 15.5q-68 0 -102.5 -49.5t-34.5 -141.5q0 -102 34.5 -158.5t102.5 -56.5q80 0 172 92l213 -246q-86 -87 -195 -127.5t-204 -40.5q-252 0 -384 139.5t-132 381.5z" />
<glyph unicode="&#x442;" horiz-adv-x="1005" d="M41 717v284h924v-284h-269v-717h-389v717h-266z" />
<glyph unicode="&#x443;" horiz-adv-x="1185" d="M8 999h391l99 -323l90 -330h8l96 330l99 323h385l-512 -1405h-388l127 351z" />
<glyph unicode="&#x444;" horiz-adv-x="1595" d="M82 504q0 141 70 257.5t189.5 184.5t264.5 76v332l383 133l2 -465q145 -8 264 -76t188.5 -184.5t69.5 -257.5q0 -225 -143 -369.5t-377 -159.5v-297l-387 -135v428q-234 15 -379 161.5t-145 371.5zM463 500q0 -209 143 -234v467q-71 -12 -107 -75t-36 -158zM989 266 q144 25 144 234q0 95 -36.5 158t-107.5 75v-467z" />
<glyph unicode="&#x445;" horiz-adv-x="1128" d="M8 0l322 520l-293 484h412l110 -254l107 254h415l-293 -476l322 -528h-416l-147 283q-25 -54 -78 -160.5t-61 -122.5h-400z" />
<glyph unicode="&#x446;" horiz-adv-x="1267" d="M92 0v999h387v-716h250v716h387v-716h111v-598h-330v315h-805z" />
<glyph unicode="&#x447;" horiz-adv-x="1146" d="M45 674v327h387v-290q0 -105 107 -105q62 0 129 45v350h387v-1001h-387v375h-9q-50 -38 -124 -62t-129 -24q-192 0 -276.5 100t-84.5 285z" />
<glyph unicode="&#x448;" horiz-adv-x="1671" d="M92 0v999h379v-712h176v714h379v-714h174v712h379v-999h-1487z" />
<glyph unicode="&#x449;" horiz-adv-x="1728" d="M92 0v999h379v-712h176v714h379v-714h174v712h377v-716h111v-598h-330v315h-1266z" />
<glyph unicode="&#x44a;" horiz-adv-x="1275" d="M10 717v284h617v-327h186q173 0 282 -89t109 -257q0 -159 -105.5 -243.5t-271.5 -84.5h-585v717h-232zM627 272h116q26 0 46 16t20 48q0 35 -21.5 50t-46.5 15h-114v-129z" />
<glyph unicode="&#x44b;" horiz-adv-x="1634" d="M92 0v1001h385v-327h187q173 0 282 -89t109 -257q0 -159 -105.5 -243.5t-271.5 -84.5h-586zM477 272h117q25 0 45 16t20 48q0 35 -21 50t-46 15h-115v-129zM1155 0v1001h387v-1001h-387z" />
<glyph unicode="&#x44c;" horiz-adv-x="1126" d="M92 0v1001h385v-327h187q173 0 282 -89t109 -257q0 -159 -105.5 -243.5t-271.5 -84.5h-586zM477 272h117q25 0 45 16t20 48q0 35 -21 50t-46 15h-115v-129z" />
<glyph unicode="&#x44d;" horiz-adv-x="991" d="M31 115l180 250q72 -62 160 -62q49 0 85 23.5t46 70.5h-193v197h201q-7 56 -43 83.5t-90 27.5q-89 0 -146 -66l-180 250q147 133 369 133q124 0 218.5 -38t153 -107t88 -160t29.5 -201q0 -251 -131 -392.5t-387 -141.5q-213 0 -360 133z" />
<glyph unicode="&#x44e;" horiz-adv-x="1628" d="M92 0v1001h389v-350h76q92 373 479 373q241 0 375.5 -142.5t134.5 -373.5q0 -234 -137 -382.5t-373 -148.5q-216 0 -339 112t-154 298h-62v-387h-389zM915 508q0 -232 121 -232q125 0 125 230q0 110 -35 162.5t-90 52.5q-53 0 -87 -52.5t-34 -160.5z" />
<glyph unicode="&#x44f;" horiz-adv-x="1155" d="M72 0l188 373q-178 82 -178 280q0 166 106 257t281 91h594v-1001h-385v332h-78l-147 -332h-381zM463 657q0 -67 84 -67h125v137h-129q-29 0 -54.5 -18t-25.5 -52z" />
<glyph unicode="&#x451;" horiz-adv-x="1153" d="M82 498q0 240 138 382t384 142q104 0 185.5 -26.5t135.5 -73t89.5 -113t51 -143.5t15.5 -168v-86h-602q5 -71 47 -104.5t136 -33.5q105 0 260 48l106 -252q-201 -93 -410 -93q-142 0 -247 38t-167.5 109t-92 164t-29.5 210zM172 1262q0 73 53.5 125.5t126.5 52.5 q71 0 123.5 -52.5t52.5 -125.5q0 -69 -53 -122t-123 -53q-72 0 -126 53t-54 122zM479 602h217q-5 68 -27 101.5t-83 33.5q-46 0 -75 -33.5t-32 -101.5zM657 1262q0 73 53.5 125.5t127.5 52.5q71 0 122.5 -52.5t51.5 -125.5q0 -69 -52 -122t-122 -53q-73 0 -127 53t-54 122z " />
<glyph unicode="&#x452;" horiz-adv-x="1280" d="M41 1047v188h96v119l387 133v-252h361v-188h-361v-183h8q128 78 263 78q173 0 288 -134.5t115 -356.5q0 -250 -134.5 -398.5t-385.5 -185.5l-62 293q55 16 95 41.5t61.5 52t33 62t14.5 62t3 62.5q0 98 -41.5 148.5t-111.5 50.5q-53 0 -99.5 -44t-46.5 -122v-473h-387 v1047h-96z" />
<glyph unicode="&#x453;" horiz-adv-x="972" d="M92 0v1001h871v-284h-488v-717h-383zM295 1145l168 438l338 -65l-291 -441z" />
<glyph unicode="&#x454;" horiz-adv-x="991" d="M82 498q0 114 31 208.5t91.5 165.5t158 110.5t223.5 39.5q213 0 360 -133l-180 -250q-57 66 -145 66q-55 0 -94 -28t-46 -83h201v-197h-193q10 -47 46.5 -70.5t85.5 -23.5q87 0 159 62l181 -250q-147 -133 -361 -133q-253 0 -385.5 137.5t-132.5 378.5z" />
<glyph unicode="&#x455;" horiz-adv-x="1050" d="M61 96l121 256q192 -94 318 -94q80 0 80 45q0 27 -18.5 39.5t-80.5 30.5q-114 32 -184 62t-113 69t-59 84t-16 112q0 145 111.5 233.5t318.5 88.5q219 0 424 -102l-117 -265q-154 80 -283 80q-24 0 -38.5 -11.5t-14.5 -25.5q0 -33 78 -53q112 -29 181.5 -57t119 -67.5 t70 -92.5t20.5 -129q0 -155 -122.5 -239.5t-338.5 -84.5q-232 0 -457 121z" />
<glyph unicode="&#x456;" horiz-adv-x="647" d="M102 1311q0 93 65 158t159 65q91 0 155 -65.5t64 -157.5q0 -91 -64 -155t-155 -64q-94 0 -159 64t-65 155zM131 0v1001h387v-1001h-387z" />
<glyph unicode="&#x457;" horiz-adv-x="759" d="M-27 1282q0 73 54 125.5t127 52.5q71 0 123.5 -52.5t52.5 -125.5q0 -69 -53 -121.5t-123 -52.5q-72 0 -126.5 52.5t-54.5 121.5zM193 0v1001h387v-1001h-387zM459 1282q0 73 53 125.5t127 52.5q71 0 122.5 -52.5t51.5 -125.5q0 -69 -52 -121.5t-122 -52.5 q-73 0 -126.5 52.5t-53.5 121.5z" />
<glyph unicode="&#x458;" horiz-adv-x="657" d="M-76 -174q137 24 178 67.5t41 153.5v952h385v-1046q0 -227 -145 -330.5t-436 -103.5zM113 1311q0 93 65 158t158 65q91 0 155 -65.5t64 -157.5q0 -91 -64 -155t-155 -64q-93 0 -158 64t-65 155z" />
<glyph unicode="&#x459;" horiz-adv-x="1658" d="M27 266q119 9 142.5 62.5t23.5 265.5v407h837v-327h187q173 0 282 -89t109 -257q0 -159 -105.5 -243.5t-271.5 -84.5h-586v717h-104v-172q0 -72 -2 -121t-11 -114t-25.5 -108.5t-48 -90t-75 -73.5t-109 -45t-149.5 -18q-11 0 -78 5zM1030 272h117q25 0 45 16t20 48 q0 35 -21 50t-46 15h-115v-129z" />
<glyph unicode="&#x45a;" horiz-adv-x="1669" d="M92 0v999h385v-331h156v331l387 2v-337h186q179 0 285 -84t106 -252q0 -158 -107 -243t-269 -85h-586l-2 385h-156v-385h-385zM1020 272h117q26 0 45.5 14t19.5 46q0 57 -67 57h-115v-117z" />
<glyph unicode="&#x45b;" horiz-adv-x="1226" d="M20 1047v188h97v119l387 133v-252h340v-188h-340v-183h8q57 48 129.5 74.5t136.5 26.5q367 0 367 -416v-549h-387v473q0 162 -115 162q-99 0 -127 -94q-12 -40 -12 -97v-444h-387v1047h-97z" />
<glyph unicode="&#x45c;" horiz-adv-x="1177" d="M92 0v997h385v-442l271 442h407l-299 -460l301 -537h-418l-262 510v-510h-385zM418 1145l168 438l338 -65l-291 -441z" />
<glyph unicode="&#x45e;" horiz-adv-x="1185" d="M8 999h391l99 -323l90 -330h8l96 330l99 323h385l-512 -1405h-388l127 351zM184 1479h256q11 -66 53.5 -108t104.5 -42q63 0 101 47.5t38 102.5h267q0 -49 -12 -99.5t-42 -104.5t-74.5 -95.5t-116.5 -68t-161 -26.5q-91 0 -165 26.5t-119 68t-75.5 95.5t-42.5 104.5 t-12 99.5z" />
<glyph unicode="&#x45f;" horiz-adv-x="1208" d="M92 0v1001h387v-718h248v718h389v-1001h-342v-342h-332v342h-350z" />
<glyph unicode="&#x490;" horiz-adv-x="1167" d="M102 0v1333h695v264h342v-596h-633v-1001h-404z" />
<glyph unicode="&#x491;" horiz-adv-x="1026" d="M92 0v1001h592v224h326v-508h-535v-717h-383z" />
<glyph unicode="&#x4d9;" horiz-adv-x="1142" d="M61 502v86h603q-5 71 -47 104t-136 33q-108 0 -260 -47l-88 258q109 50 198 68t193 18q142 0 247.5 -38t167.5 -109t92 -163.5t30 -209.5q0 -240 -138 -382.5t-384 -142.5q-129 0 -223.5 40t-149 113t-80 165t-25.5 207zM446 397q5 -67 27.5 -101t83.5 -34q46 0 75 33.5 t32 101.5h-218z" />
<glyph unicode="&#x1e80;" horiz-adv-x="1908" d="M10 1333h436l78 -426l66 -387h8l76 391l88 422h391l88 -426l76 -387h8l68 395l75 418h437l-334 -1333h-412l-86 346l-115 483h-4l-110 -469l-88 -360h-412zM446 1604l256 231l371 -289l-149 -168z" />
<glyph unicode="&#x1e81;" horiz-adv-x="1697" d="M8 1001h393l66 -360l47 -283h6l66 281l82 362h366l78 -366l57 -285h7q8 44 26.5 149.5t28.5 155.5l65 346h392l-299 -1001h-416l-62 262l-67 289h-6l-66 -283l-67 -268h-416zM479 1518l338 65l168 -438l-215 -68z" />
<glyph unicode="&#x1e82;" horiz-adv-x="1908" d="M10 1333h436l78 -426l66 -387h8l76 391l88 422h391l88 -426l76 -387h8l68 395l75 418h437l-334 -1333h-412l-86 346l-115 483h-4l-110 -469l-88 -360h-412zM737 1546l371 289l256 -231l-477 -226z" />
<glyph unicode="&#x1e83;" horiz-adv-x="1697" d="M8 1001h393l66 -360l47 -283h6l66 281l82 362h366l78 -366l57 -285h7q8 44 26.5 149.5t28.5 155.5l65 346h392l-299 -1001h-416l-62 262l-67 289h-6l-66 -283l-67 -268h-416zM641 1145l168 438l338 -65l-291 -441z" />
<glyph unicode="&#x1e84;" horiz-adv-x="1908" d="M10 1333h436l78 -426l66 -387h8l76 391l88 422h391l88 -426l76 -387h8l68 395l75 418h437l-334 -1333h-412l-86 346l-115 483h-4l-110 -469l-88 -360h-412zM537 1589q0 73 53.5 125.5t126.5 52.5q71 0 123.5 -52.5t52.5 -125.5q0 -69 -53 -121.5t-123 -52.5 q-72 0 -126 52.5t-54 121.5zM1022 1589q0 73 53 125.5t127 52.5q71 0 122.5 -52.5t51.5 -125.5q0 -69 -52 -121.5t-122 -52.5q-73 0 -126.5 52.5t-53.5 121.5z" />
<glyph unicode="&#x1e85;" horiz-adv-x="1697" d="M8 1001h393l66 -360l47 -283h6l66 281l82 362h366l78 -366l57 -285h7q8 44 26.5 149.5t28.5 155.5l65 346h392l-299 -1001h-416l-62 262l-67 289h-6l-66 -283l-67 -268h-416zM420 1282q0 73 53.5 125.5t126.5 52.5q71 0 123.5 -52.5t52.5 -125.5q0 -69 -53 -121.5 t-123 -52.5q-72 0 -126 52.5t-54 121.5zM905 1282q0 73 53 125.5t127 52.5q71 0 123 -52.5t52 -125.5q0 -69 -52.5 -121.5t-122.5 -52.5q-73 0 -126.5 52.5t-53.5 121.5z" />
<glyph unicode="&#x1ef2;" horiz-adv-x="1431" d="M4 1333h432l142 -293q119 -248 141 -297q36 80 145 308l135 282h428l-509 -891v-442h-404v438zM291 1604l256 231l371 -289l-150 -168z" />
<glyph unicode="&#x1ef3;" horiz-adv-x="1185" d="M8 999h391l99 -323l90 -330h8l96 330l99 323h385l-512 -1405h-388l127 351zM240 1518l338 65l167 -438l-215 -68z" />
<glyph unicode="&#x1f00;" horiz-adv-x="1218" d="M82 479q0 135 30.5 239.5t85 170t126 98.5t157.5 33q68 0 139.5 -30.5t114.5 -76.5l6 2v86h385v-1001h-335l-37 88h-9q-114 -106 -272 -106q-79 0 -148.5 31t-124.5 90.5t-86.5 156t-31.5 219.5zM401 1442l117 248q144 -30 217.5 -111t73.5 -193q0 -61 -35.5 -141 t-111.5 -151l-181 55q62 99 62 164q0 107 -142 129zM485 494q0 -199 121 -199q31 0 67 15t64 42v291q-54 59 -131 59q-55 0 -88 -53t-33 -155z" />
<glyph unicode="&#x1f01;" horiz-adv-x="1218" d="M82 479q0 135 30.5 239.5t85 170t126 98.5t157.5 33q68 0 139.5 -30.5t114.5 -76.5l6 2v86h385v-1001h-335l-37 88h-9q-114 -106 -272 -106q-79 0 -148.5 31t-124.5 90.5t-86.5 156t-31.5 219.5zM418 1386q0 116 81 200t234 97l80 -249q-79 -12 -104 -42t-25 -79 q0 -67 61 -164l-180 -59q-76 71 -111.5 153t-35.5 143zM485 494q0 -199 121 -199q31 0 67 15t64 42v291q-54 59 -131 59q-55 0 -88 -53t-33 -155z" />
<glyph unicode="&#x1f02;" horiz-adv-x="1218" d="M82 479q0 135 30.5 239.5t85 170t126 98.5t157.5 33q68 0 139.5 -30.5t114.5 -76.5l6 2v86h385v-1001h-335l-37 88h-9q-114 -106 -272 -106q-79 0 -148.5 31t-124.5 90.5t-86.5 156t-31.5 219.5zM188 1444l117 248q144 -30 217.5 -110.5t73.5 -192.5q0 -60 -36 -141 t-111 -152l-181 55q62 99 62 164q0 110 -142 129zM485 494q0 -199 121 -199q31 0 67 15t64 42v291q-54 59 -131 59q-55 0 -88 -53t-33 -155zM567 1606l338 63l174 -491l-217 -64z" />
<glyph unicode="&#x1f03;" horiz-adv-x="1218" d="M82 479q0 135 30.5 239.5t85 170t126 98.5t157.5 33q68 0 139.5 -30.5t114.5 -76.5l6 2v86h385v-1001h-335l-37 88h-9q-114 -106 -272 -106q-79 0 -148.5 31t-124.5 90.5t-86.5 156t-31.5 219.5zM168 1401q0 116 81 200t234 97l80 -250q-79 -12 -104 -42t-25 -79 q0 -65 62 -164l-181 -59q-76 71 -111.5 153.5t-35.5 143.5zM485 494q0 -199 121 -199q31 0 67 15t64 42v291q-54 59 -131 59q-55 0 -88 -53t-33 -155zM549 1624l338 64l174 -490l-215 -63z" />
<glyph unicode="&#x1f04;" horiz-adv-x="1218" d="M82 479q0 135 30.5 239.5t85 170t126 98.5t157.5 33q68 0 139.5 -30.5t114.5 -76.5l6 2v86h385v-1001h-335l-37 88h-9q-114 -106 -272 -106q-79 0 -148.5 31t-124.5 90.5t-86.5 156t-31.5 219.5zM244 1442l116 248q144 -30 217.5 -111t73.5 -193q0 -61 -35.5 -141 t-111.5 -151l-180 55q61 97 61 164q0 107 -141 129zM485 494q0 -199 121 -199q31 0 67 15t64 42v291q-54 59 -131 59q-55 0 -88 -53t-33 -155zM649 1155l174 490l338 -64l-297 -489z" />
<glyph unicode="&#x1f05;" horiz-adv-x="1218" d="M82 479q0 135 30.5 239.5t85 170t126 98.5t157.5 33q68 0 139.5 -30.5t114.5 -76.5l6 2v86h385v-1001h-335l-37 88h-9q-114 -106 -272 -106q-79 0 -148.5 31t-124.5 90.5t-86.5 156t-31.5 219.5zM233 1378q0 116 81.5 200t234.5 97l80 -250q-79 -12 -104 -42t-25 -78 q0 -67 61 -164l-180 -60q-76 71 -112 153.5t-36 143.5zM485 494q0 -199 121 -199q31 0 67 15t64 42v291q-54 59 -131 59q-55 0 -88 -53t-33 -155zM604 1151l174 489l338 -63l-297 -490z" />
<glyph unicode="&#x1f06;" horiz-adv-x="1218" d="M82 479q0 135 30.5 239.5t85 170t126 98.5t157.5 33q68 0 139.5 -30.5t114.5 -76.5l6 2v86h385v-1001h-335l-37 88h-9q-114 -106 -272 -106q-79 0 -148.5 31t-124.5 90.5t-86.5 156t-31.5 219.5zM190 1597q51 131 127 200t156 69q63 0 184 -47t158 -47q62 0 139 86 l133 -70q-32 -97 -82 -158.5t-100.5 -84.5t-107.5 -23q-48 0 -162.5 45t-155.5 45q-24 0 -41 -4t-48.5 -25t-65.5 -61zM483 1335l56 172q143 -6 217.5 -65t74.5 -152q0 -88 -79.5 -152t-221.5 -77l-26 106q39 10 68.5 31t29.5 45q0 32 -22.5 51t-96.5 41zM485 494 q0 -199 121 -199q31 0 67 15t64 42v291q-54 59 -131 59q-55 0 -88 -53t-33 -155z" />
<glyph unicode="&#x1f07;" horiz-adv-x="1218" d="M82 479q0 135 30.5 239.5t85 170t126 98.5t157.5 33q68 0 139.5 -30.5t114.5 -76.5l6 2v86h385v-1001h-335l-37 88h-9q-114 -106 -272 -106q-79 0 -148.5 31t-124.5 90.5t-86.5 156t-31.5 219.5zM164 1597q51 132 126.5 200.5t155.5 68.5q63 0 184 -47t158 -47 q63 0 140 86l133 -70q-32 -97 -82.5 -158.5t-101 -84.5t-107.5 -23q-48 0 -162 45t-155 45q-24 0 -41.5 -4t-49 -25t-65.5 -61zM430 1292q6 89 81 148t212 65l55 -170q-74 -22 -96.5 -41t-22.5 -51q0 -24 30 -45t69 -31l-27 -106q-149 13 -228 75.5t-73 155.5zM485 494 q0 -199 121 -199q31 0 67 15t64 42v291q-54 59 -131 59q-55 0 -88 -53t-33 -155z" />
<glyph unicode="&#x1f08;" horiz-adv-x="1445" d="M-156 1223l117 247q144 -30 217.5 -110.5t73.5 -192.5q0 -61 -36 -141.5t-112 -151.5l-180 56q62 99 62 164q0 107 -142 129zM10 0l477 1333h474l475 -1333h-430l-76 248h-430l-74 -248h-416zM588 532h256l-60 199l-65 230h-6l-68 -236z" />
<glyph unicode="&#x1f09;" horiz-adv-x="1445" d="M-115 1184q0 116 81.5 200t234.5 97l80 -250q-79 -12 -104 -42t-25 -79q0 -67 61 -164l-180 -59q-76 71 -112 153.5t-36 143.5zM10 0l477 1333h474l475 -1333h-430l-76 248h-430l-74 -248h-416zM588 532h256l-60 199l-65 230h-6l-68 -236z" />
<glyph unicode="&#x1f0a;" horiz-adv-x="1445" d="M-588 1257l117 248q144 -30 217.5 -110.5t73.5 -192.5q0 -60 -36.5 -141t-111.5 -152l-180 56q62 99 62 163q0 110 -142 129zM-209 1419l338 64l174 -492l-217 -63zM10 0l477 1333h474l475 -1333h-430l-76 248h-430l-74 -248h-416zM588 532h256l-60 199l-65 230h-6 l-68 -236z" />
<glyph unicode="&#x1f0b;" horiz-adv-x="1445" d="M-586 1194q0 116 81.5 200t234.5 97l80 -250q-79 -12 -104 -42t-25 -79q0 -67 61 -164l-180 -59q-76 71 -112 153.5t-36 143.5zM-205 1417l338 64l174 -490l-215 -63zM10 0l477 1333h474l475 -1333h-430l-76 248h-430l-74 -248h-416zM588 532h256l-60 199l-65 230h-6 l-68 -236z" />
<glyph unicode="&#x1f0c;" horiz-adv-x="1445" d="M-528 1231l116 248q144 -30 217.5 -110.5t73.5 -192.5q0 -61 -35.5 -141.5t-111.5 -151.5l-181 55q62 99 62 164q0 107 -141 129zM-123 944l174 490l338 -64l-297 -489zM10 0l477 1333h474l475 -1333h-430l-76 248h-430l-74 -248h-416zM588 532h256l-60 199l-65 230h-6 l-68 -236z" />
<glyph unicode="&#x1f0d;" horiz-adv-x="1445" d="M-504 1198q0 116 81.5 200t234.5 97l79 -250q-79 -12 -104 -42t-25 -79q0 -64 62 -163l-180 -60q-76 71 -112 153.5t-36 143.5zM-133 971l174 489l338 -63l-297 -490zM10 0l477 1333h474l475 -1333h-430l-76 248h-430l-74 -248h-416zM588 532h256l-60 199l-65 230h-6 l-68 -236z" />
<glyph unicode="&#x1f0e;" horiz-adv-x="1445" d="M-473 1249q51 131 127 200t156 69q63 0 184 -47.5t158 -47.5q62 0 139 86l133 -69q-32 -97 -82.5 -158.5t-101 -84.5t-107.5 -23q-48 0 -162 45t-155 45q-24 0 -41.5 -4t-49 -25t-65.5 -61zM-180 987l55 172q143 -6 218 -65t75 -152q0 -88 -79.5 -152t-221.5 -77l-27 106 q39 10 69 31t30 45q0 32 -22.5 51t-96.5 41zM10 0l477 1333h474l475 -1333h-430l-76 248h-430l-74 -248h-416zM588 532h256l-60 199l-65 230h-6l-68 -236z" />
<glyph unicode="&#x1f0f;" horiz-adv-x="1445" d="M-457 1249q51 131 127 200t156 69q63 0 184 -47.5t158 -47.5q62 0 139 86l133 -69q-32 -97 -82 -158.5t-100.5 -84.5t-107.5 -23q-48 0 -162.5 45t-155.5 45q-24 0 -41.5 -4t-49 -25t-65.5 -61zM-190 944q6 89 80.5 148t211.5 65l56 -170q-74 -22 -96.5 -41t-22.5 -51 q0 -24 29.5 -45t68.5 -31l-26 -106q-149 13 -228 75.5t-73 155.5zM10 0l477 1333h474l475 -1333h-430l-76 248h-430l-74 -248h-416zM588 532h256l-60 199l-65 230h-6l-68 -236z" />
<glyph unicode="&#x1f10;" horiz-adv-x="1034" d="M82 270q0 66 34.5 127.5t112.5 98.5q-76 24 -110.5 81.5t-34.5 114.5q0 106 66 183.5t166.5 114t218.5 36.5q125 0 238.5 -39.5t184.5 -114.5l-190 -227q-84 84 -184 84q-45 0 -68.5 -16.5t-23.5 -44.5q0 -21 16.5 -35.5t44.5 -14.5h94v-229h-92q-33 0 -50.5 -14.5 t-17.5 -38.5t21 -43t72 -19q107 0 219 101l205 -230q-81 -83 -209 -127.5t-267 -44.5q-121 0 -219 30t-162.5 99t-64.5 168zM303 1442l117 248q144 -30 217.5 -111t73.5 -193q0 -60 -36 -140.5t-112 -151.5l-180 55q61 97 61 164q0 107 -141 129z" />
<glyph unicode="&#x1f11;" horiz-adv-x="1034" d="M82 270q0 66 34.5 127.5t112.5 98.5q-76 24 -110.5 81.5t-34.5 114.5q0 106 66 183.5t166.5 114t218.5 36.5q125 0 238.5 -39.5t184.5 -114.5l-190 -227q-84 84 -184 84q-45 0 -68.5 -16.5t-23.5 -44.5q0 -21 16.5 -35.5t44.5 -14.5h94v-229h-92q-33 0 -50.5 -14.5 t-17.5 -38.5t21 -43t72 -19q107 0 219 101l205 -230q-81 -83 -209 -127.5t-267 -44.5q-121 0 -219 30t-162.5 99t-64.5 168zM330 1386q0 116 81 200t234 97l80 -249q-79 -12 -104 -42t-25 -79q0 -67 61 -164l-180 -59q-76 71 -111.5 153t-35.5 143z" />
<glyph unicode="&#x1f12;" horiz-adv-x="1034" d="M82 270q0 66 34.5 127.5t112.5 98.5q-76 24 -110.5 81.5t-34.5 114.5q0 106 66 183.5t166.5 114t218.5 36.5q125 0 238.5 -39.5t184.5 -114.5l-190 -227q-84 84 -184 84q-45 0 -68.5 -16.5t-23.5 -44.5q0 -21 16.5 -35.5t44.5 -14.5h94v-229h-92q-33 0 -50.5 -14.5 t-17.5 -38.5t21 -43t72 -19q107 0 219 101l205 -230q-81 -83 -209 -127.5t-267 -44.5q-121 0 -219 30t-162.5 99t-64.5 168zM86 1458l117 248q144 -30 217.5 -110.5t73.5 -192.5q0 -60 -36.5 -141t-111.5 -152l-180 55q61 97 61 164q0 110 -141 129zM465 1620l338 63 l174 -491l-217 -64z" />
<glyph unicode="&#x1f13;" horiz-adv-x="1034" d="M63 1391q0 116 81.5 200t234.5 97l80 -250q-79 -12 -104 -42t-25 -79q0 -67 61 -164l-180 -59q-76 71 -112 153.5t-36 143.5zM82 270q0 66 34.5 127.5t112.5 98.5q-76 24 -110.5 81.5t-34.5 114.5q0 106 66 183.5t166.5 114t218.5 36.5q125 0 238.5 -39.5t184.5 -114.5 l-190 -227q-84 84 -184 84q-45 0 -68.5 -16.5t-23.5 -44.5q0 -21 16.5 -35.5t44.5 -14.5h94v-229h-92q-33 0 -50.5 -14.5t-17.5 -38.5t21 -43t72 -19q107 0 219 101l205 -230q-81 -83 -209 -127.5t-267 -44.5q-121 0 -219 30t-162.5 99t-64.5 168zM444 1614l338 63l174 -489 l-215 -64z" />
<glyph unicode="&#x1f14;" horiz-adv-x="1034" d="M82 270q0 66 34.5 127.5t112.5 98.5q-76 24 -110.5 81.5t-34.5 114.5q0 106 66 183.5t166.5 114t218.5 36.5q125 0 238.5 -39.5t184.5 -114.5l-190 -227q-84 84 -184 84q-45 0 -68.5 -16.5t-23.5 -44.5q0 -21 16.5 -35.5t44.5 -14.5h94v-229h-92q-33 0 -50.5 -14.5 t-17.5 -38.5t21 -43t72 -19q107 0 219 101l205 -230q-81 -83 -209 -127.5t-267 -44.5q-121 0 -219 30t-162.5 99t-64.5 168zM147 1454l117 248q144 -30 217.5 -110.5t73.5 -192.5q0 -61 -35.5 -141.5t-111.5 -151.5l-181 55q62 99 62 164q0 107 -142 129zM553 1167l174 490 l338 -64l-297 -489z" />
<glyph unicode="&#x1f15;" horiz-adv-x="1034" d="M82 270q0 66 34.5 127.5t112.5 98.5q-76 24 -110.5 81.5t-34.5 114.5q0 106 66 183.5t166.5 114t218.5 36.5q125 0 238.5 -39.5t184.5 -114.5l-190 -227q-84 84 -184 84q-45 0 -68.5 -16.5t-23.5 -44.5q0 -21 16.5 -35.5t44.5 -14.5h94v-229h-92q-33 0 -50.5 -14.5 t-17.5 -38.5t21 -43t72 -19q107 0 219 101l205 -230q-81 -83 -209 -127.5t-267 -44.5q-121 0 -219 30t-162.5 99t-64.5 168zM147 1391q0 116 81.5 200t234.5 97l80 -250q-79 -12 -104 -42t-25 -79q0 -67 61 -164l-180 -59q-76 71 -112 153.5t-36 143.5zM518 1163l174 490 l338 -64l-297 -489z" />
<glyph unicode="&#x1f18;" horiz-adv-x="1212" d="M-408 1223l117 247q144 -30 217.5 -110.5t73.5 -192.5q0 -61 -35.5 -141.5t-111.5 -151.5l-181 56q62 99 62 164q0 107 -142 129zM102 0v1333h1049v-332h-645v-161h444v-320h-444v-188h665v-332h-1069z" />
<glyph unicode="&#x1f19;" horiz-adv-x="1212" d="M-391 1165q0 116 81 200t234 97l80 -250q-79 -12 -104 -42t-25 -78q0 -65 62 -164l-181 -60q-76 71 -111.5 153.5t-35.5 143.5zM102 0v1333h1049v-332h-645v-161h444v-320h-444v-188h665v-332h-1069z" />
<glyph unicode="&#x1f1a;" horiz-adv-x="1212" d="M-825 1217l116 247q144 -30 217.5 -110.5t73.5 -192.5q0 -60 -36 -141t-111 -152l-180 56q61 97 61 163q0 111 -141 130zM-446 1378l337 64l175 -492l-218 -63zM102 0v1333h1049v-332h-645v-161h444v-320h-444v-188h665v-332h-1069z" />
<glyph unicode="&#x1f1b;" horiz-adv-x="1212" d="M-840 1159q0 116 81.5 200t234.5 97l80 -250q-79 -12 -104 -42t-25 -79q0 -66 61 -163l-180 -60q-76 71 -112 153.5t-36 143.5zM-459 1382l338 64l174 -490l-215 -63zM102 0v1333h1049v-332h-645v-161h444v-320h-444v-188h665v-332h-1069z" />
<glyph unicode="&#x1f1c;" horiz-adv-x="1212" d="M-848 1221l117 247q144 -30 217.5 -110.5t73.5 -192.5q0 -61 -36 -141.5t-112 -151.5l-180 56q61 97 61 164q0 107 -141 129zM-442 934l174 489l338 -63l-297 -490zM102 0v1333h1049v-332h-645v-161h444v-320h-444v-188h665v-332h-1069z" />
<glyph unicode="&#x1f1d;" horiz-adv-x="1212" d="M-829 1176q0 116 81 200t234 97l80 -250q-79 -12 -104 -42t-25 -79q0 -67 61 -164l-180 -59q-76 71 -111.5 153.5t-35.5 143.5zM-459 948l174 490l338 -64l-297 -489zM102 0v1333h1049v-332h-645v-161h444v-320h-444v-188h665v-332h-1069z" />
<glyph unicode="&#x1f20;" horiz-adv-x="1157" d="M92 0v999h387v-100h8q48 55 125 89t142 34q366 0 366 -416v-606h-387v530q0 162 -115 162q-98 0 -126 -94q-13 -44 -13 -96v-502h-387zM319 1442l117 248q144 -30 217.5 -111t73.5 -193q0 -61 -35.5 -141t-111.5 -151l-181 55q62 99 62 164q0 107 -142 129z" />
<glyph unicode="&#x1f21;" horiz-adv-x="1157" d="M92 0v999h387v-100h8q48 55 125 89t142 34q366 0 366 -416v-606h-387v530q0 162 -115 162q-98 0 -126 -94q-13 -44 -13 -96v-502h-387zM358 1386q0 116 81.5 200t234.5 97l80 -249q-79 -12 -104 -42t-25 -79q0 -67 61 -164l-180 -59q-76 71 -112 153t-36 143z" />
<glyph unicode="&#x1f22;" horiz-adv-x="1157" d="M92 0v999h387v-100h8q48 55 125 89t142 34q366 0 366 -416v-606h-387v530q0 162 -115 162q-98 0 -126 -94q-13 -44 -13 -96v-502h-387zM109 1485l116 248q144 -30 217.5 -110.5t73.5 -192.5q0 -60 -36 -141t-111 -152l-181 55q62 99 62 164q0 110 -141 129zM487 1647 l338 63l174 -491l-217 -64z" />
<glyph unicode="&#x1f23;" horiz-adv-x="1157" d="M92 0v999h387v-100h8q48 55 125 89t142 34q366 0 366 -416v-606h-387v530q0 162 -115 162q-98 0 -126 -94q-13 -44 -13 -96v-502h-387zM106 1397q0 116 81.5 200t234.5 97l80 -250q-79 -12 -104 -42t-25 -79q0 -67 61 -164l-180 -59q-76 71 -112 153.5t-36 143.5z M487 1620l338 63l174 -489l-215 -64z" />
<glyph unicode="&#x1f24;" horiz-adv-x="1157" d="M92 0v999h387v-100h8q48 55 125 89t142 34q366 0 366 -416v-606h-387v530q0 162 -115 162q-98 0 -126 -94q-13 -44 -13 -96v-502h-387zM143 1446l117 248q144 -30 217.5 -110.5t73.5 -192.5q0 -61 -36 -141.5t-112 -151.5l-180 55q62 99 62 164q0 107 -142 129zM549 1159 l174 490l338 -64l-297 -489z" />
<glyph unicode="&#x1f25;" horiz-adv-x="1157" d="M92 0v999h387v-100h8q48 55 125 89t142 34q366 0 366 -416v-606h-387v530q0 162 -115 162q-98 0 -126 -94q-13 -44 -13 -96v-502h-387zM160 1384q0 116 81 200t234 97l80 -249q-79 -12 -104 -42t-25 -79q0 -67 61 -164l-180 -60q-76 71 -111.5 153.5t-35.5 143.5z M530 1157l175 490l337 -64l-297 -489z" />
<glyph unicode="&#x1f26;" horiz-adv-x="1157" d="M92 0v999h387v-100h8q48 55 125 89t142 34q366 0 366 -416v-606h-387v530q0 162 -115 162q-98 0 -126 -94q-13 -44 -13 -96v-502h-387zM121 1587q51 131 126.5 199.5t155.5 68.5q63 0 184 -47t158 -47q63 0 140 86l133 -69q-25 -73 -59 -126.5t-73 -83.5t-78 -43.5 t-81 -13.5q-48 0 -162 45.5t-155 45.5q-23 0 -41 -4t-49 -25.5t-66 -61.5zM414 1325l55 172q143 -6 218 -65t75 -152q0 -88 -79.5 -152t-221.5 -77l-27 106q39 10 68.5 31t29.5 45q0 32 -22.5 51t-95.5 41z" />
<glyph unicode="&#x1f27;" horiz-adv-x="1202" d="M92 0v999h387v-100h8q48 55 125 89t142 34q366 0 366 -416v-606h-387v530q0 162 -115 162q-98 0 -126 -94q-13 -44 -13 -96v-502h-387zM109 1597q51 132 126.5 200.5t155.5 68.5q63 0 184 -47t158 -47q62 0 139 86l134 -70q-32 -97 -82.5 -158.5t-101 -84.5t-107.5 -23 q-48 0 -162.5 45t-155.5 45q-24 0 -41 -4t-48.5 -25t-65.5 -61zM375 1292q6 89 81 148t212 65l55 -170q-74 -22 -96.5 -41t-22.5 -51q0 -24 29.5 -45t68.5 -31l-26 -106q-149 13 -228 75.5t-73 155.5z" />
<glyph unicode="&#x1f28;" horiz-adv-x="1411" d="M-416 1210l117 248q144 -30 217.5 -110.5t73.5 -192.5q0 -61 -36 -141.5t-112 -151.5l-180 56q62 99 62 163q0 107 -142 129zM102 0v1333h402v-491h403v491h402v-1333h-402v512h-403v-512h-402z" />
<glyph unicode="&#x1f29;" horiz-adv-x="1411" d="M-389 1149q0 116 81 200t234 97l80 -250q-79 -12 -104 -42t-25 -79q0 -65 62 -164l-181 -59q-76 71 -111.5 153.5t-35.5 143.5zM102 0v1333h402v-491h403v491h402v-1333h-402v512h-403v-512h-402z" />
<glyph unicode="&#x1f2a;" horiz-adv-x="1411" d="M-831 1221l116 247q144 -30 217.5 -110.5t73.5 -192.5q0 -60 -36 -141t-111 -152l-181 56q62 99 62 164q0 110 -141 129zM-453 1382l338 64l174 -492l-217 -63zM102 0v1333h402v-491h403v491h402v-1333h-402v512h-403v-512h-402z" />
<glyph unicode="&#x1f2b;" horiz-adv-x="1411" d="M-836 1153q0 116 81.5 200t234.5 97l80 -250q-79 -12 -104 -42t-25 -79q0 -67 61 -164l-180 -59q-76 71 -112 153.5t-36 143.5zM-455 1376l338 64l174 -490l-215 -63zM102 0v1333h402v-491h403v491h402v-1333h-402v512h-403v-512h-402z" />
<glyph unicode="&#x1f2c;" horiz-adv-x="1411" d="M-858 1241l117 248q144 -30 217 -110t73 -193q0 -61 -35.5 -141.5t-111.5 -151.5l-180 55q61 97 61 164q0 107 -141 129zM-453 954l174 490l338 -64l-297 -489zM102 0v1333h402v-491h403v491h402v-1333h-402v512h-403v-512h-402z" />
<glyph unicode="&#x1f2d;" horiz-adv-x="1411" d="M-831 1180q0 116 81 200t234 97l80 -250q-79 -12 -104 -42t-25 -79q0 -67 61 -164l-180 -59q-76 71 -111.5 153.5t-35.5 143.5zM-461 952l174 490l338 -64l-297 -489zM102 0v1333h402v-491h403v491h402v-1333h-402v512h-403v-512h-402z" />
<glyph unicode="&#x1f2e;" horiz-adv-x="1411" d="M-858 1245q50 131 126.5 199.5t156.5 68.5q63 0 184 -47t158 -47q62 0 139 86l133 -69q-25 -73 -59 -126.5t-73 -83.5t-78 -43.5t-81 -13.5q-48 0 -162 45.5t-155 45.5q-23 0 -41 -4t-49 -25.5t-66 -61.5zM-565 983l55 172q143 -6 218 -65t75 -152q0 -88 -79.5 -152 t-221.5 -77l-27 106q39 10 69 31t30 45q0 32 -22.5 51t-96.5 41zM102 0v1333h402v-491h403v491h402v-1333h-402v512h-403v-512h-402z" />
<glyph unicode="&#x1f2f;" horiz-adv-x="1411" d="M-846 1241q50 131 126.5 199.5t156.5 68.5q63 0 184 -47t158 -47q62 0 139 86l133 -69q-25 -73 -59 -126.5t-73 -83.5t-78 -43.5t-81 -13.5q-48 0 -162 45t-155 45q-24 0 -41.5 -4t-49 -25t-65.5 -61zM-580 936q6 89 81 148t212 65l56 -170q-74 -22 -96.5 -41t-22.5 -51 q0 -24 29.5 -45t68.5 -31l-27 -106q-149 13 -228 75.5t-73 155.5zM102 0v1333h402v-491h403v491h402v-1333h-402v512h-403v-512h-402z" />
<glyph unicode="&#x1f30;" horiz-adv-x="632" d="M94 1446l117 248q144 -30 217.5 -110.5t73.5 -192.5q0 -61 -36 -141.5t-112 -151.5l-180 55q62 99 62 164q0 107 -142 129zM123 0v1001h387v-1001h-387z" />
<glyph unicode="&#x1f31;" horiz-adv-x="632" d="M123 0v1001h387v-1001h-387zM133 1389q0 116 81.5 200t234.5 97l79 -250q-79 -12 -104 -42t-25 -79q0 -65 62 -164l-180 -59q-76 71 -112 153.5t-36 143.5z" />
<glyph unicode="&#x1f32;" horiz-adv-x="632" d="M-121 1487l117 248q144 -30 217.5 -110.5t73.5 -192.5q0 -60 -36.5 -141t-111.5 -152l-180 55q61 97 61 164q0 110 -141 129zM123 0v1001h387v-1001h-387zM258 1649l338 63l174 -491l-217 -64z" />
<glyph unicode="&#x1f33;" horiz-adv-x="632" d="M-141 1397q0 116 81 200t234 97l80 -250q-79 -12 -104 -42t-25 -79q0 -67 61 -164l-180 -59q-76 71 -111.5 153.5t-35.5 143.5zM123 0v1001h387v-1001h-387zM240 1620l338 63l174 -489l-215 -64z" />
<glyph unicode="&#x1f34;" horiz-adv-x="632" d="M-88 1430l117 247q144 -30 217 -110t73 -193q0 -61 -35.5 -141.5t-111.5 -151.5l-180 56q61 97 61 163q0 108 -141 130zM123 0v1001h387v-1001h-387zM317 1143l175 489l337 -63l-297 -490z" />
<glyph unicode="&#x1f35;" horiz-adv-x="632" d="M-82 1372q0 116 81 200t234 97l80 -250q-79 -12 -104 -42t-25 -79q0 -64 62 -163l-180 -60q-76 71 -112 153.5t-36 143.5zM123 0v1001h387v-1001h-387zM289 1145l174 489l338 -63l-297 -490z" />
<glyph unicode="&#x1f36;" horiz-adv-x="632" d="M-137 1616q51 131 126.5 199.5t155.5 68.5q63 0 184 -47t158 -47q63 0 140 86l133 -70q-32 -97 -82.5 -158.5t-101 -84.5t-107.5 -23q-48 0 -162 45t-155 45q-24 0 -41.5 -4t-49 -25t-65.5 -61zM123 0v1001h387v-1001h-387zM156 1354l55 172q143 -6 218 -65t75 -152 q0 -88 -79.5 -152.5t-221.5 -77.5l-27 107q39 10 68.5 31t29.5 45q0 32 -22.5 51t-95.5 41z" />
<glyph unicode="&#x1f37;" horiz-adv-x="632" d="M-137 1618q51 131 126.5 199.5t155.5 68.5q63 0 184 -47t158 -47q63 0 140 86l133 -70q-32 -97 -82.5 -158.5t-101 -84.5t-107.5 -23q-48 0 -162 45t-155 45q-24 0 -41.5 -4t-49 -25t-65.5 -61zM123 0v1001h387v-1001h-387zM129 1313q6 89 81 148t212 65l55 -170 q-74 -22 -96.5 -41t-22.5 -51q0 -24 30 -45t69 -31l-27 -107q-149 13 -228 75.5t-73 156.5z" />
<glyph unicode="&#x1f38;" horiz-adv-x="649" d="M-385 1221l117 247q144 -30 217.5 -110.5t73.5 -192.5q0 -61 -36 -141.5t-112 -151.5l-180 56q61 97 61 164q0 107 -141 129zM123 0v1333h403v-1333h-403z" />
<glyph unicode="&#x1f39;" horiz-adv-x="649" d="M-350 1141q0 116 81 200t234 97l80 -250q-79 -12 -104 -42t-25 -79q0 -67 61 -164l-180 -59q-76 71 -111.5 153.5t-35.5 143.5zM123 0v1333h403v-1333h-403z" />
<glyph unicode="&#x1f3a;" horiz-adv-x="649" d="M-811 1214l117 248q144 -30 217.5 -110.5t73.5 -192.5q0 -60 -36.5 -141t-111.5 -152l-180 56q61 97 61 163q0 110 -141 129zM-432 1376l338 64l174 -492l-217 -63zM123 0v1333h403v-1333h-403z" />
<glyph unicode="&#x1f3b;" horiz-adv-x="649" d="M-811 1159q0 116 81 200t234 97l80 -250q-79 -12 -104 -42t-25 -79q0 -64 62 -163l-181 -60q-76 71 -111.5 153.5t-35.5 143.5zM-430 1382l338 64l174 -490l-215 -63zM123 0v1333h403v-1333h-403z" />
<glyph unicode="&#x1f3c;" horiz-adv-x="649" d="M-838 1235l117 248q144 -30 217.5 -110.5t73.5 -192.5q0 -61 -36 -141.5t-112 -151.5l-180 55q62 99 62 164q0 107 -142 129zM-432 948l174 490l338 -64l-297 -489zM123 0v1333h403v-1333h-403z" />
<glyph unicode="&#x1f3d;" horiz-adv-x="649" d="M-811 1174q0 116 81 199.5t234 96.5l80 -249q-79 -12 -104 -42t-25 -79q0 -65 62 -164l-181 -59q-76 71 -111.5 153.5t-35.5 143.5zM-440 946l174 490l338 -64l-297 -489zM123 0v1333h403v-1333h-403z" />
<glyph unicode="&#x1f3e;" horiz-adv-x="649" d="M-791 1245q50 131 126.5 199.5t156.5 68.5q63 0 184 -47t158 -47q62 0 139 86l133 -69q-32 -97 -82 -158.5t-100.5 -85t-107.5 -23.5q-48 0 -162.5 45.5t-155.5 45.5q-23 0 -40.5 -4t-48.5 -25.5t-66 -61.5zM-498 983l56 172q143 -6 217.5 -65t74.5 -152 q0 -88 -79.5 -152t-221.5 -77l-26 106q39 10 68.5 31t29.5 45q0 32 -22.5 51t-96.5 41zM123 0v1333h403v-1333h-403z" />
<glyph unicode="&#x1f3f;" horiz-adv-x="649" d="M-795 1247q51 131 127 200t156 69q63 0 184 -47.5t158 -47.5q62 0 139 86l133 -69q-32 -97 -82 -158.5t-100.5 -85t-107.5 -23.5q-48 0 -162.5 45.5t-155.5 45.5q-23 0 -41 -4t-49 -25.5t-66 -61.5zM-528 942q6 89 80.5 148t211.5 65l56 -170q-74 -22 -96.5 -41 t-22.5 -51q0 -24 29.5 -45t68.5 -31l-26 -106q-149 13 -228 75.5t-73 155.5zM123 0v1333h403v-1333h-403z" />
<glyph unicode="&#x1f40;" horiz-adv-x="1236" d="M82 496q0 243 143.5 384.5t392.5 141.5t393 -142.5t144 -381.5q0 -242 -145 -382.5t-396 -140.5q-247 0 -389.5 142t-142.5 379zM406 1442l116 248q144 -30 217.5 -111t73.5 -193q0 -61 -35.5 -141t-111.5 -151l-181 55q62 99 62 164q0 107 -141 129zM477 498 q0 -219 141 -219q72 0 106 58.5t34 158.5q0 223 -144 223q-70 0 -103.5 -60.5t-33.5 -160.5z" />
<glyph unicode="&#x1f41;" horiz-adv-x="1236" d="M82 496q0 243 143.5 384.5t392.5 141.5t393 -142.5t144 -381.5q0 -242 -145 -382.5t-396 -140.5q-247 0 -389.5 142t-142.5 379zM444 1386q0 116 81.5 200t234.5 97l80 -249q-79 -12 -104 -42t-25 -79q0 -67 61 -164l-180 -59q-76 71 -112 153t-36 143zM477 498 q0 -219 141 -219q72 0 106 58.5t34 158.5q0 223 -144 223q-70 0 -103.5 -60.5t-33.5 -160.5z" />
<glyph unicode="&#x1f42;" horiz-adv-x="1236" d="M82 496q0 243 143.5 384.5t392.5 141.5t393 -142.5t144 -381.5q0 -242 -145 -382.5t-396 -140.5q-247 0 -389.5 142t-142.5 379zM160 1479l116 247q144 -30 217.5 -110.5t73.5 -192.5q0 -60 -36 -141t-111 -152l-180 56q61 97 61 164q0 110 -141 129zM477 498 q0 -219 141 -219q72 0 106 58.5t34 158.5q0 223 -144 223q-70 0 -103.5 -60.5t-33.5 -160.5zM539 1640l338 64l174 -492l-217 -63z" />
<glyph unicode="&#x1f43;" horiz-adv-x="1236" d="M82 496q0 243 143.5 384.5t392.5 141.5t393 -142.5t144 -381.5q0 -242 -145 -382.5t-396 -140.5q-247 0 -389.5 142t-142.5 379zM166 1417q0 116 81 200t234 97l80 -250q-79 -12 -104 -42t-25 -79q0 -64 62 -163l-181 -60q-76 71 -111.5 153.5t-35.5 143.5zM477 498 q0 -219 141 -219q72 0 106 58.5t34 158.5q0 223 -144 223q-70 0 -103.5 -60.5t-33.5 -160.5zM547 1640l338 64l174 -490l-215 -63z" />
<glyph unicode="&#x1f44;" horiz-adv-x="1236" d="M82 496q0 243 143.5 384.5t392.5 141.5t393 -142.5t144 -381.5q0 -242 -145 -382.5t-396 -140.5q-247 0 -389.5 142t-142.5 379zM225 1434l117 247q144 -30 217.5 -110.5t73.5 -192.5q0 -61 -36 -141.5t-112 -151.5l-180 56q62 99 62 164q0 107 -142 129zM477 498 q0 -219 141 -219q72 0 106 58.5t34 158.5q0 223 -144 223q-70 0 -103.5 -60.5t-33.5 -160.5zM631 1147l174 489l338 -63l-297 -490z" />
<glyph unicode="&#x1f45;" horiz-adv-x="1236" d="M82 496q0 243 143.5 384.5t392.5 141.5t393 -142.5t144 -381.5q0 -242 -145 -382.5t-396 -140.5q-247 0 -389.5 142t-142.5 379zM229 1376q0 116 81.5 200t234.5 97l80 -250q-79 -12 -104 -42t-25 -78q0 -67 61 -164l-180 -60q-76 71 -112 153.5t-36 143.5zM477 498 q0 -219 141 -219q72 0 106 58.5t34 158.5q0 223 -144 223q-70 0 -103.5 -60.5t-33.5 -160.5zM600 1149l174 489l338 -63l-297 -490z" />
<glyph unicode="&#x1f48;" horiz-adv-x="1419" d="M-362 1239l116 248q144 -30 217.5 -110.5t73.5 -192.5q0 -61 -35.5 -141.5t-111.5 -151.5l-181 55q62 99 62 164q0 107 -141 129zM82 662q0 326 159.5 510t469.5 184q308 0 467 -184.5t159 -507.5q0 -325 -160 -507t-472 -182q-306 0 -464.5 184t-158.5 503zM498 670 q0 -160 54 -254t159 -94q72 0 120.5 49.5t68.5 124.5t20 172q0 155 -52 247.5t-163 92.5q-104 0 -155.5 -95t-51.5 -243z" />
<glyph unicode="&#x1f49;" horiz-adv-x="1419" d="M-311 1188q0 116 81 200t234 97l80 -250q-79 -12 -104 -42t-25 -79q0 -67 61 -164l-180 -59q-76 71 -111.5 153.5t-35.5 143.5zM82 662q0 326 159.5 510t469.5 184q308 0 467 -184.5t159 -507.5q0 -325 -160 -507t-472 -182q-306 0 -464.5 184t-158.5 503zM498 670 q0 -160 54 -254t159 -94q72 0 120.5 49.5t68.5 124.5t20 172q0 155 -52 247.5t-163 92.5q-104 0 -155.5 -95t-51.5 -243z" />
<glyph unicode="&#x1f4a;" horiz-adv-x="1419" d="M-801 1231l117 248q144 -30 217.5 -110.5t73.5 -192.5q0 -60 -36.5 -141t-111.5 -152l-180 55q62 99 62 164q0 110 -142 129zM-422 1393l338 63l174 -491l-217 -64zM82 662q0 326 159.5 510t469.5 184q308 0 467 -184.5t159 -507.5q0 -325 -160 -507t-472 -182 q-306 0 -464.5 184t-158.5 503zM498 670q0 -160 54 -254t159 -94q72 0 120.5 49.5t68.5 124.5t20 172q0 155 -52 247.5t-163 92.5q-104 0 -155.5 -95t-51.5 -243z" />
<glyph unicode="&#x1f4b;" horiz-adv-x="1419" d="M-815 1155q0 116 81 200t234 97l80 -250q-79 -12 -104 -42t-25 -79q0 -64 62 -163l-181 -60q-76 71 -111.5 153.5t-35.5 143.5zM-434 1378l338 64l174 -490l-215 -63zM82 662q0 326 159.5 510t469.5 184q308 0 467 -184.5t159 -507.5q0 -325 -160 -507t-472 -182 q-306 0 -464.5 184t-158.5 503zM498 670q0 -160 54 -254t159 -94q72 0 120.5 49.5t68.5 124.5t20 172q0 155 -52 247.5t-163 92.5q-104 0 -155.5 -95t-51.5 -243z" />
<glyph unicode="&#x1f4c;" horiz-adv-x="1419" d="M-717 1241l117 248q144 -30 217.5 -110.5t73.5 -192.5q0 -61 -36 -141.5t-112 -151.5l-180 55q62 99 62 164q0 107 -142 129zM-311 954l174 490l338 -64l-297 -489zM82 662q0 326 159.5 510t469.5 184q308 0 467 -184.5t159 -507.5q0 -325 -160 -507t-472 -182 q-306 0 -464.5 184t-158.5 503zM498 670q0 -160 54 -254t159 -94q72 0 120.5 49.5t68.5 124.5t20 172q0 155 -52 247.5t-163 92.5q-104 0 -155.5 -95t-51.5 -243z" />
<glyph unicode="&#x1f4d;" horiz-adv-x="1419" d="M-698 1180q0 116 81 200t234 97l80 -250q-79 -12 -104 -42t-25 -79q0 -67 61 -164l-180 -59q-76 71 -111.5 153.5t-35.5 143.5zM-328 952l174 490l338 -64l-297 -489zM82 662q0 326 159.5 510t469.5 184q308 0 467 -184.5t159 -507.5q0 -325 -160 -507t-472 -182 q-306 0 -464.5 184t-158.5 503zM498 670q0 -160 54 -254t159 -94q72 0 120.5 49.5t68.5 124.5t20 172q0 155 -52 247.5t-163 92.5q-104 0 -155.5 -95t-51.5 -243z" />
<glyph unicode="&#x1f50;" horiz-adv-x="1218" d="M92 449v552h387v-552q0 -170 127 -170q135 0 135 170v552l385 -2v-550q0 -224 -137.5 -349t-378.5 -125q-240 0 -379 124.5t-139 349.5zM356 1442l117 248q144 -30 217.5 -111t73.5 -193q0 -60 -36 -140.5t-112 -151.5l-180 55q62 99 62 164q0 107 -142 129z" />
<glyph unicode="&#x1f51;" horiz-adv-x="1218" d="M92 449v552h387v-552q0 -170 127 -170q135 0 135 170v552l385 -2v-550q0 -224 -137.5 -349t-378.5 -125q-240 0 -379 124.5t-139 349.5zM406 1386q0 116 81 200t234 97l80 -249q-79 -12 -104 -42t-25 -79q0 -67 61 -164l-180 -59q-76 71 -111.5 153t-35.5 143z" />
<glyph unicode="&#x1f52;" horiz-adv-x="1218" d="M92 449v552h387v-552q0 -170 127 -170q135 0 135 170v552l385 -2v-550q0 -224 -137.5 -349t-378.5 -125q-240 0 -379 124.5t-139 349.5zM143 1485l117 248q144 -30 217.5 -110.5t73.5 -192.5q0 -60 -36.5 -141t-111.5 -152l-180 55q62 99 62 164q0 110 -142 129z M522 1647l338 63l174 -491l-217 -64z" />
<glyph unicode="&#x1f53;" horiz-adv-x="1218" d="M92 449v552h387v-552q0 -170 127 -170q135 0 135 170v552l385 -2v-550q0 -224 -137.5 -349t-378.5 -125q-240 0 -379 124.5t-139 349.5zM123 1399q0 116 81 200t234 97l80 -250q-79 -12 -104 -42t-25 -79q0 -65 62 -164l-181 -59q-76 71 -111.5 153.5t-35.5 143.5z M504 1622l338 64l174 -490l-215 -63z" />
<glyph unicode="&#x1f54;" horiz-adv-x="1218" d="M92 449v552h387v-552q0 -170 127 -170q135 0 135 170v552l385 -2v-550q0 -224 -137.5 -349t-378.5 -125q-240 0 -379 124.5t-139 349.5zM213 1430l117 247q144 -30 217.5 -110.5t73.5 -192.5q0 -61 -36 -141.5t-112 -151.5l-180 56q61 97 61 163q0 108 -141 130z M618 1143l175 489l337 -63l-296 -490z" />
<glyph unicode="&#x1f55;" horiz-adv-x="1218" d="M92 449v552h387v-552q0 -170 127 -170q135 0 135 170v552l385 -2v-550q0 -224 -137.5 -349t-378.5 -125q-240 0 -379 124.5t-139 349.5zM209 1372q0 116 81 200t234 97l80 -250q-79 -12 -104 -42t-25 -79q0 -64 62 -163l-181 -60q-76 71 -111.5 153.5t-35.5 143.5z M580 1145l174 489l338 -63l-297 -490z" />
<glyph unicode="&#x1f56;" horiz-adv-x="1218" d="M92 449v552h387v-552q0 -170 127 -170q135 0 135 170v552l385 -2v-550q0 -224 -137.5 -349t-378.5 -125q-240 0 -379 124.5t-139 349.5zM172 1575q50 131 126.5 199.5t156.5 68.5q63 0 184 -47t158 -47q62 0 139 86l133 -70q-32 -97 -82.5 -158.5t-101 -84.5t-107.5 -23 q-48 0 -162 45t-155 45q-24 0 -41.5 -4t-49 -25t-65.5 -61zM465 1313l55 172q143 -6 218 -65t75 -152q0 -88 -79.5 -152.5t-221.5 -77.5l-27 107q39 10 69 31t30 45q0 32 -22.5 51t-96.5 41z" />
<glyph unicode="&#x1f57;" horiz-adv-x="1218" d="M92 449v552h387v-552q0 -170 127 -170q135 0 135 170v552l385 -2v-550q0 -224 -137.5 -349t-378.5 -125q-240 0 -379 124.5t-139 349.5zM106 1577q50 131 126.5 199.5t156.5 68.5q63 0 184 -47t158 -47q62 0 139 86l134 -70q-32 -97 -82.5 -158.5t-101 -84.5t-107.5 -23 q-48 0 -162.5 45t-155.5 45q-24 0 -41 -4t-48.5 -25t-65.5 -61zM373 1272q6 89 81 148t212 65l55 -170q-74 -22 -96.5 -41t-22.5 -51q0 -24 29.5 -45t68.5 -31l-26 -107q-149 13 -228 75.5t-73 156.5z" />
<glyph unicode="&#x1f59;" horiz-adv-x="1431" d="M-408 1182q0 116 81.5 200t234.5 97l80 -250q-79 -12 -104 -42t-25 -79q0 -67 61 -164l-180 -59q-76 71 -112 153.5t-36 143.5zM4 1333h432l142 -293q119 -248 141 -297q36 80 145 308l135 282h428l-509 -891v-442h-404v438z" />
<glyph unicode="&#x1f5b;" horiz-adv-x="1431" d="M-840 1194q0 116 81.5 200t234.5 97l80 -250q-79 -12 -104 -42t-25 -79q0 -67 61 -164l-180 -59q-76 71 -112 153.5t-36 143.5zM-459 1417l338 64l174 -490l-215 -63zM4 1333h432l142 -293q119 -248 141 -297q36 80 145 308l135 282h428l-509 -891v-442h-404v438z" />
<glyph unicode="&#x1f5d;" horiz-adv-x="1431" d="M-903 1180q0 116 81 200t234 97l80 -250q-79 -12 -104 -42t-25 -79q0 -65 62 -164l-181 -59q-76 71 -111.5 153.5t-35.5 143.5zM-532 952l174 490l338 -64l-297 -489zM4 1333h432l142 -293q119 -248 141 -297q36 80 145 308l135 282h428l-509 -891v-442h-404v438z" />
<glyph unicode="&#x1f5f;" horiz-adv-x="1431" d="M-909 1247q51 132 126.5 200.5t155.5 68.5q63 0 184 -47.5t158 -47.5q63 0 140 86l133 -69q-25 -73 -59 -126.5t-73 -83.5t-78 -43.5t-81 -13.5q-48 0 -162.5 45.5t-155.5 45.5q-23 0 -40.5 -4t-48.5 -25.5t-66 -61.5zM-643 942q6 89 81 148t212 65l55 -170 q-74 -22 -96.5 -41t-22.5 -51q0 -24 30 -45t69 -31l-27 -106q-149 13 -228 75.5t-73 155.5zM4 1333h432l142 -293q119 -248 141 -297q36 80 145 308l135 282h428l-509 -891v-442h-404v438z" />
<glyph unicode="&#x1f60;" horiz-adv-x="1650" d="M82 506q0 85 29.5 168.5t84.5 157t145 126.5t202 70l98 -268q-162 -56 -162 -260q0 -121 29 -173.5t70 -52.5t66.5 29t25.5 76v242h311v-248q0 -49 25 -74t67 -25q41 0 69.5 52.5t28.5 173.5q0 204 -161 260l98 268q112 -17 202 -70t145 -126.5t84.5 -157t29.5 -168.5 q0 -154 -52.5 -271.5t-159 -186t-255.5 -68.5q-86 0 -160.5 38.5t-114.5 102.5h-4q-40 -64 -114.5 -102.5t-159.5 -38.5q-226 0 -346.5 138.5t-120.5 387.5zM582 1442l116 248q144 -30 217.5 -111t73.5 -193q0 -61 -35.5 -141t-111.5 -151l-180 55q61 97 61 164 q0 107 -141 129z" />
<glyph unicode="&#x1f61;" horiz-adv-x="1650" d="M82 506q0 85 29.5 168.5t84.5 157t145 126.5t202 70l98 -268q-162 -56 -162 -260q0 -121 29 -173.5t70 -52.5t66.5 29t25.5 76v242h311v-248q0 -49 25 -74t67 -25q41 0 69.5 52.5t28.5 173.5q0 204 -161 260l98 268q112 -17 202 -70t145 -126.5t84.5 -157t29.5 -168.5 q0 -154 -52.5 -271.5t-159 -186t-255.5 -68.5q-86 0 -160.5 38.5t-114.5 102.5h-4q-40 -64 -114.5 -102.5t-159.5 -38.5q-226 0 -346.5 138.5t-120.5 387.5zM643 1386q0 116 81 200t234 97l80 -249q-79 -12 -104 -42t-25 -79q0 -65 62 -164l-180 -59q-76 71 -112 153 t-36 143z" />
<glyph unicode="&#x1f62;" horiz-adv-x="1650" d="M82 506q0 85 29.5 168.5t84.5 157t145 126.5t202 70l98 -268q-162 -56 -162 -260q0 -121 29 -173.5t70 -52.5t66.5 29t25.5 76v242h311v-248q0 -49 25 -74t67 -25q41 0 69.5 52.5t28.5 173.5q0 204 -161 260l98 268q112 -17 202 -70t145 -126.5t84.5 -157t29.5 -168.5 q0 -154 -52.5 -271.5t-159 -186t-255.5 -68.5q-86 0 -160.5 38.5t-114.5 102.5h-4q-40 -64 -114.5 -102.5t-159.5 -38.5q-226 0 -346.5 138.5t-120.5 387.5zM373 1462l116 248q144 -30 217.5 -110.5t73.5 -192.5q0 -60 -36 -141t-111 -152l-180 55q61 97 61 164 q0 110 -141 129zM752 1624l338 64l174 -492l-217 -63z" />
<glyph unicode="&#x1f63;" horiz-adv-x="1650" d="M82 506q0 85 29.5 168.5t84.5 157t145 126.5t202 70l98 -268q-162 -56 -162 -260q0 -121 29 -173.5t70 -52.5t66.5 29t25.5 76v242h311v-248q0 -49 25 -74t67 -25q41 0 69.5 52.5t28.5 173.5q0 204 -161 260l98 268q112 -17 202 -70t145 -126.5t84.5 -157t29.5 -168.5 q0 -154 -52.5 -271.5t-159 -186t-255.5 -68.5q-86 0 -160.5 38.5t-114.5 102.5h-4q-40 -64 -114.5 -102.5t-159.5 -38.5q-226 0 -346.5 138.5t-120.5 387.5zM360 1395q0 116 81.5 200t234.5 97l80 -250q-79 -12 -104 -42t-25 -79q0 -67 61 -164l-180 -59q-76 71 -112 153.5 t-36 143.5zM741 1618l338 63l174 -489l-215 -64z" />
<glyph unicode="&#x1f64;" horiz-adv-x="1650" d="M82 506q0 85 29.5 168.5t84.5 157t145 126.5t202 70l98 -268q-162 -56 -162 -260q0 -121 29 -173.5t70 -52.5t66.5 29t25.5 76v242h311v-248q0 -49 25 -74t67 -25q41 0 69.5 52.5t28.5 173.5q0 204 -161 260l98 268q112 -17 202 -70t145 -126.5t84.5 -157t29.5 -168.5 q0 -154 -52.5 -271.5t-159 -186t-255.5 -68.5q-86 0 -160.5 38.5t-114.5 102.5h-4q-40 -64 -114.5 -102.5t-159.5 -38.5q-226 0 -346.5 138.5t-120.5 387.5zM432 1425l117 248q144 -30 217.5 -110.5t73.5 -192.5q0 -61 -36 -141.5t-112 -151.5l-180 56q61 97 61 163 q0 107 -141 129zM838 1139l174 489l338 -63l-297 -490z" />
<glyph unicode="&#x1f65;" horiz-adv-x="1650" d="M82 506q0 85 29.5 168.5t84.5 157t145 126.5t202 70l98 -268q-162 -56 -162 -260q0 -121 29 -173.5t70 -52.5t66.5 29t25.5 76v242h311v-248q0 -49 25 -74t67 -25q41 0 69.5 52.5t28.5 173.5q0 204 -161 260l98 268q112 -17 202 -70t145 -126.5t84.5 -157t29.5 -168.5 q0 -154 -52.5 -271.5t-159 -186t-255.5 -68.5q-86 0 -160.5 38.5t-114.5 102.5h-4q-40 -64 -114.5 -102.5t-159.5 -38.5q-226 0 -346.5 138.5t-120.5 387.5zM422 1372q0 116 81 200t234 97l80 -250q-79 -12 -104 -42t-25 -79q0 -64 62 -163l-181 -60q-76 71 -111.5 153.5 t-35.5 143.5zM793 1145l174 489l338 -63l-297 -490z" />
<glyph unicode="&#x1f66;" horiz-adv-x="1650" d="M82 506q0 85 29.5 168.5t84.5 157t145 126.5t202 70l98 -268q-162 -56 -162 -260q0 -121 29 -173.5t70 -52.5t66.5 29t25.5 76v242h311v-248q0 -49 25 -74t67 -25q41 0 69.5 52.5t28.5 173.5q0 204 -161 260l98 268q112 -17 202 -70t145 -126.5t84.5 -157t29.5 -168.5 q0 -154 -52.5 -271.5t-159 -186t-255.5 -68.5q-86 0 -160.5 38.5t-114.5 102.5h-4q-40 -64 -114.5 -102.5t-159.5 -38.5q-226 0 -346.5 138.5t-120.5 387.5zM375 1542q51 131 126.5 199.5t155.5 68.5q63 0 184 -47t158 -47q63 0 140 86l133 -69q-25 -73 -59 -126.5 t-73 -83.5t-78 -43.5t-81 -13.5q-48 0 -162 45t-155 45q-24 0 -41.5 -4t-49 -25t-65.5 -61zM668 1280l55 172q143 -6 218 -65t75 -152q0 -88 -79.5 -152t-221.5 -77l-27 106q39 10 68.5 31t29.5 45q0 32 -22.5 51t-95.5 41z" />
<glyph unicode="&#x1f67;" horiz-adv-x="1650" d="M82 506q0 85 29.5 168.5t84.5 157t145 126.5t202 70l98 -268q-162 -56 -162 -260q0 -121 29 -173.5t70 -52.5t66.5 29t25.5 76v242h311v-248q0 -49 25 -74t67 -25q41 0 69.5 52.5t28.5 173.5q0 204 -161 260l98 268q112 -17 202 -70t145 -126.5t84.5 -157t29.5 -168.5 q0 -154 -52.5 -271.5t-159 -186t-255.5 -68.5q-86 0 -160.5 38.5t-114.5 102.5h-4q-40 -64 -114.5 -102.5t-159.5 -38.5q-226 0 -346.5 138.5t-120.5 387.5zM352 1530q50 131 126.5 199.5t156.5 68.5q63 0 184 -47t158 -47q62 0 139 86l133 -70q-32 -97 -82.5 -158.5 t-101 -84.5t-107.5 -23q-48 0 -162 45t-155 45q-24 0 -41.5 -4t-49 -25t-65.5 -61zM618 1225q6 89 81 148t212 65l56 -170q-74 -22 -96.5 -41t-22.5 -51q0 -24 29.5 -45t68.5 -31l-26 -107q-149 13 -228.5 75.5t-73.5 156.5z" />
<glyph unicode="&#x1f68;" horiz-adv-x="1468" d="M-346 1233l117 248q144 -30 217 -110t73 -193q0 -61 -35.5 -141.5t-111.5 -151.5l-180 55q61 97 61 164q0 107 -141 129zM92 0v330h148q-58 50 -92.5 147t-34.5 203q0 313 164.5 494.5t461.5 181.5q295 0 463 -175t168 -472q0 -94 -36 -204.5t-99 -172.5h141v-332h-577 v317q162 57 162 340q0 164 -55.5 257.5t-166.5 93.5q-103 0 -160 -90.5t-57 -235.5q0 -150 34 -238.5t122 -121.5v-322h-586z" />
<glyph unicode="&#x1f69;" horiz-adv-x="1468" d="M-309 1184q0 116 81 200t234 97l80 -250q-79 -12 -104 -42t-25 -79q0 -67 61 -164l-180 -59q-76 71 -111.5 153.5t-35.5 143.5zM92 0v330h148q-58 50 -92.5 147t-34.5 203q0 313 164.5 494.5t461.5 181.5q295 0 463 -175t168 -472q0 -94 -36 -204.5t-99 -172.5h141v-332 h-577v317q162 57 162 340q0 164 -55.5 257.5t-166.5 93.5q-103 0 -160 -90.5t-57 -235.5q0 -150 34 -238.5t122 -121.5v-322h-586z" />
<glyph unicode="&#x1f6a;" horiz-adv-x="1468" d="M-750 1249l117 248q144 -30 217.5 -110.5t73.5 -192.5q0 -60 -36 -141t-111 -152l-181 55q62 99 62 164q0 110 -142 129zM-371 1411l338 64l174 -492l-217 -63zM92 0v330h148q-58 50 -92.5 147t-34.5 203q0 313 164.5 494.5t461.5 181.5q295 0 463 -175t168 -472 q0 -94 -36 -204.5t-99 -172.5h141v-332h-577v317q162 57 162 340q0 164 -55.5 257.5t-166.5 93.5q-103 0 -160 -90.5t-57 -235.5q0 -150 34 -238.5t122 -121.5v-322h-586z" />
<glyph unicode="&#x1f6b;" horiz-adv-x="1468" d="M-778 1194q0 116 81 200t234 97l80 -250q-79 -12 -104 -42t-25 -79q0 -67 61 -164l-180 -59q-76 71 -111.5 153.5t-35.5 143.5zM-397 1417l338 64l174 -490l-215 -63zM92 0v330h148q-58 50 -92.5 147t-34.5 203q0 313 164.5 494.5t461.5 181.5q295 0 463 -175t168 -472 q0 -94 -36 -204.5t-99 -172.5h141v-332h-577v317q162 57 162 340q0 164 -55.5 257.5t-166.5 93.5q-103 0 -160 -90.5t-57 -235.5q0 -150 34 -238.5t122 -121.5v-322h-586z" />
<glyph unicode="&#x1f6c;" horiz-adv-x="1468" d="M-662 1239l117 248q144 -30 217.5 -110.5t73.5 -192.5q0 -61 -35.5 -141.5t-111.5 -151.5l-181 55q62 99 62 164q0 107 -142 129zM-256 952l174 490l338 -64l-297 -489zM92 0v330h148q-58 50 -92.5 147t-34.5 203q0 313 164.5 494.5t461.5 181.5q295 0 463 -175t168 -472 q0 -94 -36 -204.5t-99 -172.5h141v-332h-577v317q162 57 162 340q0 164 -55.5 257.5t-166.5 93.5q-103 0 -160 -90.5t-57 -235.5q0 -150 34 -238.5t122 -121.5v-322h-586z" />
<glyph unicode="&#x1f6d;" horiz-adv-x="1468" d="M-621 1196q0 116 81.5 200t234.5 97l80 -250q-79 -12 -104 -42t-25 -79q0 -67 61 -164l-180 -59q-76 71 -112 153.5t-36 143.5zM-250 969l174 489l338 -63l-297 -490zM92 0v330h148q-58 50 -92.5 147t-34.5 203q0 313 164.5 494.5t461.5 181.5q295 0 463 -175t168 -472 q0 -94 -36 -204.5t-99 -172.5h141v-332h-577v317q162 57 162 340q0 164 -55.5 257.5t-166.5 93.5q-103 0 -160 -90.5t-57 -235.5q0 -150 34 -238.5t122 -121.5v-322h-586z" />
<glyph unicode="&#x1f6e;" horiz-adv-x="1468" d="M-627 1243q50 131 126.5 199.5t156.5 68.5q63 0 184 -47t158 -47q62 0 139 86l133 -69q-32 -97 -82 -158.5t-100.5 -85t-107.5 -23.5q-48 0 -162.5 45t-155.5 45q-24 0 -41.5 -4t-49 -25t-65.5 -61zM-334 981l55 172q143 -6 218 -65t75 -152q0 -88 -79.5 -152t-221.5 -77 l-26 106q39 10 68.5 31t29.5 45q0 32 -22.5 51t-96.5 41zM92 0v330h148q-58 50 -92.5 147t-34.5 203q0 313 164.5 494.5t461.5 181.5q295 0 463 -175t168 -472q0 -94 -36 -204.5t-99 -172.5h141v-332h-577v317q162 57 162 340q0 164 -55.5 257.5t-166.5 93.5 q-103 0 -160 -90.5t-57 -235.5q0 -150 34 -238.5t122 -121.5v-322h-586z" />
<glyph unicode="&#x1f6f;" horiz-adv-x="1468" d="M-614 1239q51 131 126.5 199.5t155.5 68.5q63 0 184 -47t158 -47q63 0 140 86l133 -69q-25 -73 -59 -126.5t-73 -83.5t-78 -43.5t-81 -13.5q-48 0 -162.5 45t-155.5 45q-24 0 -41 -4t-48.5 -25t-65.5 -61zM-348 934q6 89 81 148t212 65l55 -170q-74 -22 -96.5 -41 t-22.5 -51q0 -24 30 -45t69 -31l-27 -107q-149 13 -228 75.5t-73 156.5zM92 0v330h148q-58 50 -92.5 147t-34.5 203q0 313 164.5 494.5t461.5 181.5q295 0 463 -175t168 -472q0 -94 -36 -204.5t-99 -172.5h141v-332h-577v317q162 57 162 340q0 164 -55.5 257.5t-166.5 93.5 q-103 0 -160 -90.5t-57 -235.5q0 -150 34 -238.5t122 -121.5v-322h-586z" />
<glyph unicode="&#x1f70;" horiz-adv-x="1218" d="M82 479q0 135 30.5 239.5t85 170t126 98.5t157.5 33q68 0 139.5 -30.5t114.5 -76.5l6 2v86h385v-1001h-335l-37 88h-9q-114 -106 -272 -106q-79 0 -148.5 31t-124.5 90.5t-86.5 156t-31.5 219.5zM231 1599l355 64l174 -494l-232 -63zM485 494q0 -199 121 -199q31 0 67 15 t64 42v291q-54 59 -131 59q-55 0 -88 -53t-33 -155z" />
<glyph unicode="&#x1f71;" horiz-adv-x="1218" d="M82 479q0 135 30.5 239.5t85 170t126 98.5t157.5 33q68 0 139.5 -30.5t114.5 -76.5l6 2v86h385v-1001h-335l-37 88h-9q-114 -106 -272 -106q-79 0 -148.5 31t-124.5 90.5t-86.5 156t-31.5 219.5zM467 1171l174 494l354 -63l-297 -494zM485 494q0 -199 121 -199 q31 0 67 15t64 42v291q-54 59 -131 59q-55 0 -88 -53t-33 -155z" />
<glyph unicode="&#x1f72;" horiz-adv-x="1034" d="M82 270q0 66 34.5 127.5t112.5 98.5q-76 24 -110.5 81.5t-34.5 114.5q0 106 66 183.5t166.5 114t218.5 36.5q125 0 238.5 -39.5t184.5 -114.5l-190 -227q-84 84 -184 84q-45 0 -68.5 -16.5t-23.5 -44.5q0 -21 16.5 -35.5t44.5 -14.5h94v-229h-92q-33 0 -50.5 -14.5 t-17.5 -38.5t21 -43t72 -19q107 0 219 101l205 -230q-81 -83 -209 -127.5t-267 -44.5q-121 0 -219 30t-162.5 99t-64.5 168zM147 1602l355 63l174 -494l-232 -63z" />
<glyph unicode="&#x1f73;" horiz-adv-x="1034" d="M82 270q0 66 34.5 127.5t112.5 98.5q-76 24 -110.5 81.5t-34.5 114.5q0 106 66 183.5t166.5 114t218.5 36.5q125 0 238.5 -39.5t184.5 -114.5l-190 -227q-84 84 -184 84q-45 0 -68.5 -16.5t-23.5 -44.5q0 -21 16.5 -35.5t44.5 -14.5h94v-229h-92q-33 0 -50.5 -14.5 t-17.5 -38.5t21 -43t72 -19q107 0 219 101l205 -230q-81 -83 -209 -127.5t-267 -44.5q-121 0 -219 30t-162.5 99t-64.5 168zM360 1171l175 494l354 -63l-297 -494z" />
<glyph unicode="&#x1f74;" horiz-adv-x="1202" d="M92 0v999h387v-100h8q48 55 125 89t142 34q366 0 366 -416v-606h-387v530q0 162 -115 162q-98 0 -126 -94q-13 -44 -13 -96v-502h-387zM209 1599l354 64l174 -494l-231 -63z" />
<glyph unicode="&#x1f75;" horiz-adv-x="1202" d="M92 0v999h387v-100h8q48 55 125 89t142 34q366 0 366 -416v-606h-387v530q0 162 -115 162q-98 0 -126 -94q-13 -44 -13 -96v-502h-387zM399 1171l174 494l355 -63l-297 -494z" />
<glyph unicode="&#x1f76;" horiz-adv-x="632" d="M-70 1602l355 63l174 -494l-232 -63zM123 0v1001h387v-1001h-387z" />
<glyph unicode="&#x1f77;" horiz-adv-x="632" d="M123 0v1001h387v-1001h-387zM158 1171l174 494l354 -63l-297 -494z" />
<glyph unicode="&#x1f78;" horiz-adv-x="1236" d="M82 496q0 243 143.5 384.5t392.5 141.5t393 -142.5t144 -381.5q0 -242 -145 -382.5t-396 -140.5q-247 0 -389.5 142t-142.5 379zM252 1602l354 63l174 -494l-231 -63zM477 498q0 -219 141 -219q72 0 106 58.5t34 158.5q0 223 -144 223q-70 0 -103.5 -60.5t-33.5 -160.5z " />
<glyph unicode="&#x1f79;" horiz-adv-x="1236" d="M82 496q0 243 143.5 384.5t392.5 141.5t393 -142.5t144 -381.5q0 -242 -145 -382.5t-396 -140.5q-247 0 -389.5 142t-142.5 379zM434 1171l174 494l355 -63l-297 -494zM477 498q0 -219 141 -219q72 0 106 58.5t34 158.5q0 223 -144 223q-70 0 -103.5 -60.5t-33.5 -160.5z " />
<glyph unicode="&#x1f7a;" horiz-adv-x="1218" d="M92 449v552h387v-552q0 -170 127 -170q135 0 135 170v552l385 -2v-550q0 -224 -137.5 -349t-378.5 -125q-240 0 -379 124.5t-139 349.5zM266 1602l355 63l174 -494l-232 -63z" />
<glyph unicode="&#x1f7b;" horiz-adv-x="1218" d="M92 449v552h387v-552q0 -170 127 -170q135 0 135 170v552l385 -2v-550q0 -224 -137.5 -349t-378.5 -125q-240 0 -379 124.5t-139 349.5zM457 1171l174 494l354 -63l-297 -494z" />
<glyph unicode="&#x1f7c;" horiz-adv-x="1650" d="M82 506q0 85 29.5 168.5t84.5 157t145 126.5t202 70l98 -268q-162 -56 -162 -260q0 -121 29 -173.5t70 -52.5t66.5 29t25.5 76v242h311v-248q0 -49 25 -74t67 -25q41 0 69.5 52.5t28.5 173.5q0 204 -161 260l98 268q112 -17 202 -70t145 -126.5t84.5 -157t29.5 -168.5 q0 -154 -52.5 -271.5t-159 -186t-255.5 -68.5q-86 0 -160.5 38.5t-114.5 102.5h-4q-40 -64 -114.5 -102.5t-159.5 -38.5q-226 0 -346.5 138.5t-120.5 387.5zM463 1602l354 63l174 -494l-231 -63z" />
<glyph unicode="&#x1f7d;" horiz-adv-x="1650" d="M82 506q0 85 29.5 168.5t84.5 157t145 126.5t202 70l98 -268q-162 -56 -162 -260q0 -121 29 -173.5t70 -52.5t66.5 29t25.5 76v242h311v-248q0 -49 25 -74t67 -25q41 0 69.5 52.5t28.5 173.5q0 204 -161 260l98 268q112 -17 202 -70t145 -126.5t84.5 -157t29.5 -168.5 q0 -154 -52.5 -271.5t-159 -186t-255.5 -68.5q-86 0 -160.5 38.5t-114.5 102.5h-4q-40 -64 -114.5 -102.5t-159.5 -38.5q-226 0 -346.5 138.5t-120.5 387.5zM635 1171l174 494l354 -63l-297 -494z" />
<glyph unicode="&#x1f80;" horiz-adv-x="1218" d="M82 479q0 135 30.5 239.5t85 170t126 98.5t157.5 33q68 0 139.5 -30.5t114.5 -76.5l6 2v86h385v-1001h-335l-37 88h-9q-114 -106 -272 -106q-79 0 -148.5 31t-124.5 90.5t-86.5 156t-31.5 219.5zM377 1440l117 248q143 -30 216.5 -110.5t73.5 -193.5q0 -61 -35.5 -141 t-111.5 -151l-180 55q61 97 61 164q0 107 -141 129zM459 -109h243v-190q0 -54 34 -70.5t102 -13.5v-178q-82 -23 -154 -23q-46 0 -84 10.5t-71 35t-51.5 70.5t-18.5 110v249zM485 494q0 -199 121 -199q31 0 67 15t64 42v291q-54 59 -131 59q-55 0 -88 -53t-33 -155z" />
<glyph unicode="&#x1f81;" horiz-adv-x="1218" d="M82 479q0 135 30.5 239.5t85 170t126 98.5t157.5 33q68 0 139.5 -30.5t114.5 -76.5l6 2v86h385v-1001h-335l-37 88h-9q-114 -106 -272 -106q-79 0 -148.5 31t-124.5 90.5t-86.5 156t-31.5 219.5zM416 1389q0 116 81 200t234 97l80 -250q-79 -12 -104 -42t-25 -79 q0 -67 61 -164l-180 -59q-76 71 -111.5 153.5t-35.5 143.5zM459 -109h243v-190q0 -54 34 -70.5t102 -13.5v-178q-82 -23 -154 -23q-46 0 -84 10.5t-71 35t-51.5 70.5t-18.5 110v249zM485 494q0 -199 121 -199q31 0 67 15t64 42v291q-54 59 -131 59q-55 0 -88 -53t-33 -155z " />
<glyph unicode="&#x1f82;" horiz-adv-x="1218" d="M82 479q0 135 30.5 239.5t85 170t126 98.5t157.5 33q68 0 139.5 -30.5t114.5 -76.5l6 2v86h385v-1001h-335l-37 88h-9q-114 -106 -272 -106q-79 0 -148.5 31t-124.5 90.5t-86.5 156t-31.5 219.5zM150 1462l116 248q144 -30 217.5 -110.5t73.5 -192.5q0 -60 -36 -141 t-111 -152l-181 55q62 99 62 164q0 110 -141 129zM459 -109h243v-190q0 -54 34 -70.5t102 -13.5v-178q-82 -23 -154 -23q-46 0 -84 10.5t-71 35t-51.5 70.5t-18.5 110v249zM485 494q0 -199 121 -199q31 0 67 15t64 42v291q-54 59 -131 59q-55 0 -88 -53t-33 -155zM528 1624 l338 64l174 -492l-217 -63z" />
<glyph unicode="&#x1f83;" horiz-adv-x="1218" d="M82 479q0 135 30.5 239.5t85 170t126 98.5t157.5 33q68 0 139.5 -30.5t114.5 -76.5l6 2v86h385v-1001h-335l-37 88h-9q-114 -106 -272 -106q-79 0 -148.5 31t-124.5 90.5t-86.5 156t-31.5 219.5zM158 1395q0 116 81 200t234 97l80 -250q-79 -12 -104 -42t-25 -79 q0 -67 61 -164l-180 -59q-76 71 -111.5 153.5t-35.5 143.5zM459 -109h243v-190q0 -54 34 -70.5t102 -13.5v-178q-82 -23 -154 -23q-46 0 -84 10.5t-71 35t-51.5 70.5t-18.5 110v249zM485 494q0 -199 121 -199q31 0 67 15t64 42v291q-54 59 -131 59q-55 0 -88 -53t-33 -155z M539 1618l338 63l174 -489l-215 -64z" />
<glyph unicode="&#x1f84;" horiz-adv-x="1218" d="M82 479q0 135 30.5 239.5t85 170t126 98.5t157.5 33q68 0 139.5 -30.5t114.5 -76.5l6 2v86h385v-1001h-335l-37 88h-9q-114 -106 -272 -106q-79 0 -148.5 31t-124.5 90.5t-86.5 156t-31.5 219.5zM236 1436l116 247q144 -30 217.5 -110.5t73.5 -192.5q0 -61 -35.5 -141.5 t-111.5 -151.5l-181 56q62 99 62 164q0 107 -141 129zM459 -109h243v-190q0 -54 34 -70.5t102 -13.5v-178q-82 -23 -154 -23q-46 0 -84 10.5t-71 35t-51.5 70.5t-18.5 110v249zM485 494q0 -199 121 -199q31 0 67 15t64 42v291q-54 59 -131 59q-55 0 -88 -53t-33 -155z M641 1149l174 489l338 -63l-297 -490z" />
<glyph unicode="&#x1f85;" horiz-adv-x="1218" d="M82 479q0 135 30.5 239.5t85 170t126 98.5t157.5 33q68 0 139.5 -30.5t114.5 -76.5l6 2v86h385v-1001h-335l-37 88h-9q-114 -106 -272 -106q-79 0 -148.5 31t-124.5 90.5t-86.5 156t-31.5 219.5zM242 1376q0 116 81 200t234 97l80 -250q-79 -12 -104 -42t-25 -78 q0 -67 61 -164l-180 -60q-76 71 -111.5 153.5t-35.5 143.5zM459 -109h243v-190q0 -54 34 -70.5t102 -13.5v-178q-82 -23 -154 -23q-46 0 -84 10.5t-71 35t-51.5 70.5t-18.5 110v249zM485 494q0 -199 121 -199q31 0 67 15t64 42v291q-54 59 -131 59q-55 0 -88 -53t-33 -155z M612 1149l174 489l338 -63l-297 -490z" />
<glyph unicode="&#x1f86;" horiz-adv-x="1218" d="M82 479q0 135 30.5 239.5t85 170t126 98.5t157.5 33q68 0 139.5 -30.5t114.5 -76.5l6 2v86h385v-1001h-335l-37 88h-9q-114 -106 -272 -106q-79 0 -148.5 31t-124.5 90.5t-86.5 156t-31.5 219.5zM193 1602q51 131 126.5 199.5t155.5 68.5q63 0 184 -47t158 -47 q62 0 139 86l134 -70q-32 -97 -82.5 -158.5t-101 -84.5t-107.5 -23q-48 0 -162.5 45t-155.5 45q-24 0 -41 -4t-48.5 -25t-65.5 -61zM459 -109h243v-190q0 -54 34 -70.5t102 -13.5v-178q-82 -23 -154 -23q-46 0 -84 10.5t-71 35t-51.5 70.5t-18.5 110v249zM485 494 q0 -199 121 -199q31 0 67 15t64 42v291q-54 59 -131 59q-55 0 -88 -53t-33 -155zM485 1339l56 172q143 -6 218 -65t75 -152q0 -88 -80 -152t-222 -77l-26 106q39 10 68.5 31t29.5 45q0 32 -22.5 51t-96.5 41z" />
<glyph unicode="&#x1f87;" horiz-adv-x="1218" d="M82 479q0 135 30.5 239.5t85 170t126 98.5t157.5 33q68 0 139.5 -30.5t114.5 -76.5l6 2v86h385v-1001h-335l-37 88h-9q-114 -106 -272 -106q-79 0 -148.5 31t-124.5 90.5t-86.5 156t-31.5 219.5zM193 1606q51 131 126.5 199.5t155.5 68.5q63 0 184 -47t158 -47 q62 0 139 86l134 -70q-32 -97 -82.5 -158.5t-101 -84.5t-107.5 -23q-48 0 -162.5 45t-155.5 45q-24 0 -41 -4t-48.5 -25t-65.5 -61zM459 -109h243v-190q0 -54 34 -70.5t102 -13.5v-178q-82 -23 -154 -23q-46 0 -84 10.5t-71 35t-51.5 70.5t-18.5 110v249zM459 1300 q6 89 81 148t212 65l55 -170q-74 -22 -96.5 -41t-22.5 -51q0 -23 29.5 -44t68.5 -31l-26 -107q-149 13 -228 75.5t-73 155.5zM485 494q0 -199 121 -199q31 0 67 15t64 42v291q-54 59 -131 59q-55 0 -88 -53t-33 -155z" />
<glyph unicode="&#x1f88;" horiz-adv-x="1982" d="M-190 1223l116 247q144 -30 217.5 -110.5t73.5 -192.5q0 -61 -35.5 -141.5t-111.5 -151.5l-181 56q62 99 62 164q0 107 -141 129zM-8 0l477 1333h473l475 -1333h-430l-76 248h-430l-73 -248h-416zM569 532h256l-59 199l-66 230h-6l-67 -236zM1444 262v737h364v-651 q0 -60 26.5 -78.5t107.5 -21.5v-230q-85 -36 -213 -36q-141 0 -213 63.5t-72 216.5z" />
<glyph unicode="&#x1f89;" horiz-adv-x="1982" d="M-152 1184q0 116 81.5 200t234.5 97l80 -250q-79 -12 -104 -42t-25 -79q0 -67 61 -164l-180 -59q-76 71 -112 153.5t-36 143.5zM-8 0l477 1333h473l475 -1333h-430l-76 248h-430l-73 -248h-416zM569 532h256l-59 199l-66 230h-6l-67 -236zM1444 262v737h364v-651 q0 -60 26.5 -78.5t107.5 -21.5v-230q-85 -36 -213 -36q-141 0 -213 63.5t-72 216.5z" />
<glyph unicode="&#x1f8a;" horiz-adv-x="1982" d="M-606 1257l117 248q144 -30 217 -110t73 -193q0 -60 -36 -141t-111 -152l-180 56q61 97 61 163q0 110 -141 129zM-227 1419l338 64l174 -492l-217 -63zM-8 0l477 1333h473l475 -1333h-430l-76 248h-430l-73 -248h-416zM569 532h256l-59 199l-66 230h-6l-67 -236z M1444 262v737h364v-651q0 -60 26.5 -78.5t107.5 -21.5v-230q-85 -36 -213 -36q-141 0 -213 63.5t-72 216.5z" />
<glyph unicode="&#x1f8b;" horiz-adv-x="1982" d="M-604 1194q0 116 81 200t234 97l80 -250q-79 -12 -104 -42t-25 -79q0 -65 62 -164l-181 -59q-76 71 -111.5 153.5t-35.5 143.5zM-223 1417l338 64l174 -490l-215 -63zM-8 0l477 1333h473l475 -1333h-430l-76 248h-430l-73 -248h-416zM569 532h256l-59 199l-66 230h-6 l-67 -236zM1444 262v737h364v-651q0 -60 26.5 -78.5t107.5 -21.5v-230q-85 -36 -213 -36q-141 0 -213 63.5t-72 216.5z" />
<glyph unicode="&#x1f8c;" horiz-adv-x="1982" d="M-555 1231l117 248q144 -30 217.5 -110.5t73.5 -192.5q0 -61 -36 -141.5t-112 -151.5l-180 55q61 97 61 164q0 107 -141 129zM-150 944l175 490l337 -64l-296 -489zM-8 0l477 1333h473l475 -1333h-430l-76 248h-430l-73 -248h-416zM569 532h256l-59 199l-66 230h-6 l-67 -236zM1444 262v737h364v-651q0 -60 26.5 -78.5t107.5 -21.5v-230q-85 -36 -213 -36q-141 0 -213 63.5t-72 216.5z" />
<glyph unicode="&#x1f8d;" horiz-adv-x="1982" d="M-502 1198q0 116 81.5 200t234.5 97l80 -250q-79 -12 -104.5 -42.5t-25.5 -78.5q0 -64 62 -163l-180 -60q-76 71 -112 153.5t-36 143.5zM-131 971l174 489l338 -63l-297 -490zM-8 0l477 1333h473l475 -1333h-430l-76 248h-430l-73 -248h-416zM569 532h256l-59 199 l-66 230h-6l-67 -236zM1444 262v737h364v-651q0 -60 26.5 -78.5t107.5 -21.5v-230q-85 -36 -213 -36q-141 0 -213 63.5t-72 216.5z" />
<glyph unicode="&#x1f8e;" horiz-adv-x="1982" d="M-492 1245q50 131 126.5 199.5t156.5 68.5q63 0 184 -47t158 -47q62 0 139 86l134 -69q-25 -73 -59 -126.5t-73 -83.5t-78 -43.5t-81 -13.5q-48 0 -162.5 45.5t-155.5 45.5q-23 0 -40.5 -4t-48.5 -25.5t-66 -61.5zM-199 983l56 172q143 -6 218 -65t75 -152 q0 -88 -80 -152t-222 -77l-26 106q39 10 68.5 31t29.5 45q0 32 -22.5 51t-96.5 41zM-8 0l477 1333h473l475 -1333h-430l-76 248h-430l-73 -248h-416zM569 532h256l-59 199l-66 230h-6l-67 -236zM1444 262v737h364v-651q0 -60 26.5 -78.5t107.5 -21.5v-230q-85 -36 -213 -36 q-141 0 -213 63.5t-72 216.5z" />
<glyph unicode="&#x1f8f;" horiz-adv-x="1982" d="M-487 1245q51 131 126.5 199.5t155.5 68.5q63 0 184 -47t158 -47q62 0 139 86l134 -69q-25 -73 -59 -126.5t-73 -83.5t-78 -43.5t-81 -13.5q-48 0 -162.5 45.5t-155.5 45.5q-23 0 -40.5 -4t-48.5 -25.5t-66 -61.5zM-221 940q6 89 81 148t212 65l55 -170 q-74 -22 -96.5 -41t-22.5 -51q0 -24 29.5 -45t68.5 -31l-26 -106q-149 13 -228 75.5t-73 155.5zM-8 0l477 1333h473l475 -1333h-430l-76 248h-430l-73 -248h-416zM569 532h256l-59 199l-66 230h-6l-67 -236zM1444 262v737h364v-651q0 -60 26.5 -78.5t107.5 -21.5v-230 q-85 -36 -213 -36q-141 0 -213 63.5t-72 216.5z" />
<glyph unicode="&#x1f90;" horiz-adv-x="1157" d="M92 0v999h387v-100h8q48 55 125 89t142 34q366 0 366 -416v-606h-387v530q0 162 -115 162q-98 0 -126 -94q-13 -44 -13 -96v-502h-387zM319 1442l117 248q144 -30 217.5 -111t73.5 -193q0 -61 -35.5 -141t-111.5 -151l-181 55q62 99 62 164q0 107 -142 129zM469 -109h244 v-190q0 -54 33.5 -70.5t101.5 -13.5v-178q-82 -23 -154 -23q-46 0 -84 10.5t-71 35t-51.5 70.5t-18.5 110v249z" />
<glyph unicode="&#x1f91;" horiz-adv-x="1157" d="M92 0v999h387v-100h8q48 55 125 89t142 34q366 0 366 -416v-606h-387v530q0 162 -115 162q-98 0 -126 -94q-13 -44 -13 -96v-502h-387zM360 1386q0 116 81.5 200t234.5 97l80 -249q-79 -12 -104 -42t-25 -79q0 -67 61 -164l-180 -59q-76 71 -112 153t-36 143zM475 -109 h244v-190q0 -54 33.5 -70.5t101.5 -13.5v-178q-82 -23 -154 -23q-46 0 -84 10.5t-71 35t-51.5 70.5t-18.5 110v249z" />
<glyph unicode="&#x1f92;" horiz-adv-x="1157" d="M92 0v999h387v-100h8q48 55 125 89t142 34q366 0 366 -416v-606h-387v530q0 162 -115 162q-98 0 -126 -94q-13 -44 -13 -96v-502h-387zM92 1462l117 248q144 -30 217.5 -110.5t73.5 -192.5q0 -60 -36.5 -141t-111.5 -152l-180 55q61 97 61 164q0 110 -141 129zM471 1624 l338 64l174 -492l-217 -63zM475 -109h244v-190q0 -54 33.5 -70.5t101.5 -13.5v-178q-82 -23 -154 -23q-46 0 -84 10.5t-71 35t-51.5 70.5t-18.5 110v249z" />
<glyph unicode="&#x1f93;" horiz-adv-x="1157" d="M92 0v999h387v-100h8q48 55 125 89t142 34q366 0 366 -416v-606h-387v530q0 162 -115 162q-98 0 -126 -94q-13 -44 -13 -96v-502h-387zM100 1401q0 116 81.5 200t234.5 97l80 -250q-79 -12 -104 -42t-25 -79q0 -67 61 -164l-180 -59q-76 71 -112 153.5t-36 143.5z M475 -109h244v-190q0 -54 33.5 -70.5t101.5 -13.5v-178q-82 -23 -154 -23q-46 0 -84 10.5t-71 35t-51.5 70.5t-18.5 110v249zM481 1624l338 64l174 -490l-215 -63z" />
<glyph unicode="&#x1f94;" horiz-adv-x="1157" d="M92 0v999h387v-100h8q48 55 125 89t142 34q366 0 366 -416v-606h-387v530q0 162 -115 162q-98 0 -126 -94q-13 -44 -13 -96v-502h-387zM139 1425l117 248q144 -30 217.5 -110.5t73.5 -192.5q0 -61 -36 -141.5t-112 -151.5l-180 56q62 99 62 163q0 107 -142 129zM475 -109 h244v-190q0 -54 33.5 -70.5t101.5 -13.5v-178q-82 -23 -154 -23q-46 0 -84 10.5t-71 35t-51.5 70.5t-18.5 110v249zM545 1139l174 489l338 -63l-297 -490z" />
<glyph unicode="&#x1f95;" horiz-adv-x="1157" d="M92 0v999h387v-100h8q48 55 125 89t142 34q366 0 366 -416v-606h-387v530q0 162 -115 162q-98 0 -126 -94q-13 -44 -13 -96v-502h-387zM178 1370q0 116 81.5 200t234.5 97l79 -250q-79 -12 -104 -42t-25 -79q0 -64 62 -163l-180 -60q-76 71 -112 153.5t-36 143.5z M475 -109h244v-190q0 -54 33.5 -70.5t101.5 -13.5v-178q-82 -23 -154 -23q-46 0 -84 10.5t-71 35t-51.5 70.5t-18.5 110v249zM549 1143l174 489l338 -63l-297 -490z" />
<glyph unicode="&#x1f96;" horiz-adv-x="1157" d="M92 0v999h387v-100h8q48 55 125 89t142 34q366 0 366 -416v-606h-387v530q0 162 -115 162q-98 0 -126 -94q-13 -44 -13 -96v-502h-387zM106 1575q50 131 126.5 199.5t156.5 68.5q63 0 184 -47t158 -47q62 0 139 86l134 -70q-32 -97 -82.5 -158.5t-101 -84.5t-107.5 -23 q-48 0 -162.5 45t-155.5 45q-24 0 -41 -4t-48.5 -25t-65.5 -61zM399 1313l56 172q143 -6 218 -65t75 -152q0 -88 -80 -152.5t-222 -77.5l-26 107q39 10 68.5 31t29.5 45q0 32 -22.5 51t-96.5 41zM475 -109h244v-190q0 -54 33.5 -70.5t101.5 -13.5v-178q-82 -23 -154 -23 q-46 0 -84 10.5t-71 35t-51.5 70.5t-18.5 110v249z" />
<glyph unicode="&#x1f97;" horiz-adv-x="1157" d="M92 0v999h387v-100h8q48 55 125 89t142 34q366 0 366 -416v-606h-387v530q0 162 -115 162q-98 0 -126 -94q-13 -44 -13 -96v-502h-387zM113 1595q51 132 126.5 200.5t155.5 68.5q63 0 184 -47.5t158 -47.5q63 0 140 86l133 -69q-32 -97 -82.5 -158.5t-101 -84.5 t-107.5 -23q-48 0 -162.5 45t-155.5 45q-24 0 -41 -4t-48.5 -25t-65.5 -61zM379 1290q6 89 81 148t212 65l55 -170q-74 -22 -96.5 -41t-22.5 -51q0 -24 30 -45t69 -31l-27 -106q-149 13 -228 75.5t-73 155.5zM475 -109h244v-190q0 -54 33.5 -70.5t101.5 -13.5v-178 q-82 -23 -154 -23q-46 0 -84 10.5t-71 35t-51.5 70.5t-18.5 110v249z" />
<glyph unicode="&#x1f98;" horiz-adv-x="1961" d="M-391 1235l117 248q144 -30 217 -110t73 -193q0 -61 -35.5 -141.5t-111.5 -151.5l-180 55q61 97 61 164q0 107 -141 129zM102 0v1333h402v-491h403v491h402v-1333h-402v512h-403v-512h-402zM1434 262v737h364v-651q0 -60 26.5 -78.5t106.5 -21.5v-230q-85 -36 -213 -36 q-141 0 -212.5 63.5t-71.5 216.5z" />
<glyph unicode="&#x1f99;" horiz-adv-x="1961" d="M-385 1190q0 116 81 200t234 97l80 -250q-79 -12 -104 -42t-25 -79q0 -65 62 -164l-181 -59q-76 71 -111.5 153.5t-35.5 143.5zM102 0v1333h402v-491h403v491h402v-1333h-402v512h-403v-512h-402zM1434 262v737h364v-651q0 -60 26.5 -78.5t106.5 -21.5v-230 q-85 -36 -213 -36q-141 0 -212.5 63.5t-71.5 216.5z" />
<glyph unicode="&#x1f9a;" horiz-adv-x="1961" d="M-858 1251l117 248q144 -30 217 -110t73 -193q0 -60 -36 -141t-111 -152l-180 55q61 97 61 164q0 110 -141 129zM-479 1413l338 64l174 -492l-217 -63zM102 0v1333h402v-491h403v491h402v-1333h-402v512h-403v-512h-402zM1434 262v737h364v-651q0 -60 26.5 -78.5 t106.5 -21.5v-230q-85 -36 -213 -36q-141 0 -212.5 63.5t-71.5 216.5z" />
<glyph unicode="&#x1f9b;" horiz-adv-x="1957" d="M-858 1194q0 116 81 200t234 97l80 -250q-79 -12 -104 -42t-25 -79q0 -65 62 -164l-181 -59q-76 71 -111.5 153.5t-35.5 143.5zM-477 1417l338 64l174 -490l-215 -63zM102 0v1333h402v-491h403v491h402v-1333h-402v512h-403v-512h-402zM1430 262v737h364v-651 q0 -60 26.5 -78.5t106.5 -21.5v-230q-85 -36 -213 -36q-141 0 -212.5 63.5t-71.5 216.5z" />
<glyph unicode="&#x1f9c;" horiz-adv-x="1961" d="M-840 1241l117 248q144 -30 217.5 -110.5t73.5 -192.5q0 -61 -36 -141.5t-112 -151.5l-180 55q62 99 62 164q0 107 -142 129zM-434 954l174 490l338 -64l-297 -489zM102 0v1333h402v-491h403v491h402v-1333h-402v512h-403v-512h-402zM1434 262v737h364v-651 q0 -60 26.5 -78.5t106.5 -21.5v-230q-85 -36 -213 -36q-141 0 -212.5 63.5t-71.5 216.5z" />
<glyph unicode="&#x1f9d;" horiz-adv-x="1961" d="M-813 1180q0 116 81 200t234 97l80 -250q-79 -12 -104 -42t-25 -79q0 -65 62 -164l-181 -59q-76 71 -111.5 153.5t-35.5 143.5zM-442 952l174 490l338 -64l-297 -489zM102 0v1333h402v-491h403v491h402v-1333h-402v512h-403v-512h-402zM1434 262v737h364v-651 q0 -60 26.5 -78.5t106.5 -21.5v-230q-85 -36 -213 -36q-141 0 -212.5 63.5t-71.5 216.5z" />
<glyph unicode="&#x1f9e;" horiz-adv-x="1961" d="M-805 1245q50 131 126.5 199.5t156.5 68.5q63 0 184 -47t158 -47q62 0 139 86l133 -69q-25 -73 -59 -126.5t-73 -83.5t-78 -43.5t-81 -13.5q-48 0 -162 45.5t-155 45.5q-23 0 -41 -4t-49 -25.5t-66 -61.5zM-512 983l55 172q143 -6 218 -65t75 -152q0 -88 -79.5 -152 t-221.5 -77l-27 106q39 10 69 31t30 45q0 32 -22.5 51t-96.5 41zM102 0v1333h402v-491h403v491h402v-1333h-402v512h-403v-512h-402zM1434 262v737h364v-651q0 -60 26.5 -78.5t106.5 -21.5v-230q-85 -36 -213 -36q-141 0 -212.5 63.5t-71.5 216.5z" />
<glyph unicode="&#x1f9f;" horiz-adv-x="1961" d="M-805 1241q50 131 126.5 199.5t156.5 68.5q63 0 184 -47t158 -47q62 0 139 86l133 -69q-25 -73 -59 -126.5t-73 -83.5t-78 -43.5t-81 -13.5q-48 0 -162 45t-155 45q-24 0 -41.5 -4t-49 -25t-65.5 -61zM-539 936q6 89 81 148t212 65l56 -170q-74 -22 -96.5 -41t-22.5 -51 q0 -24 29.5 -45t68.5 -31l-27 -106q-149 13 -228 75.5t-73 155.5zM102 0v1333h402v-491h403v491h402v-1333h-402v512h-403v-512h-402zM1434 262v737h364v-651q0 -60 26.5 -78.5t106.5 -21.5v-230q-85 -36 -213 -36q-141 0 -212.5 63.5t-71.5 216.5z" />
</font>
</defs>
</svg>
